%TF.GenerationSoftware,KiCad,Pcbnew,9.0.0*%
%TF.CreationDate,2025-04-07T01:58:01+02:00*%
%TF.ProjectId,Mastersthesis,4d617374-6572-4737-9468-657369732e6b,0*%
%TF.SameCoordinates,Original*%
%TF.FileFunction,Legend,Top*%
%TF.FilePolarity,Positive*%
%FSLAX46Y46*%
G04 Gerber Fmt 4.6, Leading zero omitted, Abs format (unit mm)*
G04 Created by KiCad (PCBNEW 9.0.0) date 2025-04-07 01:58:01*
%MOMM*%
%LPD*%
G01*
G04 APERTURE LIST*
%ADD10C,0.150000*%
%ADD11C,0.100000*%
%ADD12C,0.120000*%
%ADD13C,0.127000*%
%ADD14C,0.200000*%
%ADD15C,0.350000*%
G04 APERTURE END LIST*
D10*
X130354819Y-44142857D02*
X129878628Y-44476190D01*
X130354819Y-44714285D02*
X129354819Y-44714285D01*
X129354819Y-44714285D02*
X129354819Y-44333333D01*
X129354819Y-44333333D02*
X129402438Y-44238095D01*
X129402438Y-44238095D02*
X129450057Y-44190476D01*
X129450057Y-44190476D02*
X129545295Y-44142857D01*
X129545295Y-44142857D02*
X129688152Y-44142857D01*
X129688152Y-44142857D02*
X129783390Y-44190476D01*
X129783390Y-44190476D02*
X129831009Y-44238095D01*
X129831009Y-44238095D02*
X129878628Y-44333333D01*
X129878628Y-44333333D02*
X129878628Y-44714285D01*
X129450057Y-43761904D02*
X129402438Y-43714285D01*
X129402438Y-43714285D02*
X129354819Y-43619047D01*
X129354819Y-43619047D02*
X129354819Y-43380952D01*
X129354819Y-43380952D02*
X129402438Y-43285714D01*
X129402438Y-43285714D02*
X129450057Y-43238095D01*
X129450057Y-43238095D02*
X129545295Y-43190476D01*
X129545295Y-43190476D02*
X129640533Y-43190476D01*
X129640533Y-43190476D02*
X129783390Y-43238095D01*
X129783390Y-43238095D02*
X130354819Y-43809523D01*
X130354819Y-43809523D02*
X130354819Y-43190476D01*
X130354819Y-42238095D02*
X130354819Y-42809523D01*
X130354819Y-42523809D02*
X129354819Y-42523809D01*
X129354819Y-42523809D02*
X129497676Y-42619047D01*
X129497676Y-42619047D02*
X129592914Y-42714285D01*
X129592914Y-42714285D02*
X129640533Y-42809523D01*
X132933333Y-51323200D02*
X133133333Y-51389866D01*
X133133333Y-51389866D02*
X133466667Y-51389866D01*
X133466667Y-51389866D02*
X133600000Y-51323200D01*
X133600000Y-51323200D02*
X133666667Y-51256533D01*
X133666667Y-51256533D02*
X133733333Y-51123200D01*
X133733333Y-51123200D02*
X133733333Y-50989866D01*
X133733333Y-50989866D02*
X133666667Y-50856533D01*
X133666667Y-50856533D02*
X133600000Y-50789866D01*
X133600000Y-50789866D02*
X133466667Y-50723200D01*
X133466667Y-50723200D02*
X133200000Y-50656533D01*
X133200000Y-50656533D02*
X133066667Y-50589866D01*
X133066667Y-50589866D02*
X133000000Y-50523200D01*
X133000000Y-50523200D02*
X132933333Y-50389866D01*
X132933333Y-50389866D02*
X132933333Y-50256533D01*
X132933333Y-50256533D02*
X133000000Y-50123200D01*
X133000000Y-50123200D02*
X133066667Y-50056533D01*
X133066667Y-50056533D02*
X133200000Y-49989866D01*
X133200000Y-49989866D02*
X133533333Y-49989866D01*
X133533333Y-49989866D02*
X133733333Y-50056533D01*
X135066666Y-51389866D02*
X134266666Y-51389866D01*
X134666666Y-51389866D02*
X134666666Y-49989866D01*
X134666666Y-49989866D02*
X134533333Y-50189866D01*
X134533333Y-50189866D02*
X134400000Y-50323200D01*
X134400000Y-50323200D02*
X134266666Y-50389866D01*
X110050057Y-119595238D02*
X110002438Y-119690476D01*
X110002438Y-119690476D02*
X109907200Y-119785714D01*
X109907200Y-119785714D02*
X109764342Y-119928571D01*
X109764342Y-119928571D02*
X109716723Y-120023809D01*
X109716723Y-120023809D02*
X109716723Y-120119047D01*
X109954819Y-120071428D02*
X109907200Y-120166666D01*
X109907200Y-120166666D02*
X109811961Y-120261904D01*
X109811961Y-120261904D02*
X109621485Y-120309523D01*
X109621485Y-120309523D02*
X109288152Y-120309523D01*
X109288152Y-120309523D02*
X109097676Y-120261904D01*
X109097676Y-120261904D02*
X109002438Y-120166666D01*
X109002438Y-120166666D02*
X108954819Y-120071428D01*
X108954819Y-120071428D02*
X108954819Y-119880952D01*
X108954819Y-119880952D02*
X109002438Y-119785714D01*
X109002438Y-119785714D02*
X109097676Y-119690476D01*
X109097676Y-119690476D02*
X109288152Y-119642857D01*
X109288152Y-119642857D02*
X109621485Y-119642857D01*
X109621485Y-119642857D02*
X109811961Y-119690476D01*
X109811961Y-119690476D02*
X109907200Y-119785714D01*
X109907200Y-119785714D02*
X109954819Y-119880952D01*
X109954819Y-119880952D02*
X109954819Y-120071428D01*
X109954819Y-118690476D02*
X109954819Y-119261904D01*
X109954819Y-118976190D02*
X108954819Y-118976190D01*
X108954819Y-118976190D02*
X109097676Y-119071428D01*
X109097676Y-119071428D02*
X109192914Y-119166666D01*
X109192914Y-119166666D02*
X109240533Y-119261904D01*
X138107142Y-52539580D02*
X138059523Y-52587200D01*
X138059523Y-52587200D02*
X137916666Y-52634819D01*
X137916666Y-52634819D02*
X137821428Y-52634819D01*
X137821428Y-52634819D02*
X137678571Y-52587200D01*
X137678571Y-52587200D02*
X137583333Y-52491961D01*
X137583333Y-52491961D02*
X137535714Y-52396723D01*
X137535714Y-52396723D02*
X137488095Y-52206247D01*
X137488095Y-52206247D02*
X137488095Y-52063390D01*
X137488095Y-52063390D02*
X137535714Y-51872914D01*
X137535714Y-51872914D02*
X137583333Y-51777676D01*
X137583333Y-51777676D02*
X137678571Y-51682438D01*
X137678571Y-51682438D02*
X137821428Y-51634819D01*
X137821428Y-51634819D02*
X137916666Y-51634819D01*
X137916666Y-51634819D02*
X138059523Y-51682438D01*
X138059523Y-51682438D02*
X138107142Y-51730057D01*
X138488095Y-51730057D02*
X138535714Y-51682438D01*
X138535714Y-51682438D02*
X138630952Y-51634819D01*
X138630952Y-51634819D02*
X138869047Y-51634819D01*
X138869047Y-51634819D02*
X138964285Y-51682438D01*
X138964285Y-51682438D02*
X139011904Y-51730057D01*
X139011904Y-51730057D02*
X139059523Y-51825295D01*
X139059523Y-51825295D02*
X139059523Y-51920533D01*
X139059523Y-51920533D02*
X139011904Y-52063390D01*
X139011904Y-52063390D02*
X138440476Y-52634819D01*
X138440476Y-52634819D02*
X139059523Y-52634819D01*
X139392857Y-51634819D02*
X140011904Y-51634819D01*
X140011904Y-51634819D02*
X139678571Y-52015771D01*
X139678571Y-52015771D02*
X139821428Y-52015771D01*
X139821428Y-52015771D02*
X139916666Y-52063390D01*
X139916666Y-52063390D02*
X139964285Y-52111009D01*
X139964285Y-52111009D02*
X140011904Y-52206247D01*
X140011904Y-52206247D02*
X140011904Y-52444342D01*
X140011904Y-52444342D02*
X139964285Y-52539580D01*
X139964285Y-52539580D02*
X139916666Y-52587200D01*
X139916666Y-52587200D02*
X139821428Y-52634819D01*
X139821428Y-52634819D02*
X139535714Y-52634819D01*
X139535714Y-52634819D02*
X139440476Y-52587200D01*
X139440476Y-52587200D02*
X139392857Y-52539580D01*
X111854819Y-44142857D02*
X111378628Y-44476190D01*
X111854819Y-44714285D02*
X110854819Y-44714285D01*
X110854819Y-44714285D02*
X110854819Y-44333333D01*
X110854819Y-44333333D02*
X110902438Y-44238095D01*
X110902438Y-44238095D02*
X110950057Y-44190476D01*
X110950057Y-44190476D02*
X111045295Y-44142857D01*
X111045295Y-44142857D02*
X111188152Y-44142857D01*
X111188152Y-44142857D02*
X111283390Y-44190476D01*
X111283390Y-44190476D02*
X111331009Y-44238095D01*
X111331009Y-44238095D02*
X111378628Y-44333333D01*
X111378628Y-44333333D02*
X111378628Y-44714285D01*
X110950057Y-43761904D02*
X110902438Y-43714285D01*
X110902438Y-43714285D02*
X110854819Y-43619047D01*
X110854819Y-43619047D02*
X110854819Y-43380952D01*
X110854819Y-43380952D02*
X110902438Y-43285714D01*
X110902438Y-43285714D02*
X110950057Y-43238095D01*
X110950057Y-43238095D02*
X111045295Y-43190476D01*
X111045295Y-43190476D02*
X111140533Y-43190476D01*
X111140533Y-43190476D02*
X111283390Y-43238095D01*
X111283390Y-43238095D02*
X111854819Y-43809523D01*
X111854819Y-43809523D02*
X111854819Y-43190476D01*
X110854819Y-42333333D02*
X110854819Y-42523809D01*
X110854819Y-42523809D02*
X110902438Y-42619047D01*
X110902438Y-42619047D02*
X110950057Y-42666666D01*
X110950057Y-42666666D02*
X111092914Y-42761904D01*
X111092914Y-42761904D02*
X111283390Y-42809523D01*
X111283390Y-42809523D02*
X111664342Y-42809523D01*
X111664342Y-42809523D02*
X111759580Y-42761904D01*
X111759580Y-42761904D02*
X111807200Y-42714285D01*
X111807200Y-42714285D02*
X111854819Y-42619047D01*
X111854819Y-42619047D02*
X111854819Y-42428571D01*
X111854819Y-42428571D02*
X111807200Y-42333333D01*
X111807200Y-42333333D02*
X111759580Y-42285714D01*
X111759580Y-42285714D02*
X111664342Y-42238095D01*
X111664342Y-42238095D02*
X111426247Y-42238095D01*
X111426247Y-42238095D02*
X111331009Y-42285714D01*
X111331009Y-42285714D02*
X111283390Y-42333333D01*
X111283390Y-42333333D02*
X111235771Y-42428571D01*
X111235771Y-42428571D02*
X111235771Y-42619047D01*
X111235771Y-42619047D02*
X111283390Y-42714285D01*
X111283390Y-42714285D02*
X111331009Y-42761904D01*
X111331009Y-42761904D02*
X111426247Y-42809523D01*
X161909580Y-86142857D02*
X161957200Y-86190476D01*
X161957200Y-86190476D02*
X162004819Y-86333333D01*
X162004819Y-86333333D02*
X162004819Y-86428571D01*
X162004819Y-86428571D02*
X161957200Y-86571428D01*
X161957200Y-86571428D02*
X161861961Y-86666666D01*
X161861961Y-86666666D02*
X161766723Y-86714285D01*
X161766723Y-86714285D02*
X161576247Y-86761904D01*
X161576247Y-86761904D02*
X161433390Y-86761904D01*
X161433390Y-86761904D02*
X161242914Y-86714285D01*
X161242914Y-86714285D02*
X161147676Y-86666666D01*
X161147676Y-86666666D02*
X161052438Y-86571428D01*
X161052438Y-86571428D02*
X161004819Y-86428571D01*
X161004819Y-86428571D02*
X161004819Y-86333333D01*
X161004819Y-86333333D02*
X161052438Y-86190476D01*
X161052438Y-86190476D02*
X161100057Y-86142857D01*
X162004819Y-85190476D02*
X162004819Y-85761904D01*
X162004819Y-85476190D02*
X161004819Y-85476190D01*
X161004819Y-85476190D02*
X161147676Y-85571428D01*
X161147676Y-85571428D02*
X161242914Y-85666666D01*
X161242914Y-85666666D02*
X161290533Y-85761904D01*
X162004819Y-84714285D02*
X162004819Y-84523809D01*
X162004819Y-84523809D02*
X161957200Y-84428571D01*
X161957200Y-84428571D02*
X161909580Y-84380952D01*
X161909580Y-84380952D02*
X161766723Y-84285714D01*
X161766723Y-84285714D02*
X161576247Y-84238095D01*
X161576247Y-84238095D02*
X161195295Y-84238095D01*
X161195295Y-84238095D02*
X161100057Y-84285714D01*
X161100057Y-84285714D02*
X161052438Y-84333333D01*
X161052438Y-84333333D02*
X161004819Y-84428571D01*
X161004819Y-84428571D02*
X161004819Y-84619047D01*
X161004819Y-84619047D02*
X161052438Y-84714285D01*
X161052438Y-84714285D02*
X161100057Y-84761904D01*
X161100057Y-84761904D02*
X161195295Y-84809523D01*
X161195295Y-84809523D02*
X161433390Y-84809523D01*
X161433390Y-84809523D02*
X161528628Y-84761904D01*
X161528628Y-84761904D02*
X161576247Y-84714285D01*
X161576247Y-84714285D02*
X161623866Y-84619047D01*
X161623866Y-84619047D02*
X161623866Y-84428571D01*
X161623866Y-84428571D02*
X161576247Y-84333333D01*
X161576247Y-84333333D02*
X161528628Y-84285714D01*
X161528628Y-84285714D02*
X161433390Y-84238095D01*
X105333333Y-86904819D02*
X104857143Y-86904819D01*
X104857143Y-86904819D02*
X104857143Y-85904819D01*
X105619048Y-86000057D02*
X105666667Y-85952438D01*
X105666667Y-85952438D02*
X105761905Y-85904819D01*
X105761905Y-85904819D02*
X106000000Y-85904819D01*
X106000000Y-85904819D02*
X106095238Y-85952438D01*
X106095238Y-85952438D02*
X106142857Y-86000057D01*
X106142857Y-86000057D02*
X106190476Y-86095295D01*
X106190476Y-86095295D02*
X106190476Y-86190533D01*
X106190476Y-86190533D02*
X106142857Y-86333390D01*
X106142857Y-86333390D02*
X105571429Y-86904819D01*
X105571429Y-86904819D02*
X106190476Y-86904819D01*
X115764819Y-100083333D02*
X116479104Y-100083333D01*
X116479104Y-100083333D02*
X116621961Y-100130952D01*
X116621961Y-100130952D02*
X116717200Y-100226190D01*
X116717200Y-100226190D02*
X116764819Y-100369047D01*
X116764819Y-100369047D02*
X116764819Y-100464285D01*
X115860057Y-99654761D02*
X115812438Y-99607142D01*
X115812438Y-99607142D02*
X115764819Y-99511904D01*
X115764819Y-99511904D02*
X115764819Y-99273809D01*
X115764819Y-99273809D02*
X115812438Y-99178571D01*
X115812438Y-99178571D02*
X115860057Y-99130952D01*
X115860057Y-99130952D02*
X115955295Y-99083333D01*
X115955295Y-99083333D02*
X116050533Y-99083333D01*
X116050533Y-99083333D02*
X116193390Y-99130952D01*
X116193390Y-99130952D02*
X116764819Y-99702380D01*
X116764819Y-99702380D02*
X116764819Y-99083333D01*
X118609580Y-124916666D02*
X118657200Y-124964285D01*
X118657200Y-124964285D02*
X118704819Y-125107142D01*
X118704819Y-125107142D02*
X118704819Y-125202380D01*
X118704819Y-125202380D02*
X118657200Y-125345237D01*
X118657200Y-125345237D02*
X118561961Y-125440475D01*
X118561961Y-125440475D02*
X118466723Y-125488094D01*
X118466723Y-125488094D02*
X118276247Y-125535713D01*
X118276247Y-125535713D02*
X118133390Y-125535713D01*
X118133390Y-125535713D02*
X117942914Y-125488094D01*
X117942914Y-125488094D02*
X117847676Y-125440475D01*
X117847676Y-125440475D02*
X117752438Y-125345237D01*
X117752438Y-125345237D02*
X117704819Y-125202380D01*
X117704819Y-125202380D02*
X117704819Y-125107142D01*
X117704819Y-125107142D02*
X117752438Y-124964285D01*
X117752438Y-124964285D02*
X117800057Y-124916666D01*
X118704819Y-124440475D02*
X118704819Y-124249999D01*
X118704819Y-124249999D02*
X118657200Y-124154761D01*
X118657200Y-124154761D02*
X118609580Y-124107142D01*
X118609580Y-124107142D02*
X118466723Y-124011904D01*
X118466723Y-124011904D02*
X118276247Y-123964285D01*
X118276247Y-123964285D02*
X117895295Y-123964285D01*
X117895295Y-123964285D02*
X117800057Y-124011904D01*
X117800057Y-124011904D02*
X117752438Y-124059523D01*
X117752438Y-124059523D02*
X117704819Y-124154761D01*
X117704819Y-124154761D02*
X117704819Y-124345237D01*
X117704819Y-124345237D02*
X117752438Y-124440475D01*
X117752438Y-124440475D02*
X117800057Y-124488094D01*
X117800057Y-124488094D02*
X117895295Y-124535713D01*
X117895295Y-124535713D02*
X118133390Y-124535713D01*
X118133390Y-124535713D02*
X118228628Y-124488094D01*
X118228628Y-124488094D02*
X118276247Y-124440475D01*
X118276247Y-124440475D02*
X118323866Y-124345237D01*
X118323866Y-124345237D02*
X118323866Y-124154761D01*
X118323866Y-124154761D02*
X118276247Y-124059523D01*
X118276247Y-124059523D02*
X118228628Y-124011904D01*
X118228628Y-124011904D02*
X118133390Y-123964285D01*
X138704819Y-69488094D02*
X137704819Y-69488094D01*
X137704819Y-69488094D02*
X137704819Y-69249999D01*
X137704819Y-69249999D02*
X137752438Y-69107142D01*
X137752438Y-69107142D02*
X137847676Y-69011904D01*
X137847676Y-69011904D02*
X137942914Y-68964285D01*
X137942914Y-68964285D02*
X138133390Y-68916666D01*
X138133390Y-68916666D02*
X138276247Y-68916666D01*
X138276247Y-68916666D02*
X138466723Y-68964285D01*
X138466723Y-68964285D02*
X138561961Y-69011904D01*
X138561961Y-69011904D02*
X138657200Y-69107142D01*
X138657200Y-69107142D02*
X138704819Y-69249999D01*
X138704819Y-69249999D02*
X138704819Y-69488094D01*
X137704819Y-68059523D02*
X137704819Y-68249999D01*
X137704819Y-68249999D02*
X137752438Y-68345237D01*
X137752438Y-68345237D02*
X137800057Y-68392856D01*
X137800057Y-68392856D02*
X137942914Y-68488094D01*
X137942914Y-68488094D02*
X138133390Y-68535713D01*
X138133390Y-68535713D02*
X138514342Y-68535713D01*
X138514342Y-68535713D02*
X138609580Y-68488094D01*
X138609580Y-68488094D02*
X138657200Y-68440475D01*
X138657200Y-68440475D02*
X138704819Y-68345237D01*
X138704819Y-68345237D02*
X138704819Y-68154761D01*
X138704819Y-68154761D02*
X138657200Y-68059523D01*
X138657200Y-68059523D02*
X138609580Y-68011904D01*
X138609580Y-68011904D02*
X138514342Y-67964285D01*
X138514342Y-67964285D02*
X138276247Y-67964285D01*
X138276247Y-67964285D02*
X138181009Y-68011904D01*
X138181009Y-68011904D02*
X138133390Y-68059523D01*
X138133390Y-68059523D02*
X138085771Y-68154761D01*
X138085771Y-68154761D02*
X138085771Y-68345237D01*
X138085771Y-68345237D02*
X138133390Y-68440475D01*
X138133390Y-68440475D02*
X138181009Y-68488094D01*
X138181009Y-68488094D02*
X138276247Y-68535713D01*
X111357142Y-120384819D02*
X111023809Y-119908628D01*
X110785714Y-120384819D02*
X110785714Y-119384819D01*
X110785714Y-119384819D02*
X111166666Y-119384819D01*
X111166666Y-119384819D02*
X111261904Y-119432438D01*
X111261904Y-119432438D02*
X111309523Y-119480057D01*
X111309523Y-119480057D02*
X111357142Y-119575295D01*
X111357142Y-119575295D02*
X111357142Y-119718152D01*
X111357142Y-119718152D02*
X111309523Y-119813390D01*
X111309523Y-119813390D02*
X111261904Y-119861009D01*
X111261904Y-119861009D02*
X111166666Y-119908628D01*
X111166666Y-119908628D02*
X110785714Y-119908628D01*
X112309523Y-120384819D02*
X111738095Y-120384819D01*
X112023809Y-120384819D02*
X112023809Y-119384819D01*
X112023809Y-119384819D02*
X111928571Y-119527676D01*
X111928571Y-119527676D02*
X111833333Y-119622914D01*
X111833333Y-119622914D02*
X111738095Y-119670533D01*
X112928571Y-119384819D02*
X113023809Y-119384819D01*
X113023809Y-119384819D02*
X113119047Y-119432438D01*
X113119047Y-119432438D02*
X113166666Y-119480057D01*
X113166666Y-119480057D02*
X113214285Y-119575295D01*
X113214285Y-119575295D02*
X113261904Y-119765771D01*
X113261904Y-119765771D02*
X113261904Y-120003866D01*
X113261904Y-120003866D02*
X113214285Y-120194342D01*
X113214285Y-120194342D02*
X113166666Y-120289580D01*
X113166666Y-120289580D02*
X113119047Y-120337200D01*
X113119047Y-120337200D02*
X113023809Y-120384819D01*
X113023809Y-120384819D02*
X112928571Y-120384819D01*
X112928571Y-120384819D02*
X112833333Y-120337200D01*
X112833333Y-120337200D02*
X112785714Y-120289580D01*
X112785714Y-120289580D02*
X112738095Y-120194342D01*
X112738095Y-120194342D02*
X112690476Y-120003866D01*
X112690476Y-120003866D02*
X112690476Y-119765771D01*
X112690476Y-119765771D02*
X112738095Y-119575295D01*
X112738095Y-119575295D02*
X112785714Y-119480057D01*
X112785714Y-119480057D02*
X112833333Y-119432438D01*
X112833333Y-119432438D02*
X112928571Y-119384819D01*
X136704819Y-55142857D02*
X136228628Y-55476190D01*
X136704819Y-55714285D02*
X135704819Y-55714285D01*
X135704819Y-55714285D02*
X135704819Y-55333333D01*
X135704819Y-55333333D02*
X135752438Y-55238095D01*
X135752438Y-55238095D02*
X135800057Y-55190476D01*
X135800057Y-55190476D02*
X135895295Y-55142857D01*
X135895295Y-55142857D02*
X136038152Y-55142857D01*
X136038152Y-55142857D02*
X136133390Y-55190476D01*
X136133390Y-55190476D02*
X136181009Y-55238095D01*
X136181009Y-55238095D02*
X136228628Y-55333333D01*
X136228628Y-55333333D02*
X136228628Y-55714285D01*
X136704819Y-54190476D02*
X136704819Y-54761904D01*
X136704819Y-54476190D02*
X135704819Y-54476190D01*
X135704819Y-54476190D02*
X135847676Y-54571428D01*
X135847676Y-54571428D02*
X135942914Y-54666666D01*
X135942914Y-54666666D02*
X135990533Y-54761904D01*
X136133390Y-53619047D02*
X136085771Y-53714285D01*
X136085771Y-53714285D02*
X136038152Y-53761904D01*
X136038152Y-53761904D02*
X135942914Y-53809523D01*
X135942914Y-53809523D02*
X135895295Y-53809523D01*
X135895295Y-53809523D02*
X135800057Y-53761904D01*
X135800057Y-53761904D02*
X135752438Y-53714285D01*
X135752438Y-53714285D02*
X135704819Y-53619047D01*
X135704819Y-53619047D02*
X135704819Y-53428571D01*
X135704819Y-53428571D02*
X135752438Y-53333333D01*
X135752438Y-53333333D02*
X135800057Y-53285714D01*
X135800057Y-53285714D02*
X135895295Y-53238095D01*
X135895295Y-53238095D02*
X135942914Y-53238095D01*
X135942914Y-53238095D02*
X136038152Y-53285714D01*
X136038152Y-53285714D02*
X136085771Y-53333333D01*
X136085771Y-53333333D02*
X136133390Y-53428571D01*
X136133390Y-53428571D02*
X136133390Y-53619047D01*
X136133390Y-53619047D02*
X136181009Y-53714285D01*
X136181009Y-53714285D02*
X136228628Y-53761904D01*
X136228628Y-53761904D02*
X136323866Y-53809523D01*
X136323866Y-53809523D02*
X136514342Y-53809523D01*
X136514342Y-53809523D02*
X136609580Y-53761904D01*
X136609580Y-53761904D02*
X136657200Y-53714285D01*
X136657200Y-53714285D02*
X136704819Y-53619047D01*
X136704819Y-53619047D02*
X136704819Y-53428571D01*
X136704819Y-53428571D02*
X136657200Y-53333333D01*
X136657200Y-53333333D02*
X136609580Y-53285714D01*
X136609580Y-53285714D02*
X136514342Y-53238095D01*
X136514342Y-53238095D02*
X136323866Y-53238095D01*
X136323866Y-53238095D02*
X136228628Y-53285714D01*
X136228628Y-53285714D02*
X136181009Y-53333333D01*
X136181009Y-53333333D02*
X136133390Y-53428571D01*
X148774819Y-52392857D02*
X148298628Y-52726190D01*
X148774819Y-52964285D02*
X147774819Y-52964285D01*
X147774819Y-52964285D02*
X147774819Y-52583333D01*
X147774819Y-52583333D02*
X147822438Y-52488095D01*
X147822438Y-52488095D02*
X147870057Y-52440476D01*
X147870057Y-52440476D02*
X147965295Y-52392857D01*
X147965295Y-52392857D02*
X148108152Y-52392857D01*
X148108152Y-52392857D02*
X148203390Y-52440476D01*
X148203390Y-52440476D02*
X148251009Y-52488095D01*
X148251009Y-52488095D02*
X148298628Y-52583333D01*
X148298628Y-52583333D02*
X148298628Y-52964285D01*
X148774819Y-51440476D02*
X148774819Y-52011904D01*
X148774819Y-51726190D02*
X147774819Y-51726190D01*
X147774819Y-51726190D02*
X147917676Y-51821428D01*
X147917676Y-51821428D02*
X148012914Y-51916666D01*
X148012914Y-51916666D02*
X148060533Y-52011904D01*
X147774819Y-51107142D02*
X147774819Y-50488095D01*
X147774819Y-50488095D02*
X148155771Y-50821428D01*
X148155771Y-50821428D02*
X148155771Y-50678571D01*
X148155771Y-50678571D02*
X148203390Y-50583333D01*
X148203390Y-50583333D02*
X148251009Y-50535714D01*
X148251009Y-50535714D02*
X148346247Y-50488095D01*
X148346247Y-50488095D02*
X148584342Y-50488095D01*
X148584342Y-50488095D02*
X148679580Y-50535714D01*
X148679580Y-50535714D02*
X148727200Y-50583333D01*
X148727200Y-50583333D02*
X148774819Y-50678571D01*
X148774819Y-50678571D02*
X148774819Y-50964285D01*
X148774819Y-50964285D02*
X148727200Y-51059523D01*
X148727200Y-51059523D02*
X148679580Y-51107142D01*
X120604819Y-48464285D02*
X119604819Y-48464285D01*
X119604819Y-48464285D02*
X119604819Y-48226190D01*
X119604819Y-48226190D02*
X119652438Y-48083333D01*
X119652438Y-48083333D02*
X119747676Y-47988095D01*
X119747676Y-47988095D02*
X119842914Y-47940476D01*
X119842914Y-47940476D02*
X120033390Y-47892857D01*
X120033390Y-47892857D02*
X120176247Y-47892857D01*
X120176247Y-47892857D02*
X120366723Y-47940476D01*
X120366723Y-47940476D02*
X120461961Y-47988095D01*
X120461961Y-47988095D02*
X120557200Y-48083333D01*
X120557200Y-48083333D02*
X120604819Y-48226190D01*
X120604819Y-48226190D02*
X120604819Y-48464285D01*
X120604819Y-46940476D02*
X120604819Y-47511904D01*
X120604819Y-47226190D02*
X119604819Y-47226190D01*
X119604819Y-47226190D02*
X119747676Y-47321428D01*
X119747676Y-47321428D02*
X119842914Y-47416666D01*
X119842914Y-47416666D02*
X119890533Y-47511904D01*
X119604819Y-46321428D02*
X119604819Y-46226190D01*
X119604819Y-46226190D02*
X119652438Y-46130952D01*
X119652438Y-46130952D02*
X119700057Y-46083333D01*
X119700057Y-46083333D02*
X119795295Y-46035714D01*
X119795295Y-46035714D02*
X119985771Y-45988095D01*
X119985771Y-45988095D02*
X120223866Y-45988095D01*
X120223866Y-45988095D02*
X120414342Y-46035714D01*
X120414342Y-46035714D02*
X120509580Y-46083333D01*
X120509580Y-46083333D02*
X120557200Y-46130952D01*
X120557200Y-46130952D02*
X120604819Y-46226190D01*
X120604819Y-46226190D02*
X120604819Y-46321428D01*
X120604819Y-46321428D02*
X120557200Y-46416666D01*
X120557200Y-46416666D02*
X120509580Y-46464285D01*
X120509580Y-46464285D02*
X120414342Y-46511904D01*
X120414342Y-46511904D02*
X120223866Y-46559523D01*
X120223866Y-46559523D02*
X119985771Y-46559523D01*
X119985771Y-46559523D02*
X119795295Y-46511904D01*
X119795295Y-46511904D02*
X119700057Y-46464285D01*
X119700057Y-46464285D02*
X119652438Y-46416666D01*
X119652438Y-46416666D02*
X119604819Y-46321428D01*
X123854819Y-44142857D02*
X123378628Y-44476190D01*
X123854819Y-44714285D02*
X122854819Y-44714285D01*
X122854819Y-44714285D02*
X122854819Y-44333333D01*
X122854819Y-44333333D02*
X122902438Y-44238095D01*
X122902438Y-44238095D02*
X122950057Y-44190476D01*
X122950057Y-44190476D02*
X123045295Y-44142857D01*
X123045295Y-44142857D02*
X123188152Y-44142857D01*
X123188152Y-44142857D02*
X123283390Y-44190476D01*
X123283390Y-44190476D02*
X123331009Y-44238095D01*
X123331009Y-44238095D02*
X123378628Y-44333333D01*
X123378628Y-44333333D02*
X123378628Y-44714285D01*
X122950057Y-43761904D02*
X122902438Y-43714285D01*
X122902438Y-43714285D02*
X122854819Y-43619047D01*
X122854819Y-43619047D02*
X122854819Y-43380952D01*
X122854819Y-43380952D02*
X122902438Y-43285714D01*
X122902438Y-43285714D02*
X122950057Y-43238095D01*
X122950057Y-43238095D02*
X123045295Y-43190476D01*
X123045295Y-43190476D02*
X123140533Y-43190476D01*
X123140533Y-43190476D02*
X123283390Y-43238095D01*
X123283390Y-43238095D02*
X123854819Y-43809523D01*
X123854819Y-43809523D02*
X123854819Y-43190476D01*
X122854819Y-42857142D02*
X122854819Y-42238095D01*
X122854819Y-42238095D02*
X123235771Y-42571428D01*
X123235771Y-42571428D02*
X123235771Y-42428571D01*
X123235771Y-42428571D02*
X123283390Y-42333333D01*
X123283390Y-42333333D02*
X123331009Y-42285714D01*
X123331009Y-42285714D02*
X123426247Y-42238095D01*
X123426247Y-42238095D02*
X123664342Y-42238095D01*
X123664342Y-42238095D02*
X123759580Y-42285714D01*
X123759580Y-42285714D02*
X123807200Y-42333333D01*
X123807200Y-42333333D02*
X123854819Y-42428571D01*
X123854819Y-42428571D02*
X123854819Y-42714285D01*
X123854819Y-42714285D02*
X123807200Y-42809523D01*
X123807200Y-42809523D02*
X123759580Y-42857142D01*
X123854819Y-47988094D02*
X122854819Y-47988094D01*
X122854819Y-47988094D02*
X122854819Y-47749999D01*
X122854819Y-47749999D02*
X122902438Y-47607142D01*
X122902438Y-47607142D02*
X122997676Y-47511904D01*
X122997676Y-47511904D02*
X123092914Y-47464285D01*
X123092914Y-47464285D02*
X123283390Y-47416666D01*
X123283390Y-47416666D02*
X123426247Y-47416666D01*
X123426247Y-47416666D02*
X123616723Y-47464285D01*
X123616723Y-47464285D02*
X123711961Y-47511904D01*
X123711961Y-47511904D02*
X123807200Y-47607142D01*
X123807200Y-47607142D02*
X123854819Y-47749999D01*
X123854819Y-47749999D02*
X123854819Y-47988094D01*
X123854819Y-46940475D02*
X123854819Y-46749999D01*
X123854819Y-46749999D02*
X123807200Y-46654761D01*
X123807200Y-46654761D02*
X123759580Y-46607142D01*
X123759580Y-46607142D02*
X123616723Y-46511904D01*
X123616723Y-46511904D02*
X123426247Y-46464285D01*
X123426247Y-46464285D02*
X123045295Y-46464285D01*
X123045295Y-46464285D02*
X122950057Y-46511904D01*
X122950057Y-46511904D02*
X122902438Y-46559523D01*
X122902438Y-46559523D02*
X122854819Y-46654761D01*
X122854819Y-46654761D02*
X122854819Y-46845237D01*
X122854819Y-46845237D02*
X122902438Y-46940475D01*
X122902438Y-46940475D02*
X122950057Y-46988094D01*
X122950057Y-46988094D02*
X123045295Y-47035713D01*
X123045295Y-47035713D02*
X123283390Y-47035713D01*
X123283390Y-47035713D02*
X123378628Y-46988094D01*
X123378628Y-46988094D02*
X123426247Y-46940475D01*
X123426247Y-46940475D02*
X123473866Y-46845237D01*
X123473866Y-46845237D02*
X123473866Y-46654761D01*
X123473866Y-46654761D02*
X123426247Y-46559523D01*
X123426247Y-46559523D02*
X123378628Y-46511904D01*
X123378628Y-46511904D02*
X123283390Y-46464285D01*
X109833333Y-76559580D02*
X109785714Y-76607200D01*
X109785714Y-76607200D02*
X109642857Y-76654819D01*
X109642857Y-76654819D02*
X109547619Y-76654819D01*
X109547619Y-76654819D02*
X109404762Y-76607200D01*
X109404762Y-76607200D02*
X109309524Y-76511961D01*
X109309524Y-76511961D02*
X109261905Y-76416723D01*
X109261905Y-76416723D02*
X109214286Y-76226247D01*
X109214286Y-76226247D02*
X109214286Y-76083390D01*
X109214286Y-76083390D02*
X109261905Y-75892914D01*
X109261905Y-75892914D02*
X109309524Y-75797676D01*
X109309524Y-75797676D02*
X109404762Y-75702438D01*
X109404762Y-75702438D02*
X109547619Y-75654819D01*
X109547619Y-75654819D02*
X109642857Y-75654819D01*
X109642857Y-75654819D02*
X109785714Y-75702438D01*
X109785714Y-75702438D02*
X109833333Y-75750057D01*
X110404762Y-76083390D02*
X110309524Y-76035771D01*
X110309524Y-76035771D02*
X110261905Y-75988152D01*
X110261905Y-75988152D02*
X110214286Y-75892914D01*
X110214286Y-75892914D02*
X110214286Y-75845295D01*
X110214286Y-75845295D02*
X110261905Y-75750057D01*
X110261905Y-75750057D02*
X110309524Y-75702438D01*
X110309524Y-75702438D02*
X110404762Y-75654819D01*
X110404762Y-75654819D02*
X110595238Y-75654819D01*
X110595238Y-75654819D02*
X110690476Y-75702438D01*
X110690476Y-75702438D02*
X110738095Y-75750057D01*
X110738095Y-75750057D02*
X110785714Y-75845295D01*
X110785714Y-75845295D02*
X110785714Y-75892914D01*
X110785714Y-75892914D02*
X110738095Y-75988152D01*
X110738095Y-75988152D02*
X110690476Y-76035771D01*
X110690476Y-76035771D02*
X110595238Y-76083390D01*
X110595238Y-76083390D02*
X110404762Y-76083390D01*
X110404762Y-76083390D02*
X110309524Y-76131009D01*
X110309524Y-76131009D02*
X110261905Y-76178628D01*
X110261905Y-76178628D02*
X110214286Y-76273866D01*
X110214286Y-76273866D02*
X110214286Y-76464342D01*
X110214286Y-76464342D02*
X110261905Y-76559580D01*
X110261905Y-76559580D02*
X110309524Y-76607200D01*
X110309524Y-76607200D02*
X110404762Y-76654819D01*
X110404762Y-76654819D02*
X110595238Y-76654819D01*
X110595238Y-76654819D02*
X110690476Y-76607200D01*
X110690476Y-76607200D02*
X110738095Y-76559580D01*
X110738095Y-76559580D02*
X110785714Y-76464342D01*
X110785714Y-76464342D02*
X110785714Y-76273866D01*
X110785714Y-76273866D02*
X110738095Y-76178628D01*
X110738095Y-76178628D02*
X110690476Y-76131009D01*
X110690476Y-76131009D02*
X110595238Y-76083390D01*
X104359580Y-117916666D02*
X104407200Y-117964285D01*
X104407200Y-117964285D02*
X104454819Y-118107142D01*
X104454819Y-118107142D02*
X104454819Y-118202380D01*
X104454819Y-118202380D02*
X104407200Y-118345237D01*
X104407200Y-118345237D02*
X104311961Y-118440475D01*
X104311961Y-118440475D02*
X104216723Y-118488094D01*
X104216723Y-118488094D02*
X104026247Y-118535713D01*
X104026247Y-118535713D02*
X103883390Y-118535713D01*
X103883390Y-118535713D02*
X103692914Y-118488094D01*
X103692914Y-118488094D02*
X103597676Y-118440475D01*
X103597676Y-118440475D02*
X103502438Y-118345237D01*
X103502438Y-118345237D02*
X103454819Y-118202380D01*
X103454819Y-118202380D02*
X103454819Y-118107142D01*
X103454819Y-118107142D02*
X103502438Y-117964285D01*
X103502438Y-117964285D02*
X103550057Y-117916666D01*
X103454819Y-117011904D02*
X103454819Y-117488094D01*
X103454819Y-117488094D02*
X103931009Y-117535713D01*
X103931009Y-117535713D02*
X103883390Y-117488094D01*
X103883390Y-117488094D02*
X103835771Y-117392856D01*
X103835771Y-117392856D02*
X103835771Y-117154761D01*
X103835771Y-117154761D02*
X103883390Y-117059523D01*
X103883390Y-117059523D02*
X103931009Y-117011904D01*
X103931009Y-117011904D02*
X104026247Y-116964285D01*
X104026247Y-116964285D02*
X104264342Y-116964285D01*
X104264342Y-116964285D02*
X104359580Y-117011904D01*
X104359580Y-117011904D02*
X104407200Y-117059523D01*
X104407200Y-117059523D02*
X104454819Y-117154761D01*
X104454819Y-117154761D02*
X104454819Y-117392856D01*
X104454819Y-117392856D02*
X104407200Y-117488094D01*
X104407200Y-117488094D02*
X104359580Y-117535713D01*
X136607142Y-62789580D02*
X136559523Y-62837200D01*
X136559523Y-62837200D02*
X136416666Y-62884819D01*
X136416666Y-62884819D02*
X136321428Y-62884819D01*
X136321428Y-62884819D02*
X136178571Y-62837200D01*
X136178571Y-62837200D02*
X136083333Y-62741961D01*
X136083333Y-62741961D02*
X136035714Y-62646723D01*
X136035714Y-62646723D02*
X135988095Y-62456247D01*
X135988095Y-62456247D02*
X135988095Y-62313390D01*
X135988095Y-62313390D02*
X136035714Y-62122914D01*
X136035714Y-62122914D02*
X136083333Y-62027676D01*
X136083333Y-62027676D02*
X136178571Y-61932438D01*
X136178571Y-61932438D02*
X136321428Y-61884819D01*
X136321428Y-61884819D02*
X136416666Y-61884819D01*
X136416666Y-61884819D02*
X136559523Y-61932438D01*
X136559523Y-61932438D02*
X136607142Y-61980057D01*
X137559523Y-62884819D02*
X136988095Y-62884819D01*
X137273809Y-62884819D02*
X137273809Y-61884819D01*
X137273809Y-61884819D02*
X137178571Y-62027676D01*
X137178571Y-62027676D02*
X137083333Y-62122914D01*
X137083333Y-62122914D02*
X136988095Y-62170533D01*
X138416666Y-61884819D02*
X138226190Y-61884819D01*
X138226190Y-61884819D02*
X138130952Y-61932438D01*
X138130952Y-61932438D02*
X138083333Y-61980057D01*
X138083333Y-61980057D02*
X137988095Y-62122914D01*
X137988095Y-62122914D02*
X137940476Y-62313390D01*
X137940476Y-62313390D02*
X137940476Y-62694342D01*
X137940476Y-62694342D02*
X137988095Y-62789580D01*
X137988095Y-62789580D02*
X138035714Y-62837200D01*
X138035714Y-62837200D02*
X138130952Y-62884819D01*
X138130952Y-62884819D02*
X138321428Y-62884819D01*
X138321428Y-62884819D02*
X138416666Y-62837200D01*
X138416666Y-62837200D02*
X138464285Y-62789580D01*
X138464285Y-62789580D02*
X138511904Y-62694342D01*
X138511904Y-62694342D02*
X138511904Y-62456247D01*
X138511904Y-62456247D02*
X138464285Y-62361009D01*
X138464285Y-62361009D02*
X138416666Y-62313390D01*
X138416666Y-62313390D02*
X138321428Y-62265771D01*
X138321428Y-62265771D02*
X138130952Y-62265771D01*
X138130952Y-62265771D02*
X138035714Y-62313390D01*
X138035714Y-62313390D02*
X137988095Y-62361009D01*
X137988095Y-62361009D02*
X137940476Y-62456247D01*
X148050057Y-58095238D02*
X148002438Y-58190476D01*
X148002438Y-58190476D02*
X147907200Y-58285714D01*
X147907200Y-58285714D02*
X147764342Y-58428571D01*
X147764342Y-58428571D02*
X147716723Y-58523809D01*
X147716723Y-58523809D02*
X147716723Y-58619047D01*
X147954819Y-58571428D02*
X147907200Y-58666666D01*
X147907200Y-58666666D02*
X147811961Y-58761904D01*
X147811961Y-58761904D02*
X147621485Y-58809523D01*
X147621485Y-58809523D02*
X147288152Y-58809523D01*
X147288152Y-58809523D02*
X147097676Y-58761904D01*
X147097676Y-58761904D02*
X147002438Y-58666666D01*
X147002438Y-58666666D02*
X146954819Y-58571428D01*
X146954819Y-58571428D02*
X146954819Y-58380952D01*
X146954819Y-58380952D02*
X147002438Y-58285714D01*
X147002438Y-58285714D02*
X147097676Y-58190476D01*
X147097676Y-58190476D02*
X147288152Y-58142857D01*
X147288152Y-58142857D02*
X147621485Y-58142857D01*
X147621485Y-58142857D02*
X147811961Y-58190476D01*
X147811961Y-58190476D02*
X147907200Y-58285714D01*
X147907200Y-58285714D02*
X147954819Y-58380952D01*
X147954819Y-58380952D02*
X147954819Y-58571428D01*
X146954819Y-57238095D02*
X146954819Y-57714285D01*
X146954819Y-57714285D02*
X147431009Y-57761904D01*
X147431009Y-57761904D02*
X147383390Y-57714285D01*
X147383390Y-57714285D02*
X147335771Y-57619047D01*
X147335771Y-57619047D02*
X147335771Y-57380952D01*
X147335771Y-57380952D02*
X147383390Y-57285714D01*
X147383390Y-57285714D02*
X147431009Y-57238095D01*
X147431009Y-57238095D02*
X147526247Y-57190476D01*
X147526247Y-57190476D02*
X147764342Y-57190476D01*
X147764342Y-57190476D02*
X147859580Y-57238095D01*
X147859580Y-57238095D02*
X147907200Y-57285714D01*
X147907200Y-57285714D02*
X147954819Y-57380952D01*
X147954819Y-57380952D02*
X147954819Y-57619047D01*
X147954819Y-57619047D02*
X147907200Y-57714285D01*
X147907200Y-57714285D02*
X147859580Y-57761904D01*
X122083333Y-86429580D02*
X122035714Y-86477200D01*
X122035714Y-86477200D02*
X121892857Y-86524819D01*
X121892857Y-86524819D02*
X121797619Y-86524819D01*
X121797619Y-86524819D02*
X121654762Y-86477200D01*
X121654762Y-86477200D02*
X121559524Y-86381961D01*
X121559524Y-86381961D02*
X121511905Y-86286723D01*
X121511905Y-86286723D02*
X121464286Y-86096247D01*
X121464286Y-86096247D02*
X121464286Y-85953390D01*
X121464286Y-85953390D02*
X121511905Y-85762914D01*
X121511905Y-85762914D02*
X121559524Y-85667676D01*
X121559524Y-85667676D02*
X121654762Y-85572438D01*
X121654762Y-85572438D02*
X121797619Y-85524819D01*
X121797619Y-85524819D02*
X121892857Y-85524819D01*
X121892857Y-85524819D02*
X122035714Y-85572438D01*
X122035714Y-85572438D02*
X122083333Y-85620057D01*
X122464286Y-85620057D02*
X122511905Y-85572438D01*
X122511905Y-85572438D02*
X122607143Y-85524819D01*
X122607143Y-85524819D02*
X122845238Y-85524819D01*
X122845238Y-85524819D02*
X122940476Y-85572438D01*
X122940476Y-85572438D02*
X122988095Y-85620057D01*
X122988095Y-85620057D02*
X123035714Y-85715295D01*
X123035714Y-85715295D02*
X123035714Y-85810533D01*
X123035714Y-85810533D02*
X122988095Y-85953390D01*
X122988095Y-85953390D02*
X122416667Y-86524819D01*
X122416667Y-86524819D02*
X123035714Y-86524819D01*
X148107142Y-56854819D02*
X147773809Y-56378628D01*
X147535714Y-56854819D02*
X147535714Y-55854819D01*
X147535714Y-55854819D02*
X147916666Y-55854819D01*
X147916666Y-55854819D02*
X148011904Y-55902438D01*
X148011904Y-55902438D02*
X148059523Y-55950057D01*
X148059523Y-55950057D02*
X148107142Y-56045295D01*
X148107142Y-56045295D02*
X148107142Y-56188152D01*
X148107142Y-56188152D02*
X148059523Y-56283390D01*
X148059523Y-56283390D02*
X148011904Y-56331009D01*
X148011904Y-56331009D02*
X147916666Y-56378628D01*
X147916666Y-56378628D02*
X147535714Y-56378628D01*
X149059523Y-56854819D02*
X148488095Y-56854819D01*
X148773809Y-56854819D02*
X148773809Y-55854819D01*
X148773809Y-55854819D02*
X148678571Y-55997676D01*
X148678571Y-55997676D02*
X148583333Y-56092914D01*
X148583333Y-56092914D02*
X148488095Y-56140533D01*
X149916666Y-56188152D02*
X149916666Y-56854819D01*
X149678571Y-55807200D02*
X149440476Y-56521485D01*
X149440476Y-56521485D02*
X150059523Y-56521485D01*
X120604819Y-44142857D02*
X120128628Y-44476190D01*
X120604819Y-44714285D02*
X119604819Y-44714285D01*
X119604819Y-44714285D02*
X119604819Y-44333333D01*
X119604819Y-44333333D02*
X119652438Y-44238095D01*
X119652438Y-44238095D02*
X119700057Y-44190476D01*
X119700057Y-44190476D02*
X119795295Y-44142857D01*
X119795295Y-44142857D02*
X119938152Y-44142857D01*
X119938152Y-44142857D02*
X120033390Y-44190476D01*
X120033390Y-44190476D02*
X120081009Y-44238095D01*
X120081009Y-44238095D02*
X120128628Y-44333333D01*
X120128628Y-44333333D02*
X120128628Y-44714285D01*
X119700057Y-43761904D02*
X119652438Y-43714285D01*
X119652438Y-43714285D02*
X119604819Y-43619047D01*
X119604819Y-43619047D02*
X119604819Y-43380952D01*
X119604819Y-43380952D02*
X119652438Y-43285714D01*
X119652438Y-43285714D02*
X119700057Y-43238095D01*
X119700057Y-43238095D02*
X119795295Y-43190476D01*
X119795295Y-43190476D02*
X119890533Y-43190476D01*
X119890533Y-43190476D02*
X120033390Y-43238095D01*
X120033390Y-43238095D02*
X120604819Y-43809523D01*
X120604819Y-43809523D02*
X120604819Y-43190476D01*
X119938152Y-42333333D02*
X120604819Y-42333333D01*
X119557200Y-42571428D02*
X120271485Y-42809523D01*
X120271485Y-42809523D02*
X120271485Y-42190476D01*
X117204819Y-114916666D02*
X116728628Y-115249999D01*
X117204819Y-115488094D02*
X116204819Y-115488094D01*
X116204819Y-115488094D02*
X116204819Y-115107142D01*
X116204819Y-115107142D02*
X116252438Y-115011904D01*
X116252438Y-115011904D02*
X116300057Y-114964285D01*
X116300057Y-114964285D02*
X116395295Y-114916666D01*
X116395295Y-114916666D02*
X116538152Y-114916666D01*
X116538152Y-114916666D02*
X116633390Y-114964285D01*
X116633390Y-114964285D02*
X116681009Y-115011904D01*
X116681009Y-115011904D02*
X116728628Y-115107142D01*
X116728628Y-115107142D02*
X116728628Y-115488094D01*
X117204819Y-114440475D02*
X117204819Y-114249999D01*
X117204819Y-114249999D02*
X117157200Y-114154761D01*
X117157200Y-114154761D02*
X117109580Y-114107142D01*
X117109580Y-114107142D02*
X116966723Y-114011904D01*
X116966723Y-114011904D02*
X116776247Y-113964285D01*
X116776247Y-113964285D02*
X116395295Y-113964285D01*
X116395295Y-113964285D02*
X116300057Y-114011904D01*
X116300057Y-114011904D02*
X116252438Y-114059523D01*
X116252438Y-114059523D02*
X116204819Y-114154761D01*
X116204819Y-114154761D02*
X116204819Y-114345237D01*
X116204819Y-114345237D02*
X116252438Y-114440475D01*
X116252438Y-114440475D02*
X116300057Y-114488094D01*
X116300057Y-114488094D02*
X116395295Y-114535713D01*
X116395295Y-114535713D02*
X116633390Y-114535713D01*
X116633390Y-114535713D02*
X116728628Y-114488094D01*
X116728628Y-114488094D02*
X116776247Y-114440475D01*
X116776247Y-114440475D02*
X116823866Y-114345237D01*
X116823866Y-114345237D02*
X116823866Y-114154761D01*
X116823866Y-114154761D02*
X116776247Y-114059523D01*
X116776247Y-114059523D02*
X116728628Y-114011904D01*
X116728628Y-114011904D02*
X116633390Y-113964285D01*
X113204819Y-112416666D02*
X112728628Y-112749999D01*
X113204819Y-112988094D02*
X112204819Y-112988094D01*
X112204819Y-112988094D02*
X112204819Y-112607142D01*
X112204819Y-112607142D02*
X112252438Y-112511904D01*
X112252438Y-112511904D02*
X112300057Y-112464285D01*
X112300057Y-112464285D02*
X112395295Y-112416666D01*
X112395295Y-112416666D02*
X112538152Y-112416666D01*
X112538152Y-112416666D02*
X112633390Y-112464285D01*
X112633390Y-112464285D02*
X112681009Y-112511904D01*
X112681009Y-112511904D02*
X112728628Y-112607142D01*
X112728628Y-112607142D02*
X112728628Y-112988094D01*
X112633390Y-111845237D02*
X112585771Y-111940475D01*
X112585771Y-111940475D02*
X112538152Y-111988094D01*
X112538152Y-111988094D02*
X112442914Y-112035713D01*
X112442914Y-112035713D02*
X112395295Y-112035713D01*
X112395295Y-112035713D02*
X112300057Y-111988094D01*
X112300057Y-111988094D02*
X112252438Y-111940475D01*
X112252438Y-111940475D02*
X112204819Y-111845237D01*
X112204819Y-111845237D02*
X112204819Y-111654761D01*
X112204819Y-111654761D02*
X112252438Y-111559523D01*
X112252438Y-111559523D02*
X112300057Y-111511904D01*
X112300057Y-111511904D02*
X112395295Y-111464285D01*
X112395295Y-111464285D02*
X112442914Y-111464285D01*
X112442914Y-111464285D02*
X112538152Y-111511904D01*
X112538152Y-111511904D02*
X112585771Y-111559523D01*
X112585771Y-111559523D02*
X112633390Y-111654761D01*
X112633390Y-111654761D02*
X112633390Y-111845237D01*
X112633390Y-111845237D02*
X112681009Y-111940475D01*
X112681009Y-111940475D02*
X112728628Y-111988094D01*
X112728628Y-111988094D02*
X112823866Y-112035713D01*
X112823866Y-112035713D02*
X113014342Y-112035713D01*
X113014342Y-112035713D02*
X113109580Y-111988094D01*
X113109580Y-111988094D02*
X113157200Y-111940475D01*
X113157200Y-111940475D02*
X113204819Y-111845237D01*
X113204819Y-111845237D02*
X113204819Y-111654761D01*
X113204819Y-111654761D02*
X113157200Y-111559523D01*
X113157200Y-111559523D02*
X113109580Y-111511904D01*
X113109580Y-111511904D02*
X113014342Y-111464285D01*
X113014342Y-111464285D02*
X112823866Y-111464285D01*
X112823866Y-111464285D02*
X112728628Y-111511904D01*
X112728628Y-111511904D02*
X112681009Y-111559523D01*
X112681009Y-111559523D02*
X112633390Y-111654761D01*
X111854819Y-48464285D02*
X110854819Y-48464285D01*
X110854819Y-48464285D02*
X110854819Y-48226190D01*
X110854819Y-48226190D02*
X110902438Y-48083333D01*
X110902438Y-48083333D02*
X110997676Y-47988095D01*
X110997676Y-47988095D02*
X111092914Y-47940476D01*
X111092914Y-47940476D02*
X111283390Y-47892857D01*
X111283390Y-47892857D02*
X111426247Y-47892857D01*
X111426247Y-47892857D02*
X111616723Y-47940476D01*
X111616723Y-47940476D02*
X111711961Y-47988095D01*
X111711961Y-47988095D02*
X111807200Y-48083333D01*
X111807200Y-48083333D02*
X111854819Y-48226190D01*
X111854819Y-48226190D02*
X111854819Y-48464285D01*
X111854819Y-46940476D02*
X111854819Y-47511904D01*
X111854819Y-47226190D02*
X110854819Y-47226190D01*
X110854819Y-47226190D02*
X110997676Y-47321428D01*
X110997676Y-47321428D02*
X111092914Y-47416666D01*
X111092914Y-47416666D02*
X111140533Y-47511904D01*
X110950057Y-46559523D02*
X110902438Y-46511904D01*
X110902438Y-46511904D02*
X110854819Y-46416666D01*
X110854819Y-46416666D02*
X110854819Y-46178571D01*
X110854819Y-46178571D02*
X110902438Y-46083333D01*
X110902438Y-46083333D02*
X110950057Y-46035714D01*
X110950057Y-46035714D02*
X111045295Y-45988095D01*
X111045295Y-45988095D02*
X111140533Y-45988095D01*
X111140533Y-45988095D02*
X111283390Y-46035714D01*
X111283390Y-46035714D02*
X111854819Y-46607142D01*
X111854819Y-46607142D02*
X111854819Y-45988095D01*
X106384819Y-110666666D02*
X105908628Y-110999999D01*
X106384819Y-111238094D02*
X105384819Y-111238094D01*
X105384819Y-111238094D02*
X105384819Y-110857142D01*
X105384819Y-110857142D02*
X105432438Y-110761904D01*
X105432438Y-110761904D02*
X105480057Y-110714285D01*
X105480057Y-110714285D02*
X105575295Y-110666666D01*
X105575295Y-110666666D02*
X105718152Y-110666666D01*
X105718152Y-110666666D02*
X105813390Y-110714285D01*
X105813390Y-110714285D02*
X105861009Y-110761904D01*
X105861009Y-110761904D02*
X105908628Y-110857142D01*
X105908628Y-110857142D02*
X105908628Y-111238094D01*
X105384819Y-109761904D02*
X105384819Y-110238094D01*
X105384819Y-110238094D02*
X105861009Y-110285713D01*
X105861009Y-110285713D02*
X105813390Y-110238094D01*
X105813390Y-110238094D02*
X105765771Y-110142856D01*
X105765771Y-110142856D02*
X105765771Y-109904761D01*
X105765771Y-109904761D02*
X105813390Y-109809523D01*
X105813390Y-109809523D02*
X105861009Y-109761904D01*
X105861009Y-109761904D02*
X105956247Y-109714285D01*
X105956247Y-109714285D02*
X106194342Y-109714285D01*
X106194342Y-109714285D02*
X106289580Y-109761904D01*
X106289580Y-109761904D02*
X106337200Y-109809523D01*
X106337200Y-109809523D02*
X106384819Y-109904761D01*
X106384819Y-109904761D02*
X106384819Y-110142856D01*
X106384819Y-110142856D02*
X106337200Y-110238094D01*
X106337200Y-110238094D02*
X106289580Y-110285713D01*
X95916666Y-47704819D02*
X95916666Y-48419104D01*
X95916666Y-48419104D02*
X95869047Y-48561961D01*
X95869047Y-48561961D02*
X95773809Y-48657200D01*
X95773809Y-48657200D02*
X95630952Y-48704819D01*
X95630952Y-48704819D02*
X95535714Y-48704819D01*
X96297619Y-47704819D02*
X96916666Y-47704819D01*
X96916666Y-47704819D02*
X96583333Y-48085771D01*
X96583333Y-48085771D02*
X96726190Y-48085771D01*
X96726190Y-48085771D02*
X96821428Y-48133390D01*
X96821428Y-48133390D02*
X96869047Y-48181009D01*
X96869047Y-48181009D02*
X96916666Y-48276247D01*
X96916666Y-48276247D02*
X96916666Y-48514342D01*
X96916666Y-48514342D02*
X96869047Y-48609580D01*
X96869047Y-48609580D02*
X96821428Y-48657200D01*
X96821428Y-48657200D02*
X96726190Y-48704819D01*
X96726190Y-48704819D02*
X96440476Y-48704819D01*
X96440476Y-48704819D02*
X96345238Y-48657200D01*
X96345238Y-48657200D02*
X96297619Y-48609580D01*
X155400057Y-56345238D02*
X155352438Y-56440476D01*
X155352438Y-56440476D02*
X155257200Y-56535714D01*
X155257200Y-56535714D02*
X155114342Y-56678571D01*
X155114342Y-56678571D02*
X155066723Y-56773809D01*
X155066723Y-56773809D02*
X155066723Y-56869047D01*
X155304819Y-56821428D02*
X155257200Y-56916666D01*
X155257200Y-56916666D02*
X155161961Y-57011904D01*
X155161961Y-57011904D02*
X154971485Y-57059523D01*
X154971485Y-57059523D02*
X154638152Y-57059523D01*
X154638152Y-57059523D02*
X154447676Y-57011904D01*
X154447676Y-57011904D02*
X154352438Y-56916666D01*
X154352438Y-56916666D02*
X154304819Y-56821428D01*
X154304819Y-56821428D02*
X154304819Y-56630952D01*
X154304819Y-56630952D02*
X154352438Y-56535714D01*
X154352438Y-56535714D02*
X154447676Y-56440476D01*
X154447676Y-56440476D02*
X154638152Y-56392857D01*
X154638152Y-56392857D02*
X154971485Y-56392857D01*
X154971485Y-56392857D02*
X155161961Y-56440476D01*
X155161961Y-56440476D02*
X155257200Y-56535714D01*
X155257200Y-56535714D02*
X155304819Y-56630952D01*
X155304819Y-56630952D02*
X155304819Y-56821428D01*
X154304819Y-56059523D02*
X154304819Y-55440476D01*
X154304819Y-55440476D02*
X154685771Y-55773809D01*
X154685771Y-55773809D02*
X154685771Y-55630952D01*
X154685771Y-55630952D02*
X154733390Y-55535714D01*
X154733390Y-55535714D02*
X154781009Y-55488095D01*
X154781009Y-55488095D02*
X154876247Y-55440476D01*
X154876247Y-55440476D02*
X155114342Y-55440476D01*
X155114342Y-55440476D02*
X155209580Y-55488095D01*
X155209580Y-55488095D02*
X155257200Y-55535714D01*
X155257200Y-55535714D02*
X155304819Y-55630952D01*
X155304819Y-55630952D02*
X155304819Y-55916666D01*
X155304819Y-55916666D02*
X155257200Y-56011904D01*
X155257200Y-56011904D02*
X155209580Y-56059523D01*
X97429580Y-54392857D02*
X97477200Y-54440476D01*
X97477200Y-54440476D02*
X97524819Y-54583333D01*
X97524819Y-54583333D02*
X97524819Y-54678571D01*
X97524819Y-54678571D02*
X97477200Y-54821428D01*
X97477200Y-54821428D02*
X97381961Y-54916666D01*
X97381961Y-54916666D02*
X97286723Y-54964285D01*
X97286723Y-54964285D02*
X97096247Y-55011904D01*
X97096247Y-55011904D02*
X96953390Y-55011904D01*
X96953390Y-55011904D02*
X96762914Y-54964285D01*
X96762914Y-54964285D02*
X96667676Y-54916666D01*
X96667676Y-54916666D02*
X96572438Y-54821428D01*
X96572438Y-54821428D02*
X96524819Y-54678571D01*
X96524819Y-54678571D02*
X96524819Y-54583333D01*
X96524819Y-54583333D02*
X96572438Y-54440476D01*
X96572438Y-54440476D02*
X96620057Y-54392857D01*
X96620057Y-54011904D02*
X96572438Y-53964285D01*
X96572438Y-53964285D02*
X96524819Y-53869047D01*
X96524819Y-53869047D02*
X96524819Y-53630952D01*
X96524819Y-53630952D02*
X96572438Y-53535714D01*
X96572438Y-53535714D02*
X96620057Y-53488095D01*
X96620057Y-53488095D02*
X96715295Y-53440476D01*
X96715295Y-53440476D02*
X96810533Y-53440476D01*
X96810533Y-53440476D02*
X96953390Y-53488095D01*
X96953390Y-53488095D02*
X97524819Y-54059523D01*
X97524819Y-54059523D02*
X97524819Y-53440476D01*
X97524819Y-52488095D02*
X97524819Y-53059523D01*
X97524819Y-52773809D02*
X96524819Y-52773809D01*
X96524819Y-52773809D02*
X96667676Y-52869047D01*
X96667676Y-52869047D02*
X96762914Y-52964285D01*
X96762914Y-52964285D02*
X96810533Y-53059523D01*
X100833333Y-86359580D02*
X100785714Y-86407200D01*
X100785714Y-86407200D02*
X100642857Y-86454819D01*
X100642857Y-86454819D02*
X100547619Y-86454819D01*
X100547619Y-86454819D02*
X100404762Y-86407200D01*
X100404762Y-86407200D02*
X100309524Y-86311961D01*
X100309524Y-86311961D02*
X100261905Y-86216723D01*
X100261905Y-86216723D02*
X100214286Y-86026247D01*
X100214286Y-86026247D02*
X100214286Y-85883390D01*
X100214286Y-85883390D02*
X100261905Y-85692914D01*
X100261905Y-85692914D02*
X100309524Y-85597676D01*
X100309524Y-85597676D02*
X100404762Y-85502438D01*
X100404762Y-85502438D02*
X100547619Y-85454819D01*
X100547619Y-85454819D02*
X100642857Y-85454819D01*
X100642857Y-85454819D02*
X100785714Y-85502438D01*
X100785714Y-85502438D02*
X100833333Y-85550057D01*
X101785714Y-86454819D02*
X101214286Y-86454819D01*
X101500000Y-86454819D02*
X101500000Y-85454819D01*
X101500000Y-85454819D02*
X101404762Y-85597676D01*
X101404762Y-85597676D02*
X101309524Y-85692914D01*
X101309524Y-85692914D02*
X101214286Y-85740533D01*
X122823200Y-83816666D02*
X122889866Y-83616666D01*
X122889866Y-83616666D02*
X122889866Y-83283333D01*
X122889866Y-83283333D02*
X122823200Y-83149999D01*
X122823200Y-83149999D02*
X122756533Y-83083333D01*
X122756533Y-83083333D02*
X122623200Y-83016666D01*
X122623200Y-83016666D02*
X122489866Y-83016666D01*
X122489866Y-83016666D02*
X122356533Y-83083333D01*
X122356533Y-83083333D02*
X122289866Y-83149999D01*
X122289866Y-83149999D02*
X122223200Y-83283333D01*
X122223200Y-83283333D02*
X122156533Y-83549999D01*
X122156533Y-83549999D02*
X122089866Y-83683333D01*
X122089866Y-83683333D02*
X122023200Y-83749999D01*
X122023200Y-83749999D02*
X121889866Y-83816666D01*
X121889866Y-83816666D02*
X121756533Y-83816666D01*
X121756533Y-83816666D02*
X121623200Y-83749999D01*
X121623200Y-83749999D02*
X121556533Y-83683333D01*
X121556533Y-83683333D02*
X121489866Y-83549999D01*
X121489866Y-83549999D02*
X121489866Y-83216666D01*
X121489866Y-83216666D02*
X121556533Y-83016666D01*
X121623200Y-82483333D02*
X121556533Y-82416666D01*
X121556533Y-82416666D02*
X121489866Y-82283333D01*
X121489866Y-82283333D02*
X121489866Y-81950000D01*
X121489866Y-81950000D02*
X121556533Y-81816666D01*
X121556533Y-81816666D02*
X121623200Y-81750000D01*
X121623200Y-81750000D02*
X121756533Y-81683333D01*
X121756533Y-81683333D02*
X121889866Y-81683333D01*
X121889866Y-81683333D02*
X122089866Y-81750000D01*
X122089866Y-81750000D02*
X122889866Y-82550000D01*
X122889866Y-82550000D02*
X122889866Y-81683333D01*
X102634819Y-51892857D02*
X102158628Y-52226190D01*
X102634819Y-52464285D02*
X101634819Y-52464285D01*
X101634819Y-52464285D02*
X101634819Y-52083333D01*
X101634819Y-52083333D02*
X101682438Y-51988095D01*
X101682438Y-51988095D02*
X101730057Y-51940476D01*
X101730057Y-51940476D02*
X101825295Y-51892857D01*
X101825295Y-51892857D02*
X101968152Y-51892857D01*
X101968152Y-51892857D02*
X102063390Y-51940476D01*
X102063390Y-51940476D02*
X102111009Y-51988095D01*
X102111009Y-51988095D02*
X102158628Y-52083333D01*
X102158628Y-52083333D02*
X102158628Y-52464285D01*
X102634819Y-50940476D02*
X102634819Y-51511904D01*
X102634819Y-51226190D02*
X101634819Y-51226190D01*
X101634819Y-51226190D02*
X101777676Y-51321428D01*
X101777676Y-51321428D02*
X101872914Y-51416666D01*
X101872914Y-51416666D02*
X101920533Y-51511904D01*
X101634819Y-50607142D02*
X101634819Y-49940476D01*
X101634819Y-49940476D02*
X102634819Y-50369047D01*
X122607142Y-59929580D02*
X122559523Y-59977200D01*
X122559523Y-59977200D02*
X122416666Y-60024819D01*
X122416666Y-60024819D02*
X122321428Y-60024819D01*
X122321428Y-60024819D02*
X122178571Y-59977200D01*
X122178571Y-59977200D02*
X122083333Y-59881961D01*
X122083333Y-59881961D02*
X122035714Y-59786723D01*
X122035714Y-59786723D02*
X121988095Y-59596247D01*
X121988095Y-59596247D02*
X121988095Y-59453390D01*
X121988095Y-59453390D02*
X122035714Y-59262914D01*
X122035714Y-59262914D02*
X122083333Y-59167676D01*
X122083333Y-59167676D02*
X122178571Y-59072438D01*
X122178571Y-59072438D02*
X122321428Y-59024819D01*
X122321428Y-59024819D02*
X122416666Y-59024819D01*
X122416666Y-59024819D02*
X122559523Y-59072438D01*
X122559523Y-59072438D02*
X122607142Y-59120057D01*
X123559523Y-60024819D02*
X122988095Y-60024819D01*
X123273809Y-60024819D02*
X123273809Y-59024819D01*
X123273809Y-59024819D02*
X123178571Y-59167676D01*
X123178571Y-59167676D02*
X123083333Y-59262914D01*
X123083333Y-59262914D02*
X122988095Y-59310533D01*
X124464285Y-59024819D02*
X123988095Y-59024819D01*
X123988095Y-59024819D02*
X123940476Y-59501009D01*
X123940476Y-59501009D02*
X123988095Y-59453390D01*
X123988095Y-59453390D02*
X124083333Y-59405771D01*
X124083333Y-59405771D02*
X124321428Y-59405771D01*
X124321428Y-59405771D02*
X124416666Y-59453390D01*
X124416666Y-59453390D02*
X124464285Y-59501009D01*
X124464285Y-59501009D02*
X124511904Y-59596247D01*
X124511904Y-59596247D02*
X124511904Y-59834342D01*
X124511904Y-59834342D02*
X124464285Y-59929580D01*
X124464285Y-59929580D02*
X124416666Y-59977200D01*
X124416666Y-59977200D02*
X124321428Y-60024819D01*
X124321428Y-60024819D02*
X124083333Y-60024819D01*
X124083333Y-60024819D02*
X123988095Y-59977200D01*
X123988095Y-59977200D02*
X123940476Y-59929580D01*
X131954819Y-43142857D02*
X131478628Y-43476190D01*
X131954819Y-43714285D02*
X130954819Y-43714285D01*
X130954819Y-43714285D02*
X130954819Y-43333333D01*
X130954819Y-43333333D02*
X131002438Y-43238095D01*
X131002438Y-43238095D02*
X131050057Y-43190476D01*
X131050057Y-43190476D02*
X131145295Y-43142857D01*
X131145295Y-43142857D02*
X131288152Y-43142857D01*
X131288152Y-43142857D02*
X131383390Y-43190476D01*
X131383390Y-43190476D02*
X131431009Y-43238095D01*
X131431009Y-43238095D02*
X131478628Y-43333333D01*
X131478628Y-43333333D02*
X131478628Y-43714285D01*
X131954819Y-42190476D02*
X131954819Y-42761904D01*
X131954819Y-42476190D02*
X130954819Y-42476190D01*
X130954819Y-42476190D02*
X131097676Y-42571428D01*
X131097676Y-42571428D02*
X131192914Y-42666666D01*
X131192914Y-42666666D02*
X131240533Y-42761904D01*
X131954819Y-41238095D02*
X131954819Y-41809523D01*
X131954819Y-41523809D02*
X130954819Y-41523809D01*
X130954819Y-41523809D02*
X131097676Y-41619047D01*
X131097676Y-41619047D02*
X131192914Y-41714285D01*
X131192914Y-41714285D02*
X131240533Y-41809523D01*
X129238095Y-58604819D02*
X129238095Y-59414342D01*
X129238095Y-59414342D02*
X129285714Y-59509580D01*
X129285714Y-59509580D02*
X129333333Y-59557200D01*
X129333333Y-59557200D02*
X129428571Y-59604819D01*
X129428571Y-59604819D02*
X129619047Y-59604819D01*
X129619047Y-59604819D02*
X129714285Y-59557200D01*
X129714285Y-59557200D02*
X129761904Y-59509580D01*
X129761904Y-59509580D02*
X129809523Y-59414342D01*
X129809523Y-59414342D02*
X129809523Y-58604819D01*
X130714285Y-58938152D02*
X130714285Y-59604819D01*
X130476190Y-58557200D02*
X130238095Y-59271485D01*
X130238095Y-59271485D02*
X130857142Y-59271485D01*
X100833333Y-110004819D02*
X100357143Y-110004819D01*
X100357143Y-110004819D02*
X100357143Y-109004819D01*
X101690476Y-110004819D02*
X101119048Y-110004819D01*
X101404762Y-110004819D02*
X101404762Y-109004819D01*
X101404762Y-109004819D02*
X101309524Y-109147676D01*
X101309524Y-109147676D02*
X101214286Y-109242914D01*
X101214286Y-109242914D02*
X101119048Y-109290533D01*
X117354819Y-44142857D02*
X116878628Y-44476190D01*
X117354819Y-44714285D02*
X116354819Y-44714285D01*
X116354819Y-44714285D02*
X116354819Y-44333333D01*
X116354819Y-44333333D02*
X116402438Y-44238095D01*
X116402438Y-44238095D02*
X116450057Y-44190476D01*
X116450057Y-44190476D02*
X116545295Y-44142857D01*
X116545295Y-44142857D02*
X116688152Y-44142857D01*
X116688152Y-44142857D02*
X116783390Y-44190476D01*
X116783390Y-44190476D02*
X116831009Y-44238095D01*
X116831009Y-44238095D02*
X116878628Y-44333333D01*
X116878628Y-44333333D02*
X116878628Y-44714285D01*
X116450057Y-43761904D02*
X116402438Y-43714285D01*
X116402438Y-43714285D02*
X116354819Y-43619047D01*
X116354819Y-43619047D02*
X116354819Y-43380952D01*
X116354819Y-43380952D02*
X116402438Y-43285714D01*
X116402438Y-43285714D02*
X116450057Y-43238095D01*
X116450057Y-43238095D02*
X116545295Y-43190476D01*
X116545295Y-43190476D02*
X116640533Y-43190476D01*
X116640533Y-43190476D02*
X116783390Y-43238095D01*
X116783390Y-43238095D02*
X117354819Y-43809523D01*
X117354819Y-43809523D02*
X117354819Y-43190476D01*
X116354819Y-42285714D02*
X116354819Y-42761904D01*
X116354819Y-42761904D02*
X116831009Y-42809523D01*
X116831009Y-42809523D02*
X116783390Y-42761904D01*
X116783390Y-42761904D02*
X116735771Y-42666666D01*
X116735771Y-42666666D02*
X116735771Y-42428571D01*
X116735771Y-42428571D02*
X116783390Y-42333333D01*
X116783390Y-42333333D02*
X116831009Y-42285714D01*
X116831009Y-42285714D02*
X116926247Y-42238095D01*
X116926247Y-42238095D02*
X117164342Y-42238095D01*
X117164342Y-42238095D02*
X117259580Y-42285714D01*
X117259580Y-42285714D02*
X117307200Y-42333333D01*
X117307200Y-42333333D02*
X117354819Y-42428571D01*
X117354819Y-42428571D02*
X117354819Y-42666666D01*
X117354819Y-42666666D02*
X117307200Y-42761904D01*
X117307200Y-42761904D02*
X117259580Y-42809523D01*
X130354819Y-47988094D02*
X129354819Y-47988094D01*
X129354819Y-47988094D02*
X129354819Y-47749999D01*
X129354819Y-47749999D02*
X129402438Y-47607142D01*
X129402438Y-47607142D02*
X129497676Y-47511904D01*
X129497676Y-47511904D02*
X129592914Y-47464285D01*
X129592914Y-47464285D02*
X129783390Y-47416666D01*
X129783390Y-47416666D02*
X129926247Y-47416666D01*
X129926247Y-47416666D02*
X130116723Y-47464285D01*
X130116723Y-47464285D02*
X130211961Y-47511904D01*
X130211961Y-47511904D02*
X130307200Y-47607142D01*
X130307200Y-47607142D02*
X130354819Y-47749999D01*
X130354819Y-47749999D02*
X130354819Y-47988094D01*
X129354819Y-47083332D02*
X129354819Y-46416666D01*
X129354819Y-46416666D02*
X130354819Y-46845237D01*
X116859580Y-73642857D02*
X116907200Y-73690476D01*
X116907200Y-73690476D02*
X116954819Y-73833333D01*
X116954819Y-73833333D02*
X116954819Y-73928571D01*
X116954819Y-73928571D02*
X116907200Y-74071428D01*
X116907200Y-74071428D02*
X116811961Y-74166666D01*
X116811961Y-74166666D02*
X116716723Y-74214285D01*
X116716723Y-74214285D02*
X116526247Y-74261904D01*
X116526247Y-74261904D02*
X116383390Y-74261904D01*
X116383390Y-74261904D02*
X116192914Y-74214285D01*
X116192914Y-74214285D02*
X116097676Y-74166666D01*
X116097676Y-74166666D02*
X116002438Y-74071428D01*
X116002438Y-74071428D02*
X115954819Y-73928571D01*
X115954819Y-73928571D02*
X115954819Y-73833333D01*
X115954819Y-73833333D02*
X116002438Y-73690476D01*
X116002438Y-73690476D02*
X116050057Y-73642857D01*
X116954819Y-72690476D02*
X116954819Y-73261904D01*
X116954819Y-72976190D02*
X115954819Y-72976190D01*
X115954819Y-72976190D02*
X116097676Y-73071428D01*
X116097676Y-73071428D02*
X116192914Y-73166666D01*
X116192914Y-73166666D02*
X116240533Y-73261904D01*
X116288152Y-71833333D02*
X116954819Y-71833333D01*
X115907200Y-72071428D02*
X116621485Y-72309523D01*
X116621485Y-72309523D02*
X116621485Y-71690476D01*
X160607142Y-57454819D02*
X160273809Y-56978628D01*
X160035714Y-57454819D02*
X160035714Y-56454819D01*
X160035714Y-56454819D02*
X160416666Y-56454819D01*
X160416666Y-56454819D02*
X160511904Y-56502438D01*
X160511904Y-56502438D02*
X160559523Y-56550057D01*
X160559523Y-56550057D02*
X160607142Y-56645295D01*
X160607142Y-56645295D02*
X160607142Y-56788152D01*
X160607142Y-56788152D02*
X160559523Y-56883390D01*
X160559523Y-56883390D02*
X160511904Y-56931009D01*
X160511904Y-56931009D02*
X160416666Y-56978628D01*
X160416666Y-56978628D02*
X160035714Y-56978628D01*
X161559523Y-57454819D02*
X160988095Y-57454819D01*
X161273809Y-57454819D02*
X161273809Y-56454819D01*
X161273809Y-56454819D02*
X161178571Y-56597676D01*
X161178571Y-56597676D02*
X161083333Y-56692914D01*
X161083333Y-56692914D02*
X160988095Y-56740533D01*
X161940476Y-56550057D02*
X161988095Y-56502438D01*
X161988095Y-56502438D02*
X162083333Y-56454819D01*
X162083333Y-56454819D02*
X162321428Y-56454819D01*
X162321428Y-56454819D02*
X162416666Y-56502438D01*
X162416666Y-56502438D02*
X162464285Y-56550057D01*
X162464285Y-56550057D02*
X162511904Y-56645295D01*
X162511904Y-56645295D02*
X162511904Y-56740533D01*
X162511904Y-56740533D02*
X162464285Y-56883390D01*
X162464285Y-56883390D02*
X161892857Y-57454819D01*
X161892857Y-57454819D02*
X162511904Y-57454819D01*
X152761905Y-50954819D02*
X152761905Y-49954819D01*
X152761905Y-49954819D02*
X153000000Y-49954819D01*
X153000000Y-49954819D02*
X153142857Y-50002438D01*
X153142857Y-50002438D02*
X153238095Y-50097676D01*
X153238095Y-50097676D02*
X153285714Y-50192914D01*
X153285714Y-50192914D02*
X153333333Y-50383390D01*
X153333333Y-50383390D02*
X153333333Y-50526247D01*
X153333333Y-50526247D02*
X153285714Y-50716723D01*
X153285714Y-50716723D02*
X153238095Y-50811961D01*
X153238095Y-50811961D02*
X153142857Y-50907200D01*
X153142857Y-50907200D02*
X153000000Y-50954819D01*
X153000000Y-50954819D02*
X152761905Y-50954819D01*
X154190476Y-50288152D02*
X154190476Y-50954819D01*
X153952381Y-49907200D02*
X153714286Y-50621485D01*
X153714286Y-50621485D02*
X154333333Y-50621485D01*
X104550057Y-122595238D02*
X104502438Y-122690476D01*
X104502438Y-122690476D02*
X104407200Y-122785714D01*
X104407200Y-122785714D02*
X104264342Y-122928571D01*
X104264342Y-122928571D02*
X104216723Y-123023809D01*
X104216723Y-123023809D02*
X104216723Y-123119047D01*
X104454819Y-123071428D02*
X104407200Y-123166666D01*
X104407200Y-123166666D02*
X104311961Y-123261904D01*
X104311961Y-123261904D02*
X104121485Y-123309523D01*
X104121485Y-123309523D02*
X103788152Y-123309523D01*
X103788152Y-123309523D02*
X103597676Y-123261904D01*
X103597676Y-123261904D02*
X103502438Y-123166666D01*
X103502438Y-123166666D02*
X103454819Y-123071428D01*
X103454819Y-123071428D02*
X103454819Y-122880952D01*
X103454819Y-122880952D02*
X103502438Y-122785714D01*
X103502438Y-122785714D02*
X103597676Y-122690476D01*
X103597676Y-122690476D02*
X103788152Y-122642857D01*
X103788152Y-122642857D02*
X104121485Y-122642857D01*
X104121485Y-122642857D02*
X104311961Y-122690476D01*
X104311961Y-122690476D02*
X104407200Y-122785714D01*
X104407200Y-122785714D02*
X104454819Y-122880952D01*
X104454819Y-122880952D02*
X104454819Y-123071428D01*
X103550057Y-122261904D02*
X103502438Y-122214285D01*
X103502438Y-122214285D02*
X103454819Y-122119047D01*
X103454819Y-122119047D02*
X103454819Y-121880952D01*
X103454819Y-121880952D02*
X103502438Y-121785714D01*
X103502438Y-121785714D02*
X103550057Y-121738095D01*
X103550057Y-121738095D02*
X103645295Y-121690476D01*
X103645295Y-121690476D02*
X103740533Y-121690476D01*
X103740533Y-121690476D02*
X103883390Y-121738095D01*
X103883390Y-121738095D02*
X104454819Y-122309523D01*
X104454819Y-122309523D02*
X104454819Y-121690476D01*
X118409580Y-55642857D02*
X118457200Y-55690476D01*
X118457200Y-55690476D02*
X118504819Y-55833333D01*
X118504819Y-55833333D02*
X118504819Y-55928571D01*
X118504819Y-55928571D02*
X118457200Y-56071428D01*
X118457200Y-56071428D02*
X118361961Y-56166666D01*
X118361961Y-56166666D02*
X118266723Y-56214285D01*
X118266723Y-56214285D02*
X118076247Y-56261904D01*
X118076247Y-56261904D02*
X117933390Y-56261904D01*
X117933390Y-56261904D02*
X117742914Y-56214285D01*
X117742914Y-56214285D02*
X117647676Y-56166666D01*
X117647676Y-56166666D02*
X117552438Y-56071428D01*
X117552438Y-56071428D02*
X117504819Y-55928571D01*
X117504819Y-55928571D02*
X117504819Y-55833333D01*
X117504819Y-55833333D02*
X117552438Y-55690476D01*
X117552438Y-55690476D02*
X117600057Y-55642857D01*
X118504819Y-54690476D02*
X118504819Y-55261904D01*
X118504819Y-54976190D02*
X117504819Y-54976190D01*
X117504819Y-54976190D02*
X117647676Y-55071428D01*
X117647676Y-55071428D02*
X117742914Y-55166666D01*
X117742914Y-55166666D02*
X117790533Y-55261904D01*
X117600057Y-54309523D02*
X117552438Y-54261904D01*
X117552438Y-54261904D02*
X117504819Y-54166666D01*
X117504819Y-54166666D02*
X117504819Y-53928571D01*
X117504819Y-53928571D02*
X117552438Y-53833333D01*
X117552438Y-53833333D02*
X117600057Y-53785714D01*
X117600057Y-53785714D02*
X117695295Y-53738095D01*
X117695295Y-53738095D02*
X117790533Y-53738095D01*
X117790533Y-53738095D02*
X117933390Y-53785714D01*
X117933390Y-53785714D02*
X118504819Y-54357142D01*
X118504819Y-54357142D02*
X118504819Y-53738095D01*
X99884819Y-93666666D02*
X99408628Y-93999999D01*
X99884819Y-94238094D02*
X98884819Y-94238094D01*
X98884819Y-94238094D02*
X98884819Y-93857142D01*
X98884819Y-93857142D02*
X98932438Y-93761904D01*
X98932438Y-93761904D02*
X98980057Y-93714285D01*
X98980057Y-93714285D02*
X99075295Y-93666666D01*
X99075295Y-93666666D02*
X99218152Y-93666666D01*
X99218152Y-93666666D02*
X99313390Y-93714285D01*
X99313390Y-93714285D02*
X99361009Y-93761904D01*
X99361009Y-93761904D02*
X99408628Y-93857142D01*
X99408628Y-93857142D02*
X99408628Y-94238094D01*
X99218152Y-92809523D02*
X99884819Y-92809523D01*
X98837200Y-93047618D02*
X99551485Y-93285713D01*
X99551485Y-93285713D02*
X99551485Y-92666666D01*
X116789580Y-56642857D02*
X116837200Y-56690476D01*
X116837200Y-56690476D02*
X116884819Y-56833333D01*
X116884819Y-56833333D02*
X116884819Y-56928571D01*
X116884819Y-56928571D02*
X116837200Y-57071428D01*
X116837200Y-57071428D02*
X116741961Y-57166666D01*
X116741961Y-57166666D02*
X116646723Y-57214285D01*
X116646723Y-57214285D02*
X116456247Y-57261904D01*
X116456247Y-57261904D02*
X116313390Y-57261904D01*
X116313390Y-57261904D02*
X116122914Y-57214285D01*
X116122914Y-57214285D02*
X116027676Y-57166666D01*
X116027676Y-57166666D02*
X115932438Y-57071428D01*
X115932438Y-57071428D02*
X115884819Y-56928571D01*
X115884819Y-56928571D02*
X115884819Y-56833333D01*
X115884819Y-56833333D02*
X115932438Y-56690476D01*
X115932438Y-56690476D02*
X115980057Y-56642857D01*
X116884819Y-55690476D02*
X116884819Y-56261904D01*
X116884819Y-55976190D02*
X115884819Y-55976190D01*
X115884819Y-55976190D02*
X116027676Y-56071428D01*
X116027676Y-56071428D02*
X116122914Y-56166666D01*
X116122914Y-56166666D02*
X116170533Y-56261904D01*
X116884819Y-54738095D02*
X116884819Y-55309523D01*
X116884819Y-55023809D02*
X115884819Y-55023809D01*
X115884819Y-55023809D02*
X116027676Y-55119047D01*
X116027676Y-55119047D02*
X116122914Y-55214285D01*
X116122914Y-55214285D02*
X116170533Y-55309523D01*
X138704819Y-73142857D02*
X138228628Y-73476190D01*
X138704819Y-73714285D02*
X137704819Y-73714285D01*
X137704819Y-73714285D02*
X137704819Y-73333333D01*
X137704819Y-73333333D02*
X137752438Y-73238095D01*
X137752438Y-73238095D02*
X137800057Y-73190476D01*
X137800057Y-73190476D02*
X137895295Y-73142857D01*
X137895295Y-73142857D02*
X138038152Y-73142857D01*
X138038152Y-73142857D02*
X138133390Y-73190476D01*
X138133390Y-73190476D02*
X138181009Y-73238095D01*
X138181009Y-73238095D02*
X138228628Y-73333333D01*
X138228628Y-73333333D02*
X138228628Y-73714285D01*
X137800057Y-72761904D02*
X137752438Y-72714285D01*
X137752438Y-72714285D02*
X137704819Y-72619047D01*
X137704819Y-72619047D02*
X137704819Y-72380952D01*
X137704819Y-72380952D02*
X137752438Y-72285714D01*
X137752438Y-72285714D02*
X137800057Y-72238095D01*
X137800057Y-72238095D02*
X137895295Y-72190476D01*
X137895295Y-72190476D02*
X137990533Y-72190476D01*
X137990533Y-72190476D02*
X138133390Y-72238095D01*
X138133390Y-72238095D02*
X138704819Y-72809523D01*
X138704819Y-72809523D02*
X138704819Y-72190476D01*
X137704819Y-71571428D02*
X137704819Y-71476190D01*
X137704819Y-71476190D02*
X137752438Y-71380952D01*
X137752438Y-71380952D02*
X137800057Y-71333333D01*
X137800057Y-71333333D02*
X137895295Y-71285714D01*
X137895295Y-71285714D02*
X138085771Y-71238095D01*
X138085771Y-71238095D02*
X138323866Y-71238095D01*
X138323866Y-71238095D02*
X138514342Y-71285714D01*
X138514342Y-71285714D02*
X138609580Y-71333333D01*
X138609580Y-71333333D02*
X138657200Y-71380952D01*
X138657200Y-71380952D02*
X138704819Y-71476190D01*
X138704819Y-71476190D02*
X138704819Y-71571428D01*
X138704819Y-71571428D02*
X138657200Y-71666666D01*
X138657200Y-71666666D02*
X138609580Y-71714285D01*
X138609580Y-71714285D02*
X138514342Y-71761904D01*
X138514342Y-71761904D02*
X138323866Y-71809523D01*
X138323866Y-71809523D02*
X138085771Y-71809523D01*
X138085771Y-71809523D02*
X137895295Y-71761904D01*
X137895295Y-71761904D02*
X137800057Y-71714285D01*
X137800057Y-71714285D02*
X137752438Y-71666666D01*
X137752438Y-71666666D02*
X137704819Y-71571428D01*
X111428628Y-64976190D02*
X111904819Y-64976190D01*
X110904819Y-65309523D02*
X111428628Y-64976190D01*
X111428628Y-64976190D02*
X110904819Y-64642857D01*
X111904819Y-63785714D02*
X111904819Y-64357142D01*
X111904819Y-64071428D02*
X110904819Y-64071428D01*
X110904819Y-64071428D02*
X111047676Y-64166666D01*
X111047676Y-64166666D02*
X111142914Y-64261904D01*
X111142914Y-64261904D02*
X111190533Y-64357142D01*
X104454819Y-56988094D02*
X103454819Y-56988094D01*
X103454819Y-56988094D02*
X103454819Y-56749999D01*
X103454819Y-56749999D02*
X103502438Y-56607142D01*
X103502438Y-56607142D02*
X103597676Y-56511904D01*
X103597676Y-56511904D02*
X103692914Y-56464285D01*
X103692914Y-56464285D02*
X103883390Y-56416666D01*
X103883390Y-56416666D02*
X104026247Y-56416666D01*
X104026247Y-56416666D02*
X104216723Y-56464285D01*
X104216723Y-56464285D02*
X104311961Y-56511904D01*
X104311961Y-56511904D02*
X104407200Y-56607142D01*
X104407200Y-56607142D02*
X104454819Y-56749999D01*
X104454819Y-56749999D02*
X104454819Y-56988094D01*
X103454819Y-55511904D02*
X103454819Y-55988094D01*
X103454819Y-55988094D02*
X103931009Y-56035713D01*
X103931009Y-56035713D02*
X103883390Y-55988094D01*
X103883390Y-55988094D02*
X103835771Y-55892856D01*
X103835771Y-55892856D02*
X103835771Y-55654761D01*
X103835771Y-55654761D02*
X103883390Y-55559523D01*
X103883390Y-55559523D02*
X103931009Y-55511904D01*
X103931009Y-55511904D02*
X104026247Y-55464285D01*
X104026247Y-55464285D02*
X104264342Y-55464285D01*
X104264342Y-55464285D02*
X104359580Y-55511904D01*
X104359580Y-55511904D02*
X104407200Y-55559523D01*
X104407200Y-55559523D02*
X104454819Y-55654761D01*
X104454819Y-55654761D02*
X104454819Y-55892856D01*
X104454819Y-55892856D02*
X104407200Y-55988094D01*
X104407200Y-55988094D02*
X104359580Y-56035713D01*
X128690476Y-82954819D02*
X128690476Y-81954819D01*
X128690476Y-81954819D02*
X129023809Y-82669104D01*
X129023809Y-82669104D02*
X129357142Y-81954819D01*
X129357142Y-81954819D02*
X129357142Y-82954819D01*
X130357142Y-82954819D02*
X129785714Y-82954819D01*
X130071428Y-82954819D02*
X130071428Y-81954819D01*
X130071428Y-81954819D02*
X129976190Y-82097676D01*
X129976190Y-82097676D02*
X129880952Y-82192914D01*
X129880952Y-82192914D02*
X129785714Y-82240533D01*
X106634819Y-51892857D02*
X106158628Y-52226190D01*
X106634819Y-52464285D02*
X105634819Y-52464285D01*
X105634819Y-52464285D02*
X105634819Y-52083333D01*
X105634819Y-52083333D02*
X105682438Y-51988095D01*
X105682438Y-51988095D02*
X105730057Y-51940476D01*
X105730057Y-51940476D02*
X105825295Y-51892857D01*
X105825295Y-51892857D02*
X105968152Y-51892857D01*
X105968152Y-51892857D02*
X106063390Y-51940476D01*
X106063390Y-51940476D02*
X106111009Y-51988095D01*
X106111009Y-51988095D02*
X106158628Y-52083333D01*
X106158628Y-52083333D02*
X106158628Y-52464285D01*
X106634819Y-50940476D02*
X106634819Y-51511904D01*
X106634819Y-51226190D02*
X105634819Y-51226190D01*
X105634819Y-51226190D02*
X105777676Y-51321428D01*
X105777676Y-51321428D02*
X105872914Y-51416666D01*
X105872914Y-51416666D02*
X105920533Y-51511904D01*
X105634819Y-50083333D02*
X105634819Y-50273809D01*
X105634819Y-50273809D02*
X105682438Y-50369047D01*
X105682438Y-50369047D02*
X105730057Y-50416666D01*
X105730057Y-50416666D02*
X105872914Y-50511904D01*
X105872914Y-50511904D02*
X106063390Y-50559523D01*
X106063390Y-50559523D02*
X106444342Y-50559523D01*
X106444342Y-50559523D02*
X106539580Y-50511904D01*
X106539580Y-50511904D02*
X106587200Y-50464285D01*
X106587200Y-50464285D02*
X106634819Y-50369047D01*
X106634819Y-50369047D02*
X106634819Y-50178571D01*
X106634819Y-50178571D02*
X106587200Y-50083333D01*
X106587200Y-50083333D02*
X106539580Y-50035714D01*
X106539580Y-50035714D02*
X106444342Y-49988095D01*
X106444342Y-49988095D02*
X106206247Y-49988095D01*
X106206247Y-49988095D02*
X106111009Y-50035714D01*
X106111009Y-50035714D02*
X106063390Y-50083333D01*
X106063390Y-50083333D02*
X106015771Y-50178571D01*
X106015771Y-50178571D02*
X106015771Y-50369047D01*
X106015771Y-50369047D02*
X106063390Y-50464285D01*
X106063390Y-50464285D02*
X106111009Y-50511904D01*
X106111009Y-50511904D02*
X106206247Y-50559523D01*
X127789580Y-58892857D02*
X127837200Y-58940476D01*
X127837200Y-58940476D02*
X127884819Y-59083333D01*
X127884819Y-59083333D02*
X127884819Y-59178571D01*
X127884819Y-59178571D02*
X127837200Y-59321428D01*
X127837200Y-59321428D02*
X127741961Y-59416666D01*
X127741961Y-59416666D02*
X127646723Y-59464285D01*
X127646723Y-59464285D02*
X127456247Y-59511904D01*
X127456247Y-59511904D02*
X127313390Y-59511904D01*
X127313390Y-59511904D02*
X127122914Y-59464285D01*
X127122914Y-59464285D02*
X127027676Y-59416666D01*
X127027676Y-59416666D02*
X126932438Y-59321428D01*
X126932438Y-59321428D02*
X126884819Y-59178571D01*
X126884819Y-59178571D02*
X126884819Y-59083333D01*
X126884819Y-59083333D02*
X126932438Y-58940476D01*
X126932438Y-58940476D02*
X126980057Y-58892857D01*
X127884819Y-57940476D02*
X127884819Y-58511904D01*
X127884819Y-58226190D02*
X126884819Y-58226190D01*
X126884819Y-58226190D02*
X127027676Y-58321428D01*
X127027676Y-58321428D02*
X127122914Y-58416666D01*
X127122914Y-58416666D02*
X127170533Y-58511904D01*
X127313390Y-57369047D02*
X127265771Y-57464285D01*
X127265771Y-57464285D02*
X127218152Y-57511904D01*
X127218152Y-57511904D02*
X127122914Y-57559523D01*
X127122914Y-57559523D02*
X127075295Y-57559523D01*
X127075295Y-57559523D02*
X126980057Y-57511904D01*
X126980057Y-57511904D02*
X126932438Y-57464285D01*
X126932438Y-57464285D02*
X126884819Y-57369047D01*
X126884819Y-57369047D02*
X126884819Y-57178571D01*
X126884819Y-57178571D02*
X126932438Y-57083333D01*
X126932438Y-57083333D02*
X126980057Y-57035714D01*
X126980057Y-57035714D02*
X127075295Y-56988095D01*
X127075295Y-56988095D02*
X127122914Y-56988095D01*
X127122914Y-56988095D02*
X127218152Y-57035714D01*
X127218152Y-57035714D02*
X127265771Y-57083333D01*
X127265771Y-57083333D02*
X127313390Y-57178571D01*
X127313390Y-57178571D02*
X127313390Y-57369047D01*
X127313390Y-57369047D02*
X127361009Y-57464285D01*
X127361009Y-57464285D02*
X127408628Y-57511904D01*
X127408628Y-57511904D02*
X127503866Y-57559523D01*
X127503866Y-57559523D02*
X127694342Y-57559523D01*
X127694342Y-57559523D02*
X127789580Y-57511904D01*
X127789580Y-57511904D02*
X127837200Y-57464285D01*
X127837200Y-57464285D02*
X127884819Y-57369047D01*
X127884819Y-57369047D02*
X127884819Y-57178571D01*
X127884819Y-57178571D02*
X127837200Y-57083333D01*
X127837200Y-57083333D02*
X127789580Y-57035714D01*
X127789580Y-57035714D02*
X127694342Y-56988095D01*
X127694342Y-56988095D02*
X127503866Y-56988095D01*
X127503866Y-56988095D02*
X127408628Y-57035714D01*
X127408628Y-57035714D02*
X127361009Y-57083333D01*
X127361009Y-57083333D02*
X127313390Y-57178571D01*
X140885819Y-78152333D02*
X141600104Y-78152333D01*
X141600104Y-78152333D02*
X141742961Y-78199952D01*
X141742961Y-78199952D02*
X141838200Y-78295190D01*
X141838200Y-78295190D02*
X141885819Y-78438047D01*
X141885819Y-78438047D02*
X141885819Y-78533285D01*
X141885819Y-77152333D02*
X141885819Y-77723761D01*
X141885819Y-77438047D02*
X140885819Y-77438047D01*
X140885819Y-77438047D02*
X141028676Y-77533285D01*
X141028676Y-77533285D02*
X141123914Y-77628523D01*
X141123914Y-77628523D02*
X141171533Y-77723761D01*
X100331009Y-60333333D02*
X100331009Y-60666666D01*
X100854819Y-60666666D02*
X99854819Y-60666666D01*
X99854819Y-60666666D02*
X99854819Y-60190476D01*
X100854819Y-59285714D02*
X100854819Y-59857142D01*
X100854819Y-59571428D02*
X99854819Y-59571428D01*
X99854819Y-59571428D02*
X99997676Y-59666666D01*
X99997676Y-59666666D02*
X100092914Y-59761904D01*
X100092914Y-59761904D02*
X100140533Y-59857142D01*
X100111009Y-64333333D02*
X100111009Y-64666666D01*
X100634819Y-64666666D02*
X99634819Y-64666666D01*
X99634819Y-64666666D02*
X99634819Y-64190476D01*
X100111009Y-63476190D02*
X100158628Y-63333333D01*
X100158628Y-63333333D02*
X100206247Y-63285714D01*
X100206247Y-63285714D02*
X100301485Y-63238095D01*
X100301485Y-63238095D02*
X100444342Y-63238095D01*
X100444342Y-63238095D02*
X100539580Y-63285714D01*
X100539580Y-63285714D02*
X100587200Y-63333333D01*
X100587200Y-63333333D02*
X100634819Y-63428571D01*
X100634819Y-63428571D02*
X100634819Y-63809523D01*
X100634819Y-63809523D02*
X99634819Y-63809523D01*
X99634819Y-63809523D02*
X99634819Y-63476190D01*
X99634819Y-63476190D02*
X99682438Y-63380952D01*
X99682438Y-63380952D02*
X99730057Y-63333333D01*
X99730057Y-63333333D02*
X99825295Y-63285714D01*
X99825295Y-63285714D02*
X99920533Y-63285714D01*
X99920533Y-63285714D02*
X100015771Y-63333333D01*
X100015771Y-63333333D02*
X100063390Y-63380952D01*
X100063390Y-63380952D02*
X100111009Y-63476190D01*
X100111009Y-63476190D02*
X100111009Y-63809523D01*
X100634819Y-62285714D02*
X100634819Y-62857142D01*
X100634819Y-62571428D02*
X99634819Y-62571428D01*
X99634819Y-62571428D02*
X99777676Y-62666666D01*
X99777676Y-62666666D02*
X99872914Y-62761904D01*
X99872914Y-62761904D02*
X99920533Y-62857142D01*
X127104819Y-47988094D02*
X126104819Y-47988094D01*
X126104819Y-47988094D02*
X126104819Y-47749999D01*
X126104819Y-47749999D02*
X126152438Y-47607142D01*
X126152438Y-47607142D02*
X126247676Y-47511904D01*
X126247676Y-47511904D02*
X126342914Y-47464285D01*
X126342914Y-47464285D02*
X126533390Y-47416666D01*
X126533390Y-47416666D02*
X126676247Y-47416666D01*
X126676247Y-47416666D02*
X126866723Y-47464285D01*
X126866723Y-47464285D02*
X126961961Y-47511904D01*
X126961961Y-47511904D02*
X127057200Y-47607142D01*
X127057200Y-47607142D02*
X127104819Y-47749999D01*
X127104819Y-47749999D02*
X127104819Y-47988094D01*
X126533390Y-46845237D02*
X126485771Y-46940475D01*
X126485771Y-46940475D02*
X126438152Y-46988094D01*
X126438152Y-46988094D02*
X126342914Y-47035713D01*
X126342914Y-47035713D02*
X126295295Y-47035713D01*
X126295295Y-47035713D02*
X126200057Y-46988094D01*
X126200057Y-46988094D02*
X126152438Y-46940475D01*
X126152438Y-46940475D02*
X126104819Y-46845237D01*
X126104819Y-46845237D02*
X126104819Y-46654761D01*
X126104819Y-46654761D02*
X126152438Y-46559523D01*
X126152438Y-46559523D02*
X126200057Y-46511904D01*
X126200057Y-46511904D02*
X126295295Y-46464285D01*
X126295295Y-46464285D02*
X126342914Y-46464285D01*
X126342914Y-46464285D02*
X126438152Y-46511904D01*
X126438152Y-46511904D02*
X126485771Y-46559523D01*
X126485771Y-46559523D02*
X126533390Y-46654761D01*
X126533390Y-46654761D02*
X126533390Y-46845237D01*
X126533390Y-46845237D02*
X126581009Y-46940475D01*
X126581009Y-46940475D02*
X126628628Y-46988094D01*
X126628628Y-46988094D02*
X126723866Y-47035713D01*
X126723866Y-47035713D02*
X126914342Y-47035713D01*
X126914342Y-47035713D02*
X127009580Y-46988094D01*
X127009580Y-46988094D02*
X127057200Y-46940475D01*
X127057200Y-46940475D02*
X127104819Y-46845237D01*
X127104819Y-46845237D02*
X127104819Y-46654761D01*
X127104819Y-46654761D02*
X127057200Y-46559523D01*
X127057200Y-46559523D02*
X127009580Y-46511904D01*
X127009580Y-46511904D02*
X126914342Y-46464285D01*
X126914342Y-46464285D02*
X126723866Y-46464285D01*
X126723866Y-46464285D02*
X126628628Y-46511904D01*
X126628628Y-46511904D02*
X126581009Y-46559523D01*
X126581009Y-46559523D02*
X126533390Y-46654761D01*
X118954819Y-80416666D02*
X118478628Y-80749999D01*
X118954819Y-80988094D02*
X117954819Y-80988094D01*
X117954819Y-80988094D02*
X117954819Y-80607142D01*
X117954819Y-80607142D02*
X118002438Y-80511904D01*
X118002438Y-80511904D02*
X118050057Y-80464285D01*
X118050057Y-80464285D02*
X118145295Y-80416666D01*
X118145295Y-80416666D02*
X118288152Y-80416666D01*
X118288152Y-80416666D02*
X118383390Y-80464285D01*
X118383390Y-80464285D02*
X118431009Y-80511904D01*
X118431009Y-80511904D02*
X118478628Y-80607142D01*
X118478628Y-80607142D02*
X118478628Y-80988094D01*
X118954819Y-79464285D02*
X118954819Y-80035713D01*
X118954819Y-79749999D02*
X117954819Y-79749999D01*
X117954819Y-79749999D02*
X118097676Y-79845237D01*
X118097676Y-79845237D02*
X118192914Y-79940475D01*
X118192914Y-79940475D02*
X118240533Y-80035713D01*
X115559580Y-91166666D02*
X115607200Y-91214285D01*
X115607200Y-91214285D02*
X115654819Y-91357142D01*
X115654819Y-91357142D02*
X115654819Y-91452380D01*
X115654819Y-91452380D02*
X115607200Y-91595237D01*
X115607200Y-91595237D02*
X115511961Y-91690475D01*
X115511961Y-91690475D02*
X115416723Y-91738094D01*
X115416723Y-91738094D02*
X115226247Y-91785713D01*
X115226247Y-91785713D02*
X115083390Y-91785713D01*
X115083390Y-91785713D02*
X114892914Y-91738094D01*
X114892914Y-91738094D02*
X114797676Y-91690475D01*
X114797676Y-91690475D02*
X114702438Y-91595237D01*
X114702438Y-91595237D02*
X114654819Y-91452380D01*
X114654819Y-91452380D02*
X114654819Y-91357142D01*
X114654819Y-91357142D02*
X114702438Y-91214285D01*
X114702438Y-91214285D02*
X114750057Y-91166666D01*
X114988152Y-90309523D02*
X115654819Y-90309523D01*
X114607200Y-90547618D02*
X115321485Y-90785713D01*
X115321485Y-90785713D02*
X115321485Y-90166666D01*
X151539580Y-49142857D02*
X151587200Y-49190476D01*
X151587200Y-49190476D02*
X151634819Y-49333333D01*
X151634819Y-49333333D02*
X151634819Y-49428571D01*
X151634819Y-49428571D02*
X151587200Y-49571428D01*
X151587200Y-49571428D02*
X151491961Y-49666666D01*
X151491961Y-49666666D02*
X151396723Y-49714285D01*
X151396723Y-49714285D02*
X151206247Y-49761904D01*
X151206247Y-49761904D02*
X151063390Y-49761904D01*
X151063390Y-49761904D02*
X150872914Y-49714285D01*
X150872914Y-49714285D02*
X150777676Y-49666666D01*
X150777676Y-49666666D02*
X150682438Y-49571428D01*
X150682438Y-49571428D02*
X150634819Y-49428571D01*
X150634819Y-49428571D02*
X150634819Y-49333333D01*
X150634819Y-49333333D02*
X150682438Y-49190476D01*
X150682438Y-49190476D02*
X150730057Y-49142857D01*
X150730057Y-48761904D02*
X150682438Y-48714285D01*
X150682438Y-48714285D02*
X150634819Y-48619047D01*
X150634819Y-48619047D02*
X150634819Y-48380952D01*
X150634819Y-48380952D02*
X150682438Y-48285714D01*
X150682438Y-48285714D02*
X150730057Y-48238095D01*
X150730057Y-48238095D02*
X150825295Y-48190476D01*
X150825295Y-48190476D02*
X150920533Y-48190476D01*
X150920533Y-48190476D02*
X151063390Y-48238095D01*
X151063390Y-48238095D02*
X151634819Y-48809523D01*
X151634819Y-48809523D02*
X151634819Y-48190476D01*
X150634819Y-47571428D02*
X150634819Y-47476190D01*
X150634819Y-47476190D02*
X150682438Y-47380952D01*
X150682438Y-47380952D02*
X150730057Y-47333333D01*
X150730057Y-47333333D02*
X150825295Y-47285714D01*
X150825295Y-47285714D02*
X151015771Y-47238095D01*
X151015771Y-47238095D02*
X151253866Y-47238095D01*
X151253866Y-47238095D02*
X151444342Y-47285714D01*
X151444342Y-47285714D02*
X151539580Y-47333333D01*
X151539580Y-47333333D02*
X151587200Y-47380952D01*
X151587200Y-47380952D02*
X151634819Y-47476190D01*
X151634819Y-47476190D02*
X151634819Y-47571428D01*
X151634819Y-47571428D02*
X151587200Y-47666666D01*
X151587200Y-47666666D02*
X151539580Y-47714285D01*
X151539580Y-47714285D02*
X151444342Y-47761904D01*
X151444342Y-47761904D02*
X151253866Y-47809523D01*
X151253866Y-47809523D02*
X151015771Y-47809523D01*
X151015771Y-47809523D02*
X150825295Y-47761904D01*
X150825295Y-47761904D02*
X150730057Y-47714285D01*
X150730057Y-47714285D02*
X150682438Y-47666666D01*
X150682438Y-47666666D02*
X150634819Y-47571428D01*
X142024819Y-64892857D02*
X141548628Y-65226190D01*
X142024819Y-65464285D02*
X141024819Y-65464285D01*
X141024819Y-65464285D02*
X141024819Y-65083333D01*
X141024819Y-65083333D02*
X141072438Y-64988095D01*
X141072438Y-64988095D02*
X141120057Y-64940476D01*
X141120057Y-64940476D02*
X141215295Y-64892857D01*
X141215295Y-64892857D02*
X141358152Y-64892857D01*
X141358152Y-64892857D02*
X141453390Y-64940476D01*
X141453390Y-64940476D02*
X141501009Y-64988095D01*
X141501009Y-64988095D02*
X141548628Y-65083333D01*
X141548628Y-65083333D02*
X141548628Y-65464285D01*
X142024819Y-63940476D02*
X142024819Y-64511904D01*
X142024819Y-64226190D02*
X141024819Y-64226190D01*
X141024819Y-64226190D02*
X141167676Y-64321428D01*
X141167676Y-64321428D02*
X141262914Y-64416666D01*
X141262914Y-64416666D02*
X141310533Y-64511904D01*
X141024819Y-63035714D02*
X141024819Y-63511904D01*
X141024819Y-63511904D02*
X141501009Y-63559523D01*
X141501009Y-63559523D02*
X141453390Y-63511904D01*
X141453390Y-63511904D02*
X141405771Y-63416666D01*
X141405771Y-63416666D02*
X141405771Y-63178571D01*
X141405771Y-63178571D02*
X141453390Y-63083333D01*
X141453390Y-63083333D02*
X141501009Y-63035714D01*
X141501009Y-63035714D02*
X141596247Y-62988095D01*
X141596247Y-62988095D02*
X141834342Y-62988095D01*
X141834342Y-62988095D02*
X141929580Y-63035714D01*
X141929580Y-63035714D02*
X141977200Y-63083333D01*
X141977200Y-63083333D02*
X142024819Y-63178571D01*
X142024819Y-63178571D02*
X142024819Y-63416666D01*
X142024819Y-63416666D02*
X141977200Y-63511904D01*
X141977200Y-63511904D02*
X141929580Y-63559523D01*
X108359580Y-100392857D02*
X108407200Y-100440476D01*
X108407200Y-100440476D02*
X108454819Y-100583333D01*
X108454819Y-100583333D02*
X108454819Y-100678571D01*
X108454819Y-100678571D02*
X108407200Y-100821428D01*
X108407200Y-100821428D02*
X108311961Y-100916666D01*
X108311961Y-100916666D02*
X108216723Y-100964285D01*
X108216723Y-100964285D02*
X108026247Y-101011904D01*
X108026247Y-101011904D02*
X107883390Y-101011904D01*
X107883390Y-101011904D02*
X107692914Y-100964285D01*
X107692914Y-100964285D02*
X107597676Y-100916666D01*
X107597676Y-100916666D02*
X107502438Y-100821428D01*
X107502438Y-100821428D02*
X107454819Y-100678571D01*
X107454819Y-100678571D02*
X107454819Y-100583333D01*
X107454819Y-100583333D02*
X107502438Y-100440476D01*
X107502438Y-100440476D02*
X107550057Y-100392857D01*
X108454819Y-99440476D02*
X108454819Y-100011904D01*
X108454819Y-99726190D02*
X107454819Y-99726190D01*
X107454819Y-99726190D02*
X107597676Y-99821428D01*
X107597676Y-99821428D02*
X107692914Y-99916666D01*
X107692914Y-99916666D02*
X107740533Y-100011904D01*
X107454819Y-99107142D02*
X107454819Y-98488095D01*
X107454819Y-98488095D02*
X107835771Y-98821428D01*
X107835771Y-98821428D02*
X107835771Y-98678571D01*
X107835771Y-98678571D02*
X107883390Y-98583333D01*
X107883390Y-98583333D02*
X107931009Y-98535714D01*
X107931009Y-98535714D02*
X108026247Y-98488095D01*
X108026247Y-98488095D02*
X108264342Y-98488095D01*
X108264342Y-98488095D02*
X108359580Y-98535714D01*
X108359580Y-98535714D02*
X108407200Y-98583333D01*
X108407200Y-98583333D02*
X108454819Y-98678571D01*
X108454819Y-98678571D02*
X108454819Y-98964285D01*
X108454819Y-98964285D02*
X108407200Y-99059523D01*
X108407200Y-99059523D02*
X108359580Y-99107142D01*
X101454819Y-69238094D02*
X100454819Y-69238094D01*
X100454819Y-69238094D02*
X100454819Y-68999999D01*
X100454819Y-68999999D02*
X100502438Y-68857142D01*
X100502438Y-68857142D02*
X100597676Y-68761904D01*
X100597676Y-68761904D02*
X100692914Y-68714285D01*
X100692914Y-68714285D02*
X100883390Y-68666666D01*
X100883390Y-68666666D02*
X101026247Y-68666666D01*
X101026247Y-68666666D02*
X101216723Y-68714285D01*
X101216723Y-68714285D02*
X101311961Y-68761904D01*
X101311961Y-68761904D02*
X101407200Y-68857142D01*
X101407200Y-68857142D02*
X101454819Y-68999999D01*
X101454819Y-68999999D02*
X101454819Y-69238094D01*
X101454819Y-67714285D02*
X101454819Y-68285713D01*
X101454819Y-67999999D02*
X100454819Y-67999999D01*
X100454819Y-67999999D02*
X100597676Y-68095237D01*
X100597676Y-68095237D02*
X100692914Y-68190475D01*
X100692914Y-68190475D02*
X100740533Y-68285713D01*
X114238095Y-119554819D02*
X114238095Y-120364342D01*
X114238095Y-120364342D02*
X114285714Y-120459580D01*
X114285714Y-120459580D02*
X114333333Y-120507200D01*
X114333333Y-120507200D02*
X114428571Y-120554819D01*
X114428571Y-120554819D02*
X114619047Y-120554819D01*
X114619047Y-120554819D02*
X114714285Y-120507200D01*
X114714285Y-120507200D02*
X114761904Y-120459580D01*
X114761904Y-120459580D02*
X114809523Y-120364342D01*
X114809523Y-120364342D02*
X114809523Y-119554819D01*
X115190476Y-119554819D02*
X115809523Y-119554819D01*
X115809523Y-119554819D02*
X115476190Y-119935771D01*
X115476190Y-119935771D02*
X115619047Y-119935771D01*
X115619047Y-119935771D02*
X115714285Y-119983390D01*
X115714285Y-119983390D02*
X115761904Y-120031009D01*
X115761904Y-120031009D02*
X115809523Y-120126247D01*
X115809523Y-120126247D02*
X115809523Y-120364342D01*
X115809523Y-120364342D02*
X115761904Y-120459580D01*
X115761904Y-120459580D02*
X115714285Y-120507200D01*
X115714285Y-120507200D02*
X115619047Y-120554819D01*
X115619047Y-120554819D02*
X115333333Y-120554819D01*
X115333333Y-120554819D02*
X115238095Y-120507200D01*
X115238095Y-120507200D02*
X115190476Y-120459580D01*
X99454819Y-116666666D02*
X98978628Y-116999999D01*
X99454819Y-117238094D02*
X98454819Y-117238094D01*
X98454819Y-117238094D02*
X98454819Y-116857142D01*
X98454819Y-116857142D02*
X98502438Y-116761904D01*
X98502438Y-116761904D02*
X98550057Y-116714285D01*
X98550057Y-116714285D02*
X98645295Y-116666666D01*
X98645295Y-116666666D02*
X98788152Y-116666666D01*
X98788152Y-116666666D02*
X98883390Y-116714285D01*
X98883390Y-116714285D02*
X98931009Y-116761904D01*
X98931009Y-116761904D02*
X98978628Y-116857142D01*
X98978628Y-116857142D02*
X98978628Y-117238094D01*
X98454819Y-115809523D02*
X98454819Y-115999999D01*
X98454819Y-115999999D02*
X98502438Y-116095237D01*
X98502438Y-116095237D02*
X98550057Y-116142856D01*
X98550057Y-116142856D02*
X98692914Y-116238094D01*
X98692914Y-116238094D02*
X98883390Y-116285713D01*
X98883390Y-116285713D02*
X99264342Y-116285713D01*
X99264342Y-116285713D02*
X99359580Y-116238094D01*
X99359580Y-116238094D02*
X99407200Y-116190475D01*
X99407200Y-116190475D02*
X99454819Y-116095237D01*
X99454819Y-116095237D02*
X99454819Y-115904761D01*
X99454819Y-115904761D02*
X99407200Y-115809523D01*
X99407200Y-115809523D02*
X99359580Y-115761904D01*
X99359580Y-115761904D02*
X99264342Y-115714285D01*
X99264342Y-115714285D02*
X99026247Y-115714285D01*
X99026247Y-115714285D02*
X98931009Y-115761904D01*
X98931009Y-115761904D02*
X98883390Y-115809523D01*
X98883390Y-115809523D02*
X98835771Y-115904761D01*
X98835771Y-115904761D02*
X98835771Y-116095237D01*
X98835771Y-116095237D02*
X98883390Y-116190475D01*
X98883390Y-116190475D02*
X98931009Y-116238094D01*
X98931009Y-116238094D02*
X99026247Y-116285713D01*
X152839819Y-110436904D02*
X153649342Y-110436904D01*
X153649342Y-110436904D02*
X153744580Y-110389285D01*
X153744580Y-110389285D02*
X153792200Y-110341666D01*
X153792200Y-110341666D02*
X153839819Y-110246428D01*
X153839819Y-110246428D02*
X153839819Y-110055952D01*
X153839819Y-110055952D02*
X153792200Y-109960714D01*
X153792200Y-109960714D02*
X153744580Y-109913095D01*
X153744580Y-109913095D02*
X153649342Y-109865476D01*
X153649342Y-109865476D02*
X152839819Y-109865476D01*
X152839819Y-108913095D02*
X152839819Y-109389285D01*
X152839819Y-109389285D02*
X153316009Y-109436904D01*
X153316009Y-109436904D02*
X153268390Y-109389285D01*
X153268390Y-109389285D02*
X153220771Y-109294047D01*
X153220771Y-109294047D02*
X153220771Y-109055952D01*
X153220771Y-109055952D02*
X153268390Y-108960714D01*
X153268390Y-108960714D02*
X153316009Y-108913095D01*
X153316009Y-108913095D02*
X153411247Y-108865476D01*
X153411247Y-108865476D02*
X153649342Y-108865476D01*
X153649342Y-108865476D02*
X153744580Y-108913095D01*
X153744580Y-108913095D02*
X153792200Y-108960714D01*
X153792200Y-108960714D02*
X153839819Y-109055952D01*
X153839819Y-109055952D02*
X153839819Y-109294047D01*
X153839819Y-109294047D02*
X153792200Y-109389285D01*
X153792200Y-109389285D02*
X153744580Y-109436904D01*
X100238095Y-114454819D02*
X100238095Y-115264342D01*
X100238095Y-115264342D02*
X100285714Y-115359580D01*
X100285714Y-115359580D02*
X100333333Y-115407200D01*
X100333333Y-115407200D02*
X100428571Y-115454819D01*
X100428571Y-115454819D02*
X100619047Y-115454819D01*
X100619047Y-115454819D02*
X100714285Y-115407200D01*
X100714285Y-115407200D02*
X100761904Y-115359580D01*
X100761904Y-115359580D02*
X100809523Y-115264342D01*
X100809523Y-115264342D02*
X100809523Y-114454819D01*
X101238095Y-114550057D02*
X101285714Y-114502438D01*
X101285714Y-114502438D02*
X101380952Y-114454819D01*
X101380952Y-114454819D02*
X101619047Y-114454819D01*
X101619047Y-114454819D02*
X101714285Y-114502438D01*
X101714285Y-114502438D02*
X101761904Y-114550057D01*
X101761904Y-114550057D02*
X101809523Y-114645295D01*
X101809523Y-114645295D02*
X101809523Y-114740533D01*
X101809523Y-114740533D02*
X101761904Y-114883390D01*
X101761904Y-114883390D02*
X101190476Y-115454819D01*
X101190476Y-115454819D02*
X101809523Y-115454819D01*
X123359580Y-70892857D02*
X123407200Y-70940476D01*
X123407200Y-70940476D02*
X123454819Y-71083333D01*
X123454819Y-71083333D02*
X123454819Y-71178571D01*
X123454819Y-71178571D02*
X123407200Y-71321428D01*
X123407200Y-71321428D02*
X123311961Y-71416666D01*
X123311961Y-71416666D02*
X123216723Y-71464285D01*
X123216723Y-71464285D02*
X123026247Y-71511904D01*
X123026247Y-71511904D02*
X122883390Y-71511904D01*
X122883390Y-71511904D02*
X122692914Y-71464285D01*
X122692914Y-71464285D02*
X122597676Y-71416666D01*
X122597676Y-71416666D02*
X122502438Y-71321428D01*
X122502438Y-71321428D02*
X122454819Y-71178571D01*
X122454819Y-71178571D02*
X122454819Y-71083333D01*
X122454819Y-71083333D02*
X122502438Y-70940476D01*
X122502438Y-70940476D02*
X122550057Y-70892857D01*
X123454819Y-69940476D02*
X123454819Y-70511904D01*
X123454819Y-70226190D02*
X122454819Y-70226190D01*
X122454819Y-70226190D02*
X122597676Y-70321428D01*
X122597676Y-70321428D02*
X122692914Y-70416666D01*
X122692914Y-70416666D02*
X122740533Y-70511904D01*
X122454819Y-69321428D02*
X122454819Y-69226190D01*
X122454819Y-69226190D02*
X122502438Y-69130952D01*
X122502438Y-69130952D02*
X122550057Y-69083333D01*
X122550057Y-69083333D02*
X122645295Y-69035714D01*
X122645295Y-69035714D02*
X122835771Y-68988095D01*
X122835771Y-68988095D02*
X123073866Y-68988095D01*
X123073866Y-68988095D02*
X123264342Y-69035714D01*
X123264342Y-69035714D02*
X123359580Y-69083333D01*
X123359580Y-69083333D02*
X123407200Y-69130952D01*
X123407200Y-69130952D02*
X123454819Y-69226190D01*
X123454819Y-69226190D02*
X123454819Y-69321428D01*
X123454819Y-69321428D02*
X123407200Y-69416666D01*
X123407200Y-69416666D02*
X123359580Y-69464285D01*
X123359580Y-69464285D02*
X123264342Y-69511904D01*
X123264342Y-69511904D02*
X123073866Y-69559523D01*
X123073866Y-69559523D02*
X122835771Y-69559523D01*
X122835771Y-69559523D02*
X122645295Y-69511904D01*
X122645295Y-69511904D02*
X122550057Y-69464285D01*
X122550057Y-69464285D02*
X122502438Y-69416666D01*
X122502438Y-69416666D02*
X122454819Y-69321428D01*
X127104819Y-44142857D02*
X126628628Y-44476190D01*
X127104819Y-44714285D02*
X126104819Y-44714285D01*
X126104819Y-44714285D02*
X126104819Y-44333333D01*
X126104819Y-44333333D02*
X126152438Y-44238095D01*
X126152438Y-44238095D02*
X126200057Y-44190476D01*
X126200057Y-44190476D02*
X126295295Y-44142857D01*
X126295295Y-44142857D02*
X126438152Y-44142857D01*
X126438152Y-44142857D02*
X126533390Y-44190476D01*
X126533390Y-44190476D02*
X126581009Y-44238095D01*
X126581009Y-44238095D02*
X126628628Y-44333333D01*
X126628628Y-44333333D02*
X126628628Y-44714285D01*
X126200057Y-43761904D02*
X126152438Y-43714285D01*
X126152438Y-43714285D02*
X126104819Y-43619047D01*
X126104819Y-43619047D02*
X126104819Y-43380952D01*
X126104819Y-43380952D02*
X126152438Y-43285714D01*
X126152438Y-43285714D02*
X126200057Y-43238095D01*
X126200057Y-43238095D02*
X126295295Y-43190476D01*
X126295295Y-43190476D02*
X126390533Y-43190476D01*
X126390533Y-43190476D02*
X126533390Y-43238095D01*
X126533390Y-43238095D02*
X127104819Y-43809523D01*
X127104819Y-43809523D02*
X127104819Y-43190476D01*
X126200057Y-42809523D02*
X126152438Y-42761904D01*
X126152438Y-42761904D02*
X126104819Y-42666666D01*
X126104819Y-42666666D02*
X126104819Y-42428571D01*
X126104819Y-42428571D02*
X126152438Y-42333333D01*
X126152438Y-42333333D02*
X126200057Y-42285714D01*
X126200057Y-42285714D02*
X126295295Y-42238095D01*
X126295295Y-42238095D02*
X126390533Y-42238095D01*
X126390533Y-42238095D02*
X126533390Y-42285714D01*
X126533390Y-42285714D02*
X127104819Y-42857142D01*
X127104819Y-42857142D02*
X127104819Y-42238095D01*
X100238095Y-92454819D02*
X100238095Y-93264342D01*
X100238095Y-93264342D02*
X100285714Y-93359580D01*
X100285714Y-93359580D02*
X100333333Y-93407200D01*
X100333333Y-93407200D02*
X100428571Y-93454819D01*
X100428571Y-93454819D02*
X100619047Y-93454819D01*
X100619047Y-93454819D02*
X100714285Y-93407200D01*
X100714285Y-93407200D02*
X100761904Y-93359580D01*
X100761904Y-93359580D02*
X100809523Y-93264342D01*
X100809523Y-93264342D02*
X100809523Y-92454819D01*
X101809523Y-93454819D02*
X101238095Y-93454819D01*
X101523809Y-93454819D02*
X101523809Y-92454819D01*
X101523809Y-92454819D02*
X101428571Y-92597676D01*
X101428571Y-92597676D02*
X101333333Y-92692914D01*
X101333333Y-92692914D02*
X101238095Y-92740533D01*
X107859580Y-92666666D02*
X107907200Y-92714285D01*
X107907200Y-92714285D02*
X107954819Y-92857142D01*
X107954819Y-92857142D02*
X107954819Y-92952380D01*
X107954819Y-92952380D02*
X107907200Y-93095237D01*
X107907200Y-93095237D02*
X107811961Y-93190475D01*
X107811961Y-93190475D02*
X107716723Y-93238094D01*
X107716723Y-93238094D02*
X107526247Y-93285713D01*
X107526247Y-93285713D02*
X107383390Y-93285713D01*
X107383390Y-93285713D02*
X107192914Y-93238094D01*
X107192914Y-93238094D02*
X107097676Y-93190475D01*
X107097676Y-93190475D02*
X107002438Y-93095237D01*
X107002438Y-93095237D02*
X106954819Y-92952380D01*
X106954819Y-92952380D02*
X106954819Y-92857142D01*
X106954819Y-92857142D02*
X107002438Y-92714285D01*
X107002438Y-92714285D02*
X107050057Y-92666666D01*
X106954819Y-92333332D02*
X106954819Y-91714285D01*
X106954819Y-91714285D02*
X107335771Y-92047618D01*
X107335771Y-92047618D02*
X107335771Y-91904761D01*
X107335771Y-91904761D02*
X107383390Y-91809523D01*
X107383390Y-91809523D02*
X107431009Y-91761904D01*
X107431009Y-91761904D02*
X107526247Y-91714285D01*
X107526247Y-91714285D02*
X107764342Y-91714285D01*
X107764342Y-91714285D02*
X107859580Y-91761904D01*
X107859580Y-91761904D02*
X107907200Y-91809523D01*
X107907200Y-91809523D02*
X107954819Y-91904761D01*
X107954819Y-91904761D02*
X107954819Y-92190475D01*
X107954819Y-92190475D02*
X107907200Y-92285713D01*
X107907200Y-92285713D02*
X107859580Y-92333332D01*
X119083333Y-76679580D02*
X119035714Y-76727200D01*
X119035714Y-76727200D02*
X118892857Y-76774819D01*
X118892857Y-76774819D02*
X118797619Y-76774819D01*
X118797619Y-76774819D02*
X118654762Y-76727200D01*
X118654762Y-76727200D02*
X118559524Y-76631961D01*
X118559524Y-76631961D02*
X118511905Y-76536723D01*
X118511905Y-76536723D02*
X118464286Y-76346247D01*
X118464286Y-76346247D02*
X118464286Y-76203390D01*
X118464286Y-76203390D02*
X118511905Y-76012914D01*
X118511905Y-76012914D02*
X118559524Y-75917676D01*
X118559524Y-75917676D02*
X118654762Y-75822438D01*
X118654762Y-75822438D02*
X118797619Y-75774819D01*
X118797619Y-75774819D02*
X118892857Y-75774819D01*
X118892857Y-75774819D02*
X119035714Y-75822438D01*
X119035714Y-75822438D02*
X119083333Y-75870057D01*
X119416667Y-75774819D02*
X120083333Y-75774819D01*
X120083333Y-75774819D02*
X119654762Y-76774819D01*
X134359580Y-74392857D02*
X134407200Y-74440476D01*
X134407200Y-74440476D02*
X134454819Y-74583333D01*
X134454819Y-74583333D02*
X134454819Y-74678571D01*
X134454819Y-74678571D02*
X134407200Y-74821428D01*
X134407200Y-74821428D02*
X134311961Y-74916666D01*
X134311961Y-74916666D02*
X134216723Y-74964285D01*
X134216723Y-74964285D02*
X134026247Y-75011904D01*
X134026247Y-75011904D02*
X133883390Y-75011904D01*
X133883390Y-75011904D02*
X133692914Y-74964285D01*
X133692914Y-74964285D02*
X133597676Y-74916666D01*
X133597676Y-74916666D02*
X133502438Y-74821428D01*
X133502438Y-74821428D02*
X133454819Y-74678571D01*
X133454819Y-74678571D02*
X133454819Y-74583333D01*
X133454819Y-74583333D02*
X133502438Y-74440476D01*
X133502438Y-74440476D02*
X133550057Y-74392857D01*
X134454819Y-73440476D02*
X134454819Y-74011904D01*
X134454819Y-73726190D02*
X133454819Y-73726190D01*
X133454819Y-73726190D02*
X133597676Y-73821428D01*
X133597676Y-73821428D02*
X133692914Y-73916666D01*
X133692914Y-73916666D02*
X133740533Y-74011904D01*
X133454819Y-73107142D02*
X133454819Y-72440476D01*
X133454819Y-72440476D02*
X134454819Y-72869047D01*
X113559580Y-105666666D02*
X113607200Y-105714285D01*
X113607200Y-105714285D02*
X113654819Y-105857142D01*
X113654819Y-105857142D02*
X113654819Y-105952380D01*
X113654819Y-105952380D02*
X113607200Y-106095237D01*
X113607200Y-106095237D02*
X113511961Y-106190475D01*
X113511961Y-106190475D02*
X113416723Y-106238094D01*
X113416723Y-106238094D02*
X113226247Y-106285713D01*
X113226247Y-106285713D02*
X113083390Y-106285713D01*
X113083390Y-106285713D02*
X112892914Y-106238094D01*
X112892914Y-106238094D02*
X112797676Y-106190475D01*
X112797676Y-106190475D02*
X112702438Y-106095237D01*
X112702438Y-106095237D02*
X112654819Y-105952380D01*
X112654819Y-105952380D02*
X112654819Y-105857142D01*
X112654819Y-105857142D02*
X112702438Y-105714285D01*
X112702438Y-105714285D02*
X112750057Y-105666666D01*
X112654819Y-104809523D02*
X112654819Y-104999999D01*
X112654819Y-104999999D02*
X112702438Y-105095237D01*
X112702438Y-105095237D02*
X112750057Y-105142856D01*
X112750057Y-105142856D02*
X112892914Y-105238094D01*
X112892914Y-105238094D02*
X113083390Y-105285713D01*
X113083390Y-105285713D02*
X113464342Y-105285713D01*
X113464342Y-105285713D02*
X113559580Y-105238094D01*
X113559580Y-105238094D02*
X113607200Y-105190475D01*
X113607200Y-105190475D02*
X113654819Y-105095237D01*
X113654819Y-105095237D02*
X113654819Y-104904761D01*
X113654819Y-104904761D02*
X113607200Y-104809523D01*
X113607200Y-104809523D02*
X113559580Y-104761904D01*
X113559580Y-104761904D02*
X113464342Y-104714285D01*
X113464342Y-104714285D02*
X113226247Y-104714285D01*
X113226247Y-104714285D02*
X113131009Y-104761904D01*
X113131009Y-104761904D02*
X113083390Y-104809523D01*
X113083390Y-104809523D02*
X113035771Y-104904761D01*
X113035771Y-104904761D02*
X113035771Y-105095237D01*
X113035771Y-105095237D02*
X113083390Y-105190475D01*
X113083390Y-105190475D02*
X113131009Y-105238094D01*
X113131009Y-105238094D02*
X113226247Y-105285713D01*
X154869047Y-47681009D02*
X155011904Y-47728628D01*
X155011904Y-47728628D02*
X155059523Y-47776247D01*
X155059523Y-47776247D02*
X155107142Y-47871485D01*
X155107142Y-47871485D02*
X155107142Y-48014342D01*
X155107142Y-48014342D02*
X155059523Y-48109580D01*
X155059523Y-48109580D02*
X155011904Y-48157200D01*
X155011904Y-48157200D02*
X154916666Y-48204819D01*
X154916666Y-48204819D02*
X154535714Y-48204819D01*
X154535714Y-48204819D02*
X154535714Y-47204819D01*
X154535714Y-47204819D02*
X154869047Y-47204819D01*
X154869047Y-47204819D02*
X154964285Y-47252438D01*
X154964285Y-47252438D02*
X155011904Y-47300057D01*
X155011904Y-47300057D02*
X155059523Y-47395295D01*
X155059523Y-47395295D02*
X155059523Y-47490533D01*
X155059523Y-47490533D02*
X155011904Y-47585771D01*
X155011904Y-47585771D02*
X154964285Y-47633390D01*
X154964285Y-47633390D02*
X154869047Y-47681009D01*
X154869047Y-47681009D02*
X154535714Y-47681009D01*
X155440476Y-47204819D02*
X156107142Y-47204819D01*
X156107142Y-47204819D02*
X155440476Y-48204819D01*
X155440476Y-48204819D02*
X156107142Y-48204819D01*
X157011904Y-48204819D02*
X156440476Y-48204819D01*
X156726190Y-48204819D02*
X156726190Y-47204819D01*
X156726190Y-47204819D02*
X156630952Y-47347676D01*
X156630952Y-47347676D02*
X156535714Y-47442914D01*
X156535714Y-47442914D02*
X156440476Y-47490533D01*
X159869048Y-41523866D02*
X160630953Y-41523866D01*
X160069048Y-53623866D02*
X160830953Y-53623866D01*
X160450000Y-54004819D02*
X160450000Y-53242914D01*
X105333333Y-84024819D02*
X105000000Y-83548628D01*
X104761905Y-84024819D02*
X104761905Y-83024819D01*
X104761905Y-83024819D02*
X105142857Y-83024819D01*
X105142857Y-83024819D02*
X105238095Y-83072438D01*
X105238095Y-83072438D02*
X105285714Y-83120057D01*
X105285714Y-83120057D02*
X105333333Y-83215295D01*
X105333333Y-83215295D02*
X105333333Y-83358152D01*
X105333333Y-83358152D02*
X105285714Y-83453390D01*
X105285714Y-83453390D02*
X105238095Y-83501009D01*
X105238095Y-83501009D02*
X105142857Y-83548628D01*
X105142857Y-83548628D02*
X104761905Y-83548628D01*
X105714286Y-83120057D02*
X105761905Y-83072438D01*
X105761905Y-83072438D02*
X105857143Y-83024819D01*
X105857143Y-83024819D02*
X106095238Y-83024819D01*
X106095238Y-83024819D02*
X106190476Y-83072438D01*
X106190476Y-83072438D02*
X106238095Y-83120057D01*
X106238095Y-83120057D02*
X106285714Y-83215295D01*
X106285714Y-83215295D02*
X106285714Y-83310533D01*
X106285714Y-83310533D02*
X106238095Y-83453390D01*
X106238095Y-83453390D02*
X105666667Y-84024819D01*
X105666667Y-84024819D02*
X106285714Y-84024819D01*
D11*
X97416667Y-137909800D02*
X97559524Y-137957419D01*
X97559524Y-137957419D02*
X97797619Y-137957419D01*
X97797619Y-137957419D02*
X97892857Y-137909800D01*
X97892857Y-137909800D02*
X97940476Y-137862180D01*
X97940476Y-137862180D02*
X97988095Y-137766942D01*
X97988095Y-137766942D02*
X97988095Y-137671704D01*
X97988095Y-137671704D02*
X97940476Y-137576466D01*
X97940476Y-137576466D02*
X97892857Y-137528847D01*
X97892857Y-137528847D02*
X97797619Y-137481228D01*
X97797619Y-137481228D02*
X97607143Y-137433609D01*
X97607143Y-137433609D02*
X97511905Y-137385990D01*
X97511905Y-137385990D02*
X97464286Y-137338371D01*
X97464286Y-137338371D02*
X97416667Y-137243133D01*
X97416667Y-137243133D02*
X97416667Y-137147895D01*
X97416667Y-137147895D02*
X97464286Y-137052657D01*
X97464286Y-137052657D02*
X97511905Y-137005038D01*
X97511905Y-137005038D02*
X97607143Y-136957419D01*
X97607143Y-136957419D02*
X97845238Y-136957419D01*
X97845238Y-136957419D02*
X97988095Y-137005038D01*
X98321429Y-136957419D02*
X98559524Y-137957419D01*
X98559524Y-137957419D02*
X98750000Y-137243133D01*
X98750000Y-137243133D02*
X98940476Y-137957419D01*
X98940476Y-137957419D02*
X99178572Y-136957419D01*
X99464286Y-136957419D02*
X100083333Y-136957419D01*
X100083333Y-136957419D02*
X99750000Y-137338371D01*
X99750000Y-137338371D02*
X99892857Y-137338371D01*
X99892857Y-137338371D02*
X99988095Y-137385990D01*
X99988095Y-137385990D02*
X100035714Y-137433609D01*
X100035714Y-137433609D02*
X100083333Y-137528847D01*
X100083333Y-137528847D02*
X100083333Y-137766942D01*
X100083333Y-137766942D02*
X100035714Y-137862180D01*
X100035714Y-137862180D02*
X99988095Y-137909800D01*
X99988095Y-137909800D02*
X99892857Y-137957419D01*
X99892857Y-137957419D02*
X99607143Y-137957419D01*
X99607143Y-137957419D02*
X99511905Y-137909800D01*
X99511905Y-137909800D02*
X99464286Y-137862180D01*
D10*
X117083333Y-117524819D02*
X116750000Y-117048628D01*
X116511905Y-117524819D02*
X116511905Y-116524819D01*
X116511905Y-116524819D02*
X116892857Y-116524819D01*
X116892857Y-116524819D02*
X116988095Y-116572438D01*
X116988095Y-116572438D02*
X117035714Y-116620057D01*
X117035714Y-116620057D02*
X117083333Y-116715295D01*
X117083333Y-116715295D02*
X117083333Y-116858152D01*
X117083333Y-116858152D02*
X117035714Y-116953390D01*
X117035714Y-116953390D02*
X116988095Y-117001009D01*
X116988095Y-117001009D02*
X116892857Y-117048628D01*
X116892857Y-117048628D02*
X116511905Y-117048628D01*
X117416667Y-116524819D02*
X118083333Y-116524819D01*
X118083333Y-116524819D02*
X117654762Y-117524819D01*
X89357142Y-42609580D02*
X89309523Y-42657200D01*
X89309523Y-42657200D02*
X89166666Y-42704819D01*
X89166666Y-42704819D02*
X89071428Y-42704819D01*
X89071428Y-42704819D02*
X88928571Y-42657200D01*
X88928571Y-42657200D02*
X88833333Y-42561961D01*
X88833333Y-42561961D02*
X88785714Y-42466723D01*
X88785714Y-42466723D02*
X88738095Y-42276247D01*
X88738095Y-42276247D02*
X88738095Y-42133390D01*
X88738095Y-42133390D02*
X88785714Y-41942914D01*
X88785714Y-41942914D02*
X88833333Y-41847676D01*
X88833333Y-41847676D02*
X88928571Y-41752438D01*
X88928571Y-41752438D02*
X89071428Y-41704819D01*
X89071428Y-41704819D02*
X89166666Y-41704819D01*
X89166666Y-41704819D02*
X89309523Y-41752438D01*
X89309523Y-41752438D02*
X89357142Y-41800057D01*
X89738095Y-41800057D02*
X89785714Y-41752438D01*
X89785714Y-41752438D02*
X89880952Y-41704819D01*
X89880952Y-41704819D02*
X90119047Y-41704819D01*
X90119047Y-41704819D02*
X90214285Y-41752438D01*
X90214285Y-41752438D02*
X90261904Y-41800057D01*
X90261904Y-41800057D02*
X90309523Y-41895295D01*
X90309523Y-41895295D02*
X90309523Y-41990533D01*
X90309523Y-41990533D02*
X90261904Y-42133390D01*
X90261904Y-42133390D02*
X89690476Y-42704819D01*
X89690476Y-42704819D02*
X90309523Y-42704819D01*
X90690476Y-41800057D02*
X90738095Y-41752438D01*
X90738095Y-41752438D02*
X90833333Y-41704819D01*
X90833333Y-41704819D02*
X91071428Y-41704819D01*
X91071428Y-41704819D02*
X91166666Y-41752438D01*
X91166666Y-41752438D02*
X91214285Y-41800057D01*
X91214285Y-41800057D02*
X91261904Y-41895295D01*
X91261904Y-41895295D02*
X91261904Y-41990533D01*
X91261904Y-41990533D02*
X91214285Y-42133390D01*
X91214285Y-42133390D02*
X90642857Y-42704819D01*
X90642857Y-42704819D02*
X91261904Y-42704819D01*
X89357142Y-44704819D02*
X89023809Y-44228628D01*
X88785714Y-44704819D02*
X88785714Y-43704819D01*
X88785714Y-43704819D02*
X89166666Y-43704819D01*
X89166666Y-43704819D02*
X89261904Y-43752438D01*
X89261904Y-43752438D02*
X89309523Y-43800057D01*
X89309523Y-43800057D02*
X89357142Y-43895295D01*
X89357142Y-43895295D02*
X89357142Y-44038152D01*
X89357142Y-44038152D02*
X89309523Y-44133390D01*
X89309523Y-44133390D02*
X89261904Y-44181009D01*
X89261904Y-44181009D02*
X89166666Y-44228628D01*
X89166666Y-44228628D02*
X88785714Y-44228628D01*
X90309523Y-44704819D02*
X89738095Y-44704819D01*
X90023809Y-44704819D02*
X90023809Y-43704819D01*
X90023809Y-43704819D02*
X89928571Y-43847676D01*
X89928571Y-43847676D02*
X89833333Y-43942914D01*
X89833333Y-43942914D02*
X89738095Y-43990533D01*
X90785714Y-44704819D02*
X90976190Y-44704819D01*
X90976190Y-44704819D02*
X91071428Y-44657200D01*
X91071428Y-44657200D02*
X91119047Y-44609580D01*
X91119047Y-44609580D02*
X91214285Y-44466723D01*
X91214285Y-44466723D02*
X91261904Y-44276247D01*
X91261904Y-44276247D02*
X91261904Y-43895295D01*
X91261904Y-43895295D02*
X91214285Y-43800057D01*
X91214285Y-43800057D02*
X91166666Y-43752438D01*
X91166666Y-43752438D02*
X91071428Y-43704819D01*
X91071428Y-43704819D02*
X90880952Y-43704819D01*
X90880952Y-43704819D02*
X90785714Y-43752438D01*
X90785714Y-43752438D02*
X90738095Y-43800057D01*
X90738095Y-43800057D02*
X90690476Y-43895295D01*
X90690476Y-43895295D02*
X90690476Y-44133390D01*
X90690476Y-44133390D02*
X90738095Y-44228628D01*
X90738095Y-44228628D02*
X90785714Y-44276247D01*
X90785714Y-44276247D02*
X90880952Y-44323866D01*
X90880952Y-44323866D02*
X91071428Y-44323866D01*
X91071428Y-44323866D02*
X91166666Y-44276247D01*
X91166666Y-44276247D02*
X91214285Y-44228628D01*
X91214285Y-44228628D02*
X91261904Y-44133390D01*
X152381008Y-87285715D02*
X152428627Y-87142858D01*
X152428627Y-87142858D02*
X152476246Y-87095239D01*
X152476246Y-87095239D02*
X152571484Y-87047620D01*
X152571484Y-87047620D02*
X152714341Y-87047620D01*
X152714341Y-87047620D02*
X152809579Y-87095239D01*
X152809579Y-87095239D02*
X152857199Y-87142858D01*
X152857199Y-87142858D02*
X152904818Y-87238096D01*
X152904818Y-87238096D02*
X152904818Y-87619048D01*
X152904818Y-87619048D02*
X151904818Y-87619048D01*
X151904818Y-87619048D02*
X151904818Y-87285715D01*
X151904818Y-87285715D02*
X151952437Y-87190477D01*
X151952437Y-87190477D02*
X152000056Y-87142858D01*
X152000056Y-87142858D02*
X152095294Y-87095239D01*
X152095294Y-87095239D02*
X152190532Y-87095239D01*
X152190532Y-87095239D02*
X152285770Y-87142858D01*
X152285770Y-87142858D02*
X152333389Y-87190477D01*
X152333389Y-87190477D02*
X152381008Y-87285715D01*
X152381008Y-87285715D02*
X152381008Y-87619048D01*
X151904818Y-86761905D02*
X151904818Y-86190477D01*
X152904818Y-86476191D02*
X151904818Y-86476191D01*
X152000056Y-85904762D02*
X151952437Y-85857143D01*
X151952437Y-85857143D02*
X151904818Y-85761905D01*
X151904818Y-85761905D02*
X151904818Y-85523810D01*
X151904818Y-85523810D02*
X151952437Y-85428572D01*
X151952437Y-85428572D02*
X152000056Y-85380953D01*
X152000056Y-85380953D02*
X152095294Y-85333334D01*
X152095294Y-85333334D02*
X152190532Y-85333334D01*
X152190532Y-85333334D02*
X152333389Y-85380953D01*
X152333389Y-85380953D02*
X152904818Y-85952381D01*
X152904818Y-85952381D02*
X152904818Y-85333334D01*
X156864699Y-84321429D02*
X156864699Y-83178572D01*
X157436127Y-83750000D02*
X156293270Y-83750000D01*
X120454819Y-70916666D02*
X120454819Y-71392856D01*
X120454819Y-71392856D02*
X119454819Y-71392856D01*
X119454819Y-70678570D02*
X119454819Y-70059523D01*
X119454819Y-70059523D02*
X119835771Y-70392856D01*
X119835771Y-70392856D02*
X119835771Y-70249999D01*
X119835771Y-70249999D02*
X119883390Y-70154761D01*
X119883390Y-70154761D02*
X119931009Y-70107142D01*
X119931009Y-70107142D02*
X120026247Y-70059523D01*
X120026247Y-70059523D02*
X120264342Y-70059523D01*
X120264342Y-70059523D02*
X120359580Y-70107142D01*
X120359580Y-70107142D02*
X120407200Y-70154761D01*
X120407200Y-70154761D02*
X120454819Y-70249999D01*
X120454819Y-70249999D02*
X120454819Y-70535713D01*
X120454819Y-70535713D02*
X120407200Y-70630951D01*
X120407200Y-70630951D02*
X120359580Y-70678570D01*
X101261905Y-101704819D02*
X101261905Y-100704819D01*
X101261905Y-100704819D02*
X101500000Y-100704819D01*
X101500000Y-100704819D02*
X101642857Y-100752438D01*
X101642857Y-100752438D02*
X101738095Y-100847676D01*
X101738095Y-100847676D02*
X101785714Y-100942914D01*
X101785714Y-100942914D02*
X101833333Y-101133390D01*
X101833333Y-101133390D02*
X101833333Y-101276247D01*
X101833333Y-101276247D02*
X101785714Y-101466723D01*
X101785714Y-101466723D02*
X101738095Y-101561961D01*
X101738095Y-101561961D02*
X101642857Y-101657200D01*
X101642857Y-101657200D02*
X101500000Y-101704819D01*
X101500000Y-101704819D02*
X101261905Y-101704819D01*
X102214286Y-100800057D02*
X102261905Y-100752438D01*
X102261905Y-100752438D02*
X102357143Y-100704819D01*
X102357143Y-100704819D02*
X102595238Y-100704819D01*
X102595238Y-100704819D02*
X102690476Y-100752438D01*
X102690476Y-100752438D02*
X102738095Y-100800057D01*
X102738095Y-100800057D02*
X102785714Y-100895295D01*
X102785714Y-100895295D02*
X102785714Y-100990533D01*
X102785714Y-100990533D02*
X102738095Y-101133390D01*
X102738095Y-101133390D02*
X102166667Y-101704819D01*
X102166667Y-101704819D02*
X102785714Y-101704819D01*
X107954819Y-114738094D02*
X106954819Y-114738094D01*
X106954819Y-114738094D02*
X106954819Y-114499999D01*
X106954819Y-114499999D02*
X107002438Y-114357142D01*
X107002438Y-114357142D02*
X107097676Y-114261904D01*
X107097676Y-114261904D02*
X107192914Y-114214285D01*
X107192914Y-114214285D02*
X107383390Y-114166666D01*
X107383390Y-114166666D02*
X107526247Y-114166666D01*
X107526247Y-114166666D02*
X107716723Y-114214285D01*
X107716723Y-114214285D02*
X107811961Y-114261904D01*
X107811961Y-114261904D02*
X107907200Y-114357142D01*
X107907200Y-114357142D02*
X107954819Y-114499999D01*
X107954819Y-114499999D02*
X107954819Y-114738094D01*
X106954819Y-113833332D02*
X106954819Y-113214285D01*
X106954819Y-113214285D02*
X107335771Y-113547618D01*
X107335771Y-113547618D02*
X107335771Y-113404761D01*
X107335771Y-113404761D02*
X107383390Y-113309523D01*
X107383390Y-113309523D02*
X107431009Y-113261904D01*
X107431009Y-113261904D02*
X107526247Y-113214285D01*
X107526247Y-113214285D02*
X107764342Y-113214285D01*
X107764342Y-113214285D02*
X107859580Y-113261904D01*
X107859580Y-113261904D02*
X107907200Y-113309523D01*
X107907200Y-113309523D02*
X107954819Y-113404761D01*
X107954819Y-113404761D02*
X107954819Y-113690475D01*
X107954819Y-113690475D02*
X107907200Y-113785713D01*
X107907200Y-113785713D02*
X107859580Y-113833332D01*
X73931009Y-91115714D02*
X73978628Y-90972857D01*
X73978628Y-90972857D02*
X74026247Y-90925238D01*
X74026247Y-90925238D02*
X74121485Y-90877619D01*
X74121485Y-90877619D02*
X74264342Y-90877619D01*
X74264342Y-90877619D02*
X74359580Y-90925238D01*
X74359580Y-90925238D02*
X74407200Y-90972857D01*
X74407200Y-90972857D02*
X74454819Y-91068095D01*
X74454819Y-91068095D02*
X74454819Y-91449047D01*
X74454819Y-91449047D02*
X73454819Y-91449047D01*
X73454819Y-91449047D02*
X73454819Y-91115714D01*
X73454819Y-91115714D02*
X73502438Y-91020476D01*
X73502438Y-91020476D02*
X73550057Y-90972857D01*
X73550057Y-90972857D02*
X73645295Y-90925238D01*
X73645295Y-90925238D02*
X73740533Y-90925238D01*
X73740533Y-90925238D02*
X73835771Y-90972857D01*
X73835771Y-90972857D02*
X73883390Y-91020476D01*
X73883390Y-91020476D02*
X73931009Y-91115714D01*
X73931009Y-91115714D02*
X73931009Y-91449047D01*
X73454819Y-90591904D02*
X73454819Y-90020476D01*
X74454819Y-90306190D02*
X73454819Y-90306190D01*
X74454819Y-89163333D02*
X74454819Y-89734761D01*
X74454819Y-89449047D02*
X73454819Y-89449047D01*
X73454819Y-89449047D02*
X73597676Y-89544285D01*
X73597676Y-89544285D02*
X73692914Y-89639523D01*
X73692914Y-89639523D02*
X73740533Y-89734761D01*
X97954819Y-99666666D02*
X97478628Y-99999999D01*
X97954819Y-100238094D02*
X96954819Y-100238094D01*
X96954819Y-100238094D02*
X96954819Y-99857142D01*
X96954819Y-99857142D02*
X97002438Y-99761904D01*
X97002438Y-99761904D02*
X97050057Y-99714285D01*
X97050057Y-99714285D02*
X97145295Y-99666666D01*
X97145295Y-99666666D02*
X97288152Y-99666666D01*
X97288152Y-99666666D02*
X97383390Y-99714285D01*
X97383390Y-99714285D02*
X97431009Y-99761904D01*
X97431009Y-99761904D02*
X97478628Y-99857142D01*
X97478628Y-99857142D02*
X97478628Y-100238094D01*
X96954819Y-99333332D02*
X96954819Y-98714285D01*
X96954819Y-98714285D02*
X97335771Y-99047618D01*
X97335771Y-99047618D02*
X97335771Y-98904761D01*
X97335771Y-98904761D02*
X97383390Y-98809523D01*
X97383390Y-98809523D02*
X97431009Y-98761904D01*
X97431009Y-98761904D02*
X97526247Y-98714285D01*
X97526247Y-98714285D02*
X97764342Y-98714285D01*
X97764342Y-98714285D02*
X97859580Y-98761904D01*
X97859580Y-98761904D02*
X97907200Y-98809523D01*
X97907200Y-98809523D02*
X97954819Y-98904761D01*
X97954819Y-98904761D02*
X97954819Y-99190475D01*
X97954819Y-99190475D02*
X97907200Y-99285713D01*
X97907200Y-99285713D02*
X97859580Y-99333332D01*
X117354819Y-48464285D02*
X116354819Y-48464285D01*
X116354819Y-48464285D02*
X116354819Y-48226190D01*
X116354819Y-48226190D02*
X116402438Y-48083333D01*
X116402438Y-48083333D02*
X116497676Y-47988095D01*
X116497676Y-47988095D02*
X116592914Y-47940476D01*
X116592914Y-47940476D02*
X116783390Y-47892857D01*
X116783390Y-47892857D02*
X116926247Y-47892857D01*
X116926247Y-47892857D02*
X117116723Y-47940476D01*
X117116723Y-47940476D02*
X117211961Y-47988095D01*
X117211961Y-47988095D02*
X117307200Y-48083333D01*
X117307200Y-48083333D02*
X117354819Y-48226190D01*
X117354819Y-48226190D02*
X117354819Y-48464285D01*
X117354819Y-46940476D02*
X117354819Y-47511904D01*
X117354819Y-47226190D02*
X116354819Y-47226190D01*
X116354819Y-47226190D02*
X116497676Y-47321428D01*
X116497676Y-47321428D02*
X116592914Y-47416666D01*
X116592914Y-47416666D02*
X116640533Y-47511904D01*
X117354819Y-45988095D02*
X117354819Y-46559523D01*
X117354819Y-46273809D02*
X116354819Y-46273809D01*
X116354819Y-46273809D02*
X116497676Y-46369047D01*
X116497676Y-46369047D02*
X116592914Y-46464285D01*
X116592914Y-46464285D02*
X116640533Y-46559523D01*
X150300057Y-43845238D02*
X150252438Y-43940476D01*
X150252438Y-43940476D02*
X150157200Y-44035714D01*
X150157200Y-44035714D02*
X150014342Y-44178571D01*
X150014342Y-44178571D02*
X149966723Y-44273809D01*
X149966723Y-44273809D02*
X149966723Y-44369047D01*
X150204819Y-44321428D02*
X150157200Y-44416666D01*
X150157200Y-44416666D02*
X150061961Y-44511904D01*
X150061961Y-44511904D02*
X149871485Y-44559523D01*
X149871485Y-44559523D02*
X149538152Y-44559523D01*
X149538152Y-44559523D02*
X149347676Y-44511904D01*
X149347676Y-44511904D02*
X149252438Y-44416666D01*
X149252438Y-44416666D02*
X149204819Y-44321428D01*
X149204819Y-44321428D02*
X149204819Y-44130952D01*
X149204819Y-44130952D02*
X149252438Y-44035714D01*
X149252438Y-44035714D02*
X149347676Y-43940476D01*
X149347676Y-43940476D02*
X149538152Y-43892857D01*
X149538152Y-43892857D02*
X149871485Y-43892857D01*
X149871485Y-43892857D02*
X150061961Y-43940476D01*
X150061961Y-43940476D02*
X150157200Y-44035714D01*
X150157200Y-44035714D02*
X150204819Y-44130952D01*
X150204819Y-44130952D02*
X150204819Y-44321428D01*
X149538152Y-43035714D02*
X150204819Y-43035714D01*
X149157200Y-43273809D02*
X149871485Y-43511904D01*
X149871485Y-43511904D02*
X149871485Y-42892857D01*
D12*
%TO.C,R21*%
X127515000Y-43272936D02*
X127515000Y-43727064D01*
X128985000Y-43272936D02*
X128985000Y-43727064D01*
D13*
%TO.C,S1*%
X132750000Y-49500000D02*
X132750000Y-43000000D01*
X133250000Y-43000000D02*
X132750000Y-43000000D01*
X133250000Y-49500000D02*
X132750000Y-49500000D01*
X139750000Y-43000000D02*
X139250000Y-43000000D01*
X139750000Y-43000000D02*
X139750000Y-49500000D01*
X139750000Y-49500000D02*
X139250000Y-49500000D01*
D14*
X138390000Y-50100000D02*
G75*
G02*
X138190000Y-50100000I-100000J0D01*
G01*
X138190000Y-50100000D02*
G75*
G02*
X138390000Y-50100000I100000J0D01*
G01*
D12*
%TO.C,Q1*%
X104940000Y-122500000D02*
X104940000Y-121850000D01*
X104940000Y-122500000D02*
X104940000Y-123150000D01*
X108060000Y-122500000D02*
X108060000Y-121850000D01*
X108060000Y-122500000D02*
X108060000Y-123150000D01*
X108340000Y-121577500D02*
X108010000Y-121337500D01*
X108340000Y-121097500D01*
X108340000Y-121577500D01*
G36*
X108340000Y-121577500D02*
G01*
X108010000Y-121337500D01*
X108340000Y-121097500D01*
X108340000Y-121577500D01*
G37*
%TO.C,C23*%
X138890580Y-50240000D02*
X138609420Y-50240000D01*
X138890580Y-51260000D02*
X138609420Y-51260000D01*
%TO.C,R26*%
X109015000Y-43272936D02*
X109015000Y-43727064D01*
X110485000Y-43272936D02*
X110485000Y-43727064D01*
%TO.C,C19*%
X162490000Y-83240000D02*
X163690000Y-83240000D01*
X162490000Y-86695563D02*
X162490000Y-83240000D01*
X162940000Y-88250000D02*
X163440000Y-88250000D01*
X163190000Y-88500000D02*
X163190000Y-88000000D01*
X163554437Y-87760000D02*
X162490000Y-86695563D01*
X163554437Y-87760000D02*
X163690000Y-87760000D01*
X165945563Y-87760000D02*
X165810000Y-87760000D01*
X165945563Y-87760000D02*
X167010000Y-86695563D01*
X167010000Y-83240000D02*
X165810000Y-83240000D01*
X167010000Y-86695563D02*
X167010000Y-83240000D01*
%TO.C,L2*%
X105238748Y-87390000D02*
X105761252Y-87390000D01*
X105238748Y-89610000D02*
X105761252Y-89610000D01*
%TO.C,J2*%
X111190000Y-99055000D02*
X111190000Y-100445000D01*
X111190000Y-100445000D02*
X111190000Y-100445000D01*
X112190000Y-99055000D02*
X111190000Y-99055000D01*
X113190000Y-100445000D02*
X112310000Y-100445000D01*
X114190000Y-99055000D02*
X113310000Y-99055000D01*
X115310000Y-99055000D02*
X115310000Y-98060000D01*
X115310000Y-99055000D02*
X115310000Y-99055000D01*
X115310000Y-99055000D02*
X115310000Y-100445000D01*
X115310000Y-100445000D02*
X114310000Y-100445000D01*
%TO.C,C9*%
X117490000Y-122109420D02*
X117490000Y-122390580D01*
X118510000Y-122109420D02*
X118510000Y-122390580D01*
%TO.C,D6*%
X135540000Y-67750000D02*
X135540000Y-70435000D01*
X135540000Y-70435000D02*
X137460000Y-70435000D01*
X137460000Y-70435000D02*
X137460000Y-67750000D01*
%TO.C,R10*%
X112237258Y-117977500D02*
X111762742Y-117977500D01*
X112237258Y-119022500D02*
X111762742Y-119022500D01*
%TO.C,R18*%
X135727500Y-51262742D02*
X135727500Y-51737258D01*
X136772500Y-51262742D02*
X136772500Y-51737258D01*
%TO.C,R13*%
X149227500Y-51987258D02*
X149227500Y-51512742D01*
X150272500Y-51987258D02*
X150272500Y-51512742D01*
%TO.C,D10*%
X117540000Y-45565000D02*
X117540000Y-48250000D01*
X119460000Y-45565000D02*
X117540000Y-45565000D01*
X119460000Y-48250000D02*
X119460000Y-45565000D01*
%TO.C,R23*%
X121015000Y-43272936D02*
X121015000Y-43727064D01*
X122485000Y-43272936D02*
X122485000Y-43727064D01*
%TO.C,D9*%
X120790000Y-45565000D02*
X120790000Y-48250000D01*
X122710000Y-45565000D02*
X120790000Y-45565000D01*
X122710000Y-48250000D02*
X122710000Y-45565000D01*
%TO.C,C8*%
X107740000Y-70740000D02*
X107740000Y-71940000D01*
X107740000Y-75260000D02*
X107740000Y-74060000D01*
X111195563Y-70740000D02*
X107740000Y-70740000D01*
X111195563Y-75260000D02*
X107740000Y-75260000D01*
X112260000Y-71804437D02*
X111195563Y-70740000D01*
X112260000Y-71804437D02*
X112260000Y-71940000D01*
X112260000Y-74195563D02*
X111195563Y-75260000D01*
X112260000Y-74195563D02*
X112260000Y-74060000D01*
X112750000Y-74810000D02*
X112750000Y-74310000D01*
X113000000Y-74560000D02*
X112500000Y-74560000D01*
%TO.C,C5*%
X103640000Y-115211252D02*
X103640000Y-113788748D01*
X106360000Y-115211252D02*
X106360000Y-113788748D01*
%TO.C,C16*%
X135390580Y-60490000D02*
X135109420Y-60490000D01*
X135390580Y-61510000D02*
X135109420Y-61510000D01*
%TO.C,Q5*%
X139590000Y-56150000D02*
X139590000Y-59910000D01*
X139590000Y-59910000D02*
X140850000Y-59910000D01*
X146410000Y-56150000D02*
X146410000Y-59910000D01*
X146410000Y-59910000D02*
X145150000Y-59910000D01*
X146640000Y-55110000D02*
X146310000Y-54870000D01*
X146640000Y-54630000D01*
X146640000Y-55110000D01*
G36*
X146640000Y-55110000D02*
G01*
X146310000Y-54870000D01*
X146640000Y-54630000D01*
X146640000Y-55110000D01*
G37*
%TO.C,C2*%
X122109420Y-86990000D02*
X122390580Y-86990000D01*
X122109420Y-88010000D02*
X122390580Y-88010000D01*
%TO.C,R14*%
X148977064Y-54015000D02*
X148522936Y-54015000D01*
X148977064Y-55485000D02*
X148522936Y-55485000D01*
%TO.C,R24*%
X117765000Y-43272936D02*
X117765000Y-43727064D01*
X119235000Y-43272936D02*
X119235000Y-43727064D01*
%TO.C,R9*%
X114727500Y-114987258D02*
X114727500Y-114512742D01*
X115772500Y-114987258D02*
X115772500Y-114512742D01*
%TO.C,R8*%
X112217500Y-114987258D02*
X112217500Y-114512742D01*
X113262500Y-114987258D02*
X113262500Y-114512742D01*
%TO.C,D12*%
X108790000Y-45565000D02*
X108790000Y-48250000D01*
X110710000Y-45565000D02*
X108790000Y-45565000D01*
X110710000Y-48250000D02*
X110710000Y-45565000D01*
%TO.C,R5*%
X103977500Y-110262742D02*
X103977500Y-110737258D01*
X105022500Y-110262742D02*
X105022500Y-110737258D01*
%TO.C,J3*%
X97920000Y-40215000D02*
X107080000Y-40215000D01*
X97920000Y-41920000D02*
X97920000Y-40215000D01*
X97920000Y-43930000D02*
X97920000Y-45850000D01*
X107080000Y-40215000D02*
X107080000Y-41920000D01*
X107080000Y-45850000D02*
X107080000Y-43930000D01*
%TO.C,Q3*%
X155690000Y-56250000D02*
X155690000Y-55600000D01*
X155690000Y-56250000D02*
X155690000Y-56900000D01*
X158810000Y-56250000D02*
X158810000Y-55600000D01*
X158810000Y-56250000D02*
X158810000Y-56900000D01*
X155740000Y-57412500D02*
X155410000Y-57652500D01*
X155410000Y-57172500D01*
X155740000Y-57412500D01*
G36*
X155740000Y-57412500D02*
G01*
X155410000Y-57652500D01*
X155410000Y-57172500D01*
X155740000Y-57412500D01*
G37*
%TO.C,C21*%
X97990000Y-53890580D02*
X97990000Y-53609420D01*
X99010000Y-53890580D02*
X99010000Y-53609420D01*
%TO.C,C1*%
X101140580Y-86990000D02*
X100859420Y-86990000D01*
X101140580Y-88010000D02*
X100859420Y-88010000D01*
D13*
%TO.C,S2*%
X121250000Y-74250000D02*
X127750000Y-74250000D01*
X121250000Y-74750000D02*
X121250000Y-74250000D01*
X121250000Y-81250000D02*
X121250000Y-80750000D01*
X127750000Y-74750000D02*
X127750000Y-74250000D01*
X127750000Y-81250000D02*
X121250000Y-81250000D01*
X127750000Y-81250000D02*
X127750000Y-80750000D01*
D14*
X120750000Y-79790000D02*
G75*
G02*
X120550000Y-79790000I-100000J0D01*
G01*
X120550000Y-79790000D02*
G75*
G02*
X120750000Y-79790000I100000J0D01*
G01*
D12*
%TO.C,R17*%
X100227500Y-51012742D02*
X100227500Y-51487258D01*
X101272500Y-51012742D02*
X101272500Y-51487258D01*
%TO.C,C15*%
X123109420Y-60490000D02*
X123390580Y-60490000D01*
X123109420Y-61510000D02*
X123390580Y-61510000D01*
%TO.C,R11*%
X130977500Y-45837742D02*
X130977500Y-46312258D01*
X132022500Y-45837742D02*
X132022500Y-46312258D01*
%TO.C,U4*%
X126390000Y-61390000D02*
X126390000Y-61840000D01*
X126390000Y-68610000D02*
X126390000Y-68160000D01*
X126840000Y-61390000D02*
X126390000Y-61390000D01*
X126840000Y-68610000D02*
X126390000Y-68610000D01*
X133160000Y-61390000D02*
X133610000Y-61390000D01*
X133160000Y-68610000D02*
X133610000Y-68610000D01*
X133610000Y-61390000D02*
X133610000Y-61840000D01*
X133610000Y-68610000D02*
X133610000Y-68160000D01*
X125800000Y-61840000D02*
X125460000Y-61370000D01*
X126140000Y-61370000D01*
X125800000Y-61840000D01*
G36*
X125800000Y-61840000D02*
G01*
X125460000Y-61370000D01*
X126140000Y-61370000D01*
X125800000Y-61840000D01*
G37*
%TO.C,L1*%
X101261252Y-106390000D02*
X100738748Y-106390000D01*
X101261252Y-108610000D02*
X100738748Y-108610000D01*
%TO.C,R25*%
X114515000Y-43272936D02*
X114515000Y-43727064D01*
X115985000Y-43272936D02*
X115985000Y-43727064D01*
%TO.C,D7*%
X127290000Y-45565000D02*
X127290000Y-48250000D01*
X129210000Y-45565000D02*
X127290000Y-45565000D01*
X129210000Y-48250000D02*
X129210000Y-45565000D01*
%TO.C,C14*%
X114490000Y-73140580D02*
X114490000Y-72859420D01*
X115510000Y-73140580D02*
X115510000Y-72859420D01*
%TO.C,R12*%
X161022936Y-54515000D02*
X161477064Y-54515000D01*
X161022936Y-55985000D02*
X161477064Y-55985000D01*
%TO.C,D4*%
X151140000Y-51500000D02*
X151140000Y-53500000D01*
X151140000Y-51500000D02*
X155150000Y-51500000D01*
X151140000Y-53500000D02*
X155150000Y-53500000D01*
%TO.C,Q2*%
X108940000Y-122500000D02*
X108940000Y-121850000D01*
X108940000Y-122500000D02*
X108940000Y-123150000D01*
X112060000Y-122500000D02*
X112060000Y-121850000D01*
X112060000Y-122500000D02*
X112060000Y-123150000D01*
X108990000Y-123662500D02*
X108660000Y-123902500D01*
X108660000Y-123422500D01*
X108990000Y-123662500D01*
G36*
X108990000Y-123662500D02*
G01*
X108660000Y-123902500D01*
X108660000Y-123422500D01*
X108990000Y-123662500D01*
G37*
%TO.C,C12*%
X118990000Y-52740000D02*
X120190000Y-52740000D01*
X118990000Y-56195563D02*
X118990000Y-52740000D01*
X119440000Y-57750000D02*
X119940000Y-57750000D01*
X119690000Y-58000000D02*
X119690000Y-57500000D01*
X120054437Y-57260000D02*
X118990000Y-56195563D01*
X120054437Y-57260000D02*
X120190000Y-57260000D01*
X122445563Y-57260000D02*
X122310000Y-57260000D01*
X122445563Y-57260000D02*
X123510000Y-56195563D01*
X123510000Y-52740000D02*
X122310000Y-52740000D01*
X123510000Y-56195563D02*
X123510000Y-52740000D01*
%TO.C,R4*%
X97477500Y-93262742D02*
X97477500Y-93737258D01*
X98522500Y-93262742D02*
X98522500Y-93737258D01*
%TO.C,C11*%
X114490000Y-55859420D02*
X114490000Y-56140580D01*
X115510000Y-55859420D02*
X115510000Y-56140580D01*
%TO.C,R20*%
X135765000Y-72727064D02*
X135765000Y-72272936D01*
X137235000Y-72727064D02*
X137235000Y-72272936D01*
%TO.C,Y1*%
X112450000Y-58600000D02*
X112450000Y-71200000D01*
X112450000Y-71200000D02*
X117550000Y-71200000D01*
X117550000Y-71200000D02*
X117550000Y-58600000D01*
%TO.C,D5*%
X99940000Y-55600000D02*
X99940000Y-56870000D01*
X103060000Y-56900000D02*
X103060000Y-55600000D01*
X99990000Y-57250000D02*
X99660000Y-57490000D01*
X99660000Y-57010000D01*
X99990000Y-57250000D01*
G36*
X99990000Y-57250000D02*
G01*
X99660000Y-57490000D01*
X99660000Y-57010000D01*
X99990000Y-57250000D01*
G37*
%TO.C,M1*%
X129000000Y-83410000D02*
X127120000Y-83410000D01*
X129000000Y-83410000D02*
X130880000Y-83410000D01*
X129000000Y-88590000D02*
X127120000Y-88590000D01*
X129000000Y-88590000D02*
X130880000Y-88590000D01*
X131942500Y-88820000D02*
X131462500Y-88820000D01*
X131702500Y-88490000D01*
X131942500Y-88820000D01*
G36*
X131942500Y-88820000D02*
G01*
X131462500Y-88820000D01*
X131702500Y-88490000D01*
X131942500Y-88820000D01*
G37*
%TO.C,R16*%
X104227500Y-51012742D02*
X104227500Y-51487258D01*
X105272500Y-51012742D02*
X105272500Y-51487258D01*
%TO.C,C18*%
X125490000Y-58109420D02*
X125490000Y-58390580D01*
X126510000Y-58109420D02*
X126510000Y-58390580D01*
D14*
%TO.C,J1*%
X135035000Y-82010000D02*
X138465000Y-82010000D01*
X138465000Y-75490000D02*
X135035000Y-75490000D01*
X134815000Y-74960000D02*
G75*
G02*
X134615000Y-74960000I-100000J0D01*
G01*
X134615000Y-74960000D02*
G75*
G02*
X134815000Y-74960000I100000J0D01*
G01*
D12*
%TO.C,F1*%
X98040000Y-59741422D02*
X98040000Y-60258578D01*
X99460000Y-59741422D02*
X99460000Y-60258578D01*
%TO.C,FB1*%
X98240000Y-63337221D02*
X98240000Y-63662779D01*
X99260000Y-63337221D02*
X99260000Y-63662779D01*
%TO.C,D8*%
X124040000Y-45565000D02*
X124040000Y-48250000D01*
X125960000Y-45565000D02*
X124040000Y-45565000D01*
X125960000Y-48250000D02*
X125960000Y-45565000D01*
%TO.C,R1*%
X119477500Y-80012742D02*
X119477500Y-80487258D01*
X120522500Y-80012742D02*
X120522500Y-80487258D01*
%TO.C,C4*%
X108740000Y-89304437D02*
X108740000Y-93760000D01*
X108740000Y-93760000D02*
X110440000Y-93760000D01*
X109804437Y-88240000D02*
X108740000Y-89304437D01*
X109804437Y-88240000D02*
X110440000Y-88240000D01*
X113185000Y-87375000D02*
X113185000Y-88000000D01*
X113195563Y-88240000D02*
X112560000Y-88240000D01*
X113195563Y-88240000D02*
X114260000Y-89304437D01*
X113497500Y-87687500D02*
X112872500Y-87687500D01*
X114260000Y-89304437D02*
X114260000Y-93760000D01*
X114260000Y-93760000D02*
X112560000Y-93760000D01*
%TO.C,C20*%
X149240000Y-48359420D02*
X149240000Y-48640580D01*
X150260000Y-48359420D02*
X150260000Y-48640580D01*
%TO.C,R15*%
X142477500Y-64487258D02*
X142477500Y-64012742D01*
X143522500Y-64487258D02*
X143522500Y-64012742D01*
%TO.C,C13*%
X108990000Y-99609420D02*
X108990000Y-99890580D01*
X110010000Y-99609420D02*
X110010000Y-99890580D01*
%TO.C,D1*%
X97390000Y-71660000D02*
X97390000Y-66600000D01*
X97390000Y-71660000D02*
X100110000Y-71660000D01*
X100110000Y-71660000D02*
X100110000Y-66600000D01*
%TO.C,U3*%
X115000000Y-120940000D02*
X114200000Y-120940000D01*
X115000000Y-120940000D02*
X115800000Y-120940000D01*
X115000000Y-124060000D02*
X114200000Y-124060000D01*
X115000000Y-124060000D02*
X115800000Y-124060000D01*
X113700000Y-120990000D02*
X113460000Y-120660000D01*
X113940000Y-120660000D01*
X113700000Y-120990000D01*
G36*
X113700000Y-120990000D02*
G01*
X113460000Y-120660000D01*
X113940000Y-120660000D01*
X113700000Y-120990000D01*
G37*
%TO.C,R6*%
X96977500Y-116737258D02*
X96977500Y-116262742D01*
X98022500Y-116737258D02*
X98022500Y-116262742D01*
D13*
%TO.C,U5*%
X136750000Y-106750000D02*
X136750000Y-109500000D01*
X136750000Y-106750000D02*
X139500000Y-106750000D01*
X136750000Y-122250000D02*
X136750000Y-119500000D01*
X136750000Y-122250000D02*
X139500000Y-122250000D01*
X152250000Y-106750000D02*
X149500000Y-106750000D01*
X152250000Y-106750000D02*
X152250000Y-109500000D01*
X152250000Y-122250000D02*
X149500000Y-122250000D01*
X152250000Y-122250000D02*
X152250000Y-119500000D01*
D14*
X148400000Y-106000000D02*
G75*
G02*
X148200000Y-106000000I-100000J0D01*
G01*
X148200000Y-106000000D02*
G75*
G02*
X148400000Y-106000000I100000J0D01*
G01*
D12*
%TO.C,U2*%
X101000000Y-110940000D02*
X100200000Y-110940000D01*
X101000000Y-110940000D02*
X101800000Y-110940000D01*
X101000000Y-114060000D02*
X100200000Y-114060000D01*
X101000000Y-114060000D02*
X101800000Y-114060000D01*
X99700000Y-110990000D02*
X99460000Y-110660000D01*
X99940000Y-110660000D01*
X99700000Y-110990000D01*
G36*
X99700000Y-110990000D02*
G01*
X99460000Y-110660000D01*
X99940000Y-110660000D01*
X99700000Y-110990000D01*
G37*
%TO.C,C10*%
X122490000Y-67390580D02*
X122490000Y-67109420D01*
X123510000Y-67390580D02*
X123510000Y-67109420D01*
%TO.C,R22*%
X124265000Y-43272936D02*
X124265000Y-43727064D01*
X125735000Y-43272936D02*
X125735000Y-43727064D01*
%TO.C,U1*%
X101000000Y-88940000D02*
X100200000Y-88940000D01*
X101000000Y-88940000D02*
X101800000Y-88940000D01*
X101000000Y-92060000D02*
X100200000Y-92060000D01*
X101000000Y-92060000D02*
X101800000Y-92060000D01*
X99700000Y-88990000D02*
X99460000Y-88660000D01*
X99940000Y-88660000D01*
X99700000Y-88990000D01*
G36*
X99700000Y-88990000D02*
G01*
X99460000Y-88660000D01*
X99940000Y-88660000D01*
X99700000Y-88990000D01*
G37*
%TO.C,C3*%
X103640000Y-93211252D02*
X103640000Y-91788748D01*
X106360000Y-93211252D02*
X106360000Y-91788748D01*
%TO.C,C7*%
X119109420Y-77240000D02*
X119390580Y-77240000D01*
X119109420Y-78260000D02*
X119390580Y-78260000D01*
%TO.C,C17*%
X133490000Y-70390580D02*
X133490000Y-70109420D01*
X134510000Y-70390580D02*
X134510000Y-70109420D01*
%TO.C,C6*%
X106740000Y-103804437D02*
X106740000Y-108260000D01*
X106740000Y-108260000D02*
X108440000Y-108260000D01*
X107804437Y-102740000D02*
X106740000Y-103804437D01*
X107804437Y-102740000D02*
X108440000Y-102740000D01*
X111185000Y-101875000D02*
X111185000Y-102500000D01*
X111195563Y-102740000D02*
X110560000Y-102740000D01*
X111195563Y-102740000D02*
X112260000Y-103804437D01*
X111497500Y-102187500D02*
X110872500Y-102187500D01*
X112260000Y-103804437D02*
X112260000Y-108260000D01*
X112260000Y-108260000D02*
X110560000Y-108260000D01*
D13*
%TO.C,BZ1*%
X157400000Y-42900000D02*
X157400000Y-52600000D01*
X157400000Y-52600000D02*
X160910000Y-52600000D01*
X160900000Y-42900000D02*
X157400000Y-42900000D01*
X163600000Y-52600000D02*
X167100000Y-52600000D01*
X164900000Y-42900000D02*
X163600000Y-42900000D01*
X167100000Y-45100000D02*
X164900000Y-42900000D01*
X167100000Y-52600000D02*
X167100000Y-45100000D01*
D12*
%TO.C,R2*%
X105262742Y-84477500D02*
X105737258Y-84477500D01*
X105262742Y-85522500D02*
X105737258Y-85522500D01*
D11*
%TO.C,SW3*%
X102250000Y-132700000D02*
X115750000Y-132700000D01*
X102250000Y-136050000D02*
X102250000Y-132700000D01*
X102250000Y-138750000D02*
X102250000Y-139000000D01*
X102250000Y-139000000D02*
X115750000Y-139000000D01*
X104200000Y-128200000D02*
X104200000Y-132700000D01*
X109000000Y-128200000D02*
X109000000Y-132700000D01*
X113800000Y-128200000D02*
X113800000Y-132700000D01*
X115750000Y-132700000D02*
X115750000Y-136050000D01*
X115750000Y-138750000D02*
X115750000Y-139000000D01*
D15*
X115875000Y-124900000D02*
G75*
G02*
X115525000Y-124900000I-175000J0D01*
G01*
X115525000Y-124900000D02*
G75*
G02*
X115875000Y-124900000I175000J0D01*
G01*
D12*
%TO.C,R7*%
X117012742Y-117977500D02*
X117487258Y-117977500D01*
X117012742Y-119022500D02*
X117487258Y-119022500D01*
%TO.C,C22*%
X94261252Y-41515000D02*
X93738748Y-41515000D01*
X94261252Y-42985000D02*
X93738748Y-42985000D01*
%TO.C,R19*%
X94237258Y-43727500D02*
X93762742Y-43727500D01*
X94237258Y-44772500D02*
X93762742Y-44772500D01*
%TO.C,BT2*%
X153749999Y-88700001D02*
X153749999Y-83000001D01*
X159749999Y-88700001D02*
X153749999Y-88700001D01*
X159749999Y-88700001D02*
X159749999Y-83000001D01*
X153249999Y-82250001D02*
G75*
G02*
X153749999Y-83000001I-312500J-750000D01*
G01*
X153249999Y-82250001D02*
G75*
G02*
X156749999Y-59804330I3499989J10949956D01*
G01*
X156749999Y-59804330D02*
G75*
G02*
X160249999Y-82250001I11J-11495715D01*
G01*
X159749999Y-83000001D02*
G75*
G02*
X160249999Y-82250001I812500J0D01*
G01*
%TO.C,L3*%
X118890000Y-67488748D02*
X118890000Y-68011252D01*
X121110000Y-67488748D02*
X121110000Y-68011252D01*
%TO.C,D2*%
X105160000Y-102140000D02*
X100100000Y-102140000D01*
X105160000Y-104860000D02*
X100100000Y-104860000D01*
X105160000Y-104860000D02*
X105160000Y-102140000D01*
%TO.C,D3*%
X108140000Y-110340000D02*
X108140000Y-115400000D01*
X110860000Y-110340000D02*
X108140000Y-110340000D01*
X110860000Y-110340000D02*
X110860000Y-115400000D01*
%TO.C,BT1*%
X75060000Y-51690000D02*
X75060000Y-128970000D01*
X75060000Y-128970000D02*
X82060000Y-128970000D01*
X79500000Y-46580000D02*
X79500000Y-49080000D01*
X79500000Y-134080000D02*
X79500000Y-131580000D01*
X80750000Y-132830000D02*
X78250000Y-132830000D01*
X82060000Y-51690000D02*
X75080000Y-51690000D01*
X82060000Y-128970000D02*
X82060000Y-133330000D01*
X88940000Y-51690000D02*
X95940000Y-51690000D01*
X95940000Y-51690000D02*
X95940000Y-128970000D01*
X95940000Y-128970000D02*
X88940000Y-128970000D01*
%TO.C,R3*%
X96977500Y-102237258D02*
X96977500Y-101762742D01*
X98022500Y-102237258D02*
X98022500Y-101762742D01*
%TO.C,D11*%
X114290000Y-45565000D02*
X114290000Y-48250000D01*
X116210000Y-45565000D02*
X114290000Y-45565000D01*
X116210000Y-48250000D02*
X116210000Y-45565000D01*
%TO.C,Q4*%
X141840000Y-44340000D02*
X143100000Y-44340000D01*
X141840000Y-48100000D02*
X141840000Y-44340000D01*
X148660000Y-44340000D02*
X147400000Y-44340000D01*
X148660000Y-48100000D02*
X148660000Y-44340000D01*
X141940000Y-49380000D02*
X141610000Y-49620000D01*
X141610000Y-49140000D01*
X141940000Y-49380000D01*
G36*
X141940000Y-49380000D02*
G01*
X141610000Y-49620000D01*
X141610000Y-49140000D01*
X141940000Y-49380000D01*
G37*
%TD*%
M02*
