%TF.GenerationSoftware,KiCad,Pcbnew,9.0.0*%
%TF.CreationDate,2025-04-07T01:58:01+02:00*%
%TF.ProjectId,Mastersthesis,4d617374-6572-4737-9468-657369732e6b,0*%
%TF.SameCoordinates,Original*%
%TF.FileFunction,Paste,Top*%
%TF.FilePolarity,Positive*%
%FSLAX46Y46*%
G04 Gerber Fmt 4.6, Leading zero omitted, Abs format (unit mm)*
G04 Created by KiCad (PCBNEW 9.0.0) date 2025-04-07 01:58:01*
%MOMM*%
%LPD*%
G01*
G04 APERTURE LIST*
G04 Aperture macros list*
%AMRoundRect*
0 Rectangle with rounded corners*
0 $1 Rounding radius*
0 $2 $3 $4 $5 $6 $7 $8 $9 X,Y pos of 4 corners*
0 Add a 4 corners polygon primitive as box body*
4,1,4,$2,$3,$4,$5,$6,$7,$8,$9,$2,$3,0*
0 Add four circle primitives for the rounded corners*
1,1,$1+$1,$2,$3*
1,1,$1+$1,$4,$5*
1,1,$1+$1,$6,$7*
1,1,$1+$1,$8,$9*
0 Add four rect primitives between the rounded corners*
20,1,$1+$1,$2,$3,$4,$5,0*
20,1,$1+$1,$4,$5,$6,$7,0*
20,1,$1+$1,$6,$7,$8,$9,0*
20,1,$1+$1,$8,$9,$2,$3,0*%
G04 Aperture macros list end*
%ADD10C,0.010000*%
%ADD11RoundRect,0.250000X-0.450000X0.262500X-0.450000X-0.262500X0.450000X-0.262500X0.450000X0.262500X0*%
%ADD12RoundRect,0.150000X-0.150000X0.587500X-0.150000X-0.587500X0.150000X-0.587500X0.150000X0.587500X0*%
%ADD13RoundRect,0.225000X0.225000X0.250000X-0.225000X0.250000X-0.225000X-0.250000X0.225000X-0.250000X0*%
%ADD14RoundRect,0.250000X0.550000X-1.050000X0.550000X1.050000X-0.550000X1.050000X-0.550000X-1.050000X0*%
%ADD15RoundRect,0.250000X-0.375000X-0.850000X0.375000X-0.850000X0.375000X0.850000X-0.375000X0.850000X0*%
%ADD16R,0.600000X1.750000*%
%ADD17RoundRect,0.225000X-0.250000X0.225000X-0.250000X-0.225000X0.250000X-0.225000X0.250000X0.225000X0*%
%ADD18RoundRect,0.243750X0.456250X-0.243750X0.456250X0.243750X-0.456250X0.243750X-0.456250X-0.243750X0*%
%ADD19RoundRect,0.200000X0.200000X0.275000X-0.200000X0.275000X-0.200000X-0.275000X0.200000X-0.275000X0*%
%ADD20RoundRect,0.200000X-0.275000X0.200000X-0.275000X-0.200000X0.275000X-0.200000X0.275000X0.200000X0*%
%ADD21RoundRect,0.200000X0.275000X-0.200000X0.275000X0.200000X-0.275000X0.200000X-0.275000X-0.200000X0*%
%ADD22RoundRect,0.243750X-0.456250X0.243750X-0.456250X-0.243750X0.456250X-0.243750X0.456250X0.243750X0*%
%ADD23RoundRect,0.250000X1.050000X0.550000X-1.050000X0.550000X-1.050000X-0.550000X1.050000X-0.550000X0*%
%ADD24RoundRect,0.250000X1.100000X-0.325000X1.100000X0.325000X-1.100000X0.325000X-1.100000X-0.325000X0*%
%ADD25RoundRect,0.375000X-0.375000X0.625000X-0.375000X-0.625000X0.375000X-0.625000X0.375000X0.625000X0*%
%ADD26RoundRect,0.500000X-1.400000X0.500000X-1.400000X-0.500000X1.400000X-0.500000X1.400000X0.500000X0*%
%ADD27RoundRect,0.225000X-0.225000X-0.250000X0.225000X-0.250000X0.225000X0.250000X-0.225000X0.250000X0*%
%ADD28RoundRect,0.250000X0.262500X0.450000X-0.262500X0.450000X-0.262500X-0.450000X0.262500X-0.450000X0*%
%ADD29R,0.600000X1.240000*%
%ADD30R,0.300000X1.240000*%
%ADD31RoundRect,0.150000X0.150000X-0.587500X0.150000X0.587500X-0.150000X0.587500X-0.150000X-0.587500X0*%
%ADD32RoundRect,0.225000X0.250000X-0.225000X0.250000X0.225000X-0.250000X0.225000X-0.250000X-0.225000X0*%
%ADD33RoundRect,0.075000X-0.662500X-0.075000X0.662500X-0.075000X0.662500X0.075000X-0.662500X0.075000X0*%
%ADD34RoundRect,0.075000X-0.075000X-0.662500X0.075000X-0.662500X0.075000X0.662500X-0.075000X0.662500X0*%
%ADD35RoundRect,0.250000X0.375000X0.850000X-0.375000X0.850000X-0.375000X-0.850000X0.375000X-0.850000X0*%
%ADD36RoundRect,0.250000X-0.262500X-0.450000X0.262500X-0.450000X0.262500X0.450000X-0.262500X0.450000X0*%
%ADD37RoundRect,0.225000X-0.225000X-0.375000X0.225000X-0.375000X0.225000X0.375000X-0.225000X0.375000X0*%
%ADD38RoundRect,0.250000X0.450000X-0.262500X0.450000X0.262500X-0.450000X0.262500X-0.450000X-0.262500X0*%
%ADD39R,2.000000X4.500000*%
%ADD40RoundRect,0.175000X0.325000X-0.175000X0.325000X0.175000X-0.325000X0.175000X-0.325000X-0.175000X0*%
%ADD41RoundRect,0.150000X0.150000X-0.200000X0.150000X0.200000X-0.150000X0.200000X-0.150000X-0.200000X0*%
%ADD42RoundRect,0.162500X0.825000X0.162500X-0.825000X0.162500X-0.825000X-0.162500X0.825000X-0.162500X0*%
%ADD43R,2.790000X0.740000*%
%ADD44RoundRect,0.218750X-0.256250X0.218750X-0.256250X-0.218750X0.256250X-0.218750X0.256250X0.218750X0*%
%ADD45RoundRect,0.250000X-0.550000X1.250000X-0.550000X-1.250000X0.550000X-1.250000X0.550000X1.250000X0*%
%ADD46RoundRect,0.250000X0.800000X-0.450000X0.800000X0.450000X-0.800000X0.450000X-0.800000X-0.450000X0*%
%ADD47RoundRect,0.150000X-0.512500X-0.150000X0.512500X-0.150000X0.512500X0.150000X-0.512500X0.150000X0*%
%ADD48R,1.700000X1.500000*%
%ADD49RoundRect,0.200000X-0.200000X-0.275000X0.200000X-0.275000X0.200000X0.275000X-0.200000X0.275000X0*%
%ADD50RoundRect,0.250000X0.250000X0.475000X-0.250000X0.475000X-0.250000X-0.475000X0.250000X-0.475000X0*%
%ADD51RoundRect,0.250000X-0.850000X0.375000X-0.850000X-0.375000X0.850000X-0.375000X0.850000X0.375000X0*%
%ADD52RoundRect,0.250000X0.450000X0.800000X-0.450000X0.800000X-0.450000X-0.800000X0.450000X-0.800000X0*%
%ADD53RoundRect,0.250000X-0.800000X0.450000X-0.800000X-0.450000X0.800000X-0.450000X0.800000X0.450000X0*%
%ADD54R,6.350000X7.340000*%
%ADD55RoundRect,0.375000X0.375000X-0.625000X0.375000X0.625000X-0.375000X0.625000X-0.375000X-0.625000X0*%
%ADD56RoundRect,0.500000X1.400000X-0.500000X1.400000X0.500000X-1.400000X0.500000X-1.400000X-0.500000X0*%
G04 APERTURE END LIST*
D10*
%TO.C,U5*%
X137760000Y-110560000D02*
X137040000Y-110560000D01*
X137040000Y-109980000D01*
X137760000Y-109980000D01*
X137760000Y-110560000D01*
G36*
X137760000Y-110560000D02*
G01*
X137040000Y-110560000D01*
X137040000Y-109980000D01*
X137760000Y-109980000D01*
X137760000Y-110560000D01*
G37*
X137760000Y-111420000D02*
X137040000Y-111420000D01*
X137040000Y-110840000D01*
X137760000Y-110840000D01*
X137760000Y-111420000D01*
G36*
X137760000Y-111420000D02*
G01*
X137040000Y-111420000D01*
X137040000Y-110840000D01*
X137760000Y-110840000D01*
X137760000Y-111420000D01*
G37*
X137760000Y-112460000D02*
X137040000Y-112460000D01*
X137040000Y-111880000D01*
X137760000Y-111880000D01*
X137760000Y-112460000D01*
G36*
X137760000Y-112460000D02*
G01*
X137040000Y-112460000D01*
X137040000Y-111880000D01*
X137760000Y-111880000D01*
X137760000Y-112460000D01*
G37*
X137760000Y-113320000D02*
X137040000Y-113320000D01*
X137040000Y-112740000D01*
X137760000Y-112740000D01*
X137760000Y-113320000D01*
G36*
X137760000Y-113320000D02*
G01*
X137040000Y-113320000D01*
X137040000Y-112740000D01*
X137760000Y-112740000D01*
X137760000Y-113320000D01*
G37*
X137760000Y-114360000D02*
X137040000Y-114360000D01*
X137040000Y-113780000D01*
X137760000Y-113780000D01*
X137760000Y-114360000D01*
G36*
X137760000Y-114360000D02*
G01*
X137040000Y-114360000D01*
X137040000Y-113780000D01*
X137760000Y-113780000D01*
X137760000Y-114360000D01*
G37*
X137760000Y-115220000D02*
X137040000Y-115220000D01*
X137040000Y-114640000D01*
X137760000Y-114640000D01*
X137760000Y-115220000D01*
G36*
X137760000Y-115220000D02*
G01*
X137040000Y-115220000D01*
X137040000Y-114640000D01*
X137760000Y-114640000D01*
X137760000Y-115220000D01*
G37*
X137760000Y-116260000D02*
X137040000Y-116260000D01*
X137040000Y-115680000D01*
X137760000Y-115680000D01*
X137760000Y-116260000D01*
G36*
X137760000Y-116260000D02*
G01*
X137040000Y-116260000D01*
X137040000Y-115680000D01*
X137760000Y-115680000D01*
X137760000Y-116260000D01*
G37*
X137760000Y-117120000D02*
X137040000Y-117120000D01*
X137040000Y-116540000D01*
X137760000Y-116540000D01*
X137760000Y-117120000D01*
G36*
X137760000Y-117120000D02*
G01*
X137040000Y-117120000D01*
X137040000Y-116540000D01*
X137760000Y-116540000D01*
X137760000Y-117120000D01*
G37*
X137760000Y-118160000D02*
X137040000Y-118160000D01*
X137040000Y-117580000D01*
X137760000Y-117580000D01*
X137760000Y-118160000D01*
G36*
X137760000Y-118160000D02*
G01*
X137040000Y-118160000D01*
X137040000Y-117580000D01*
X137760000Y-117580000D01*
X137760000Y-118160000D01*
G37*
X137760000Y-119020000D02*
X137040000Y-119020000D01*
X137040000Y-118440000D01*
X137760000Y-118440000D01*
X137760000Y-119020000D01*
G36*
X137760000Y-119020000D02*
G01*
X137040000Y-119020000D01*
X137040000Y-118440000D01*
X137760000Y-118440000D01*
X137760000Y-119020000D01*
G37*
X138760000Y-110560000D02*
X138040000Y-110560000D01*
X138040000Y-109980000D01*
X138760000Y-109980000D01*
X138760000Y-110560000D01*
G36*
X138760000Y-110560000D02*
G01*
X138040000Y-110560000D01*
X138040000Y-109980000D01*
X138760000Y-109980000D01*
X138760000Y-110560000D01*
G37*
X138760000Y-111420000D02*
X138040000Y-111420000D01*
X138040000Y-110840000D01*
X138760000Y-110840000D01*
X138760000Y-111420000D01*
G36*
X138760000Y-111420000D02*
G01*
X138040000Y-111420000D01*
X138040000Y-110840000D01*
X138760000Y-110840000D01*
X138760000Y-111420000D01*
G37*
X138760000Y-112460000D02*
X138040000Y-112460000D01*
X138040000Y-111880000D01*
X138760000Y-111880000D01*
X138760000Y-112460000D01*
G36*
X138760000Y-112460000D02*
G01*
X138040000Y-112460000D01*
X138040000Y-111880000D01*
X138760000Y-111880000D01*
X138760000Y-112460000D01*
G37*
X138760000Y-113320000D02*
X138040000Y-113320000D01*
X138040000Y-112740000D01*
X138760000Y-112740000D01*
X138760000Y-113320000D01*
G36*
X138760000Y-113320000D02*
G01*
X138040000Y-113320000D01*
X138040000Y-112740000D01*
X138760000Y-112740000D01*
X138760000Y-113320000D01*
G37*
X138760000Y-114360000D02*
X138040000Y-114360000D01*
X138040000Y-113780000D01*
X138760000Y-113780000D01*
X138760000Y-114360000D01*
G36*
X138760000Y-114360000D02*
G01*
X138040000Y-114360000D01*
X138040000Y-113780000D01*
X138760000Y-113780000D01*
X138760000Y-114360000D01*
G37*
X138760000Y-115220000D02*
X138040000Y-115220000D01*
X138040000Y-114640000D01*
X138760000Y-114640000D01*
X138760000Y-115220000D01*
G36*
X138760000Y-115220000D02*
G01*
X138040000Y-115220000D01*
X138040000Y-114640000D01*
X138760000Y-114640000D01*
X138760000Y-115220000D01*
G37*
X138760000Y-116260000D02*
X138040000Y-116260000D01*
X138040000Y-115680000D01*
X138760000Y-115680000D01*
X138760000Y-116260000D01*
G36*
X138760000Y-116260000D02*
G01*
X138040000Y-116260000D01*
X138040000Y-115680000D01*
X138760000Y-115680000D01*
X138760000Y-116260000D01*
G37*
X138760000Y-117120000D02*
X138040000Y-117120000D01*
X138040000Y-116540000D01*
X138760000Y-116540000D01*
X138760000Y-117120000D01*
G36*
X138760000Y-117120000D02*
G01*
X138040000Y-117120000D01*
X138040000Y-116540000D01*
X138760000Y-116540000D01*
X138760000Y-117120000D01*
G37*
X138760000Y-118160000D02*
X138040000Y-118160000D01*
X138040000Y-117580000D01*
X138760000Y-117580000D01*
X138760000Y-118160000D01*
G36*
X138760000Y-118160000D02*
G01*
X138040000Y-118160000D01*
X138040000Y-117580000D01*
X138760000Y-117580000D01*
X138760000Y-118160000D01*
G37*
X138760000Y-119020000D02*
X138040000Y-119020000D01*
X138040000Y-118440000D01*
X138760000Y-118440000D01*
X138760000Y-119020000D01*
G36*
X138760000Y-119020000D02*
G01*
X138040000Y-119020000D01*
X138040000Y-118440000D01*
X138760000Y-118440000D01*
X138760000Y-119020000D01*
G37*
X140560000Y-107760000D02*
X139980000Y-107760000D01*
X139980000Y-107040000D01*
X140560000Y-107040000D01*
X140560000Y-107760000D01*
G36*
X140560000Y-107760000D02*
G01*
X139980000Y-107760000D01*
X139980000Y-107040000D01*
X140560000Y-107040000D01*
X140560000Y-107760000D01*
G37*
X140560000Y-108760000D02*
X139980000Y-108760000D01*
X139980000Y-108040000D01*
X140560000Y-108040000D01*
X140560000Y-108760000D01*
G36*
X140560000Y-108760000D02*
G01*
X139980000Y-108760000D01*
X139980000Y-108040000D01*
X140560000Y-108040000D01*
X140560000Y-108760000D01*
G37*
X140560000Y-120960000D02*
X139980000Y-120960000D01*
X139980000Y-120240000D01*
X140560000Y-120240000D01*
X140560000Y-120960000D01*
G36*
X140560000Y-120960000D02*
G01*
X139980000Y-120960000D01*
X139980000Y-120240000D01*
X140560000Y-120240000D01*
X140560000Y-120960000D01*
G37*
X140560000Y-121960000D02*
X139980000Y-121960000D01*
X139980000Y-121240000D01*
X140560000Y-121240000D01*
X140560000Y-121960000D01*
G36*
X140560000Y-121960000D02*
G01*
X139980000Y-121960000D01*
X139980000Y-121240000D01*
X140560000Y-121240000D01*
X140560000Y-121960000D01*
G37*
X141420000Y-107760000D02*
X140840000Y-107760000D01*
X140840000Y-107040000D01*
X141420000Y-107040000D01*
X141420000Y-107760000D01*
G36*
X141420000Y-107760000D02*
G01*
X140840000Y-107760000D01*
X140840000Y-107040000D01*
X141420000Y-107040000D01*
X141420000Y-107760000D01*
G37*
X141420000Y-108760000D02*
X140840000Y-108760000D01*
X140840000Y-108040000D01*
X141420000Y-108040000D01*
X141420000Y-108760000D01*
G36*
X141420000Y-108760000D02*
G01*
X140840000Y-108760000D01*
X140840000Y-108040000D01*
X141420000Y-108040000D01*
X141420000Y-108760000D01*
G37*
X141420000Y-120960000D02*
X140840000Y-120960000D01*
X140840000Y-120240000D01*
X141420000Y-120240000D01*
X141420000Y-120960000D01*
G36*
X141420000Y-120960000D02*
G01*
X140840000Y-120960000D01*
X140840000Y-120240000D01*
X141420000Y-120240000D01*
X141420000Y-120960000D01*
G37*
X141420000Y-121960000D02*
X140840000Y-121960000D01*
X140840000Y-121240000D01*
X141420000Y-121240000D01*
X141420000Y-121960000D01*
G36*
X141420000Y-121960000D02*
G01*
X140840000Y-121960000D01*
X140840000Y-121240000D01*
X141420000Y-121240000D01*
X141420000Y-121960000D01*
G37*
X142460000Y-107760000D02*
X141880000Y-107760000D01*
X141880000Y-107040000D01*
X142460000Y-107040000D01*
X142460000Y-107760000D01*
G36*
X142460000Y-107760000D02*
G01*
X141880000Y-107760000D01*
X141880000Y-107040000D01*
X142460000Y-107040000D01*
X142460000Y-107760000D01*
G37*
X142460000Y-108760000D02*
X141880000Y-108760000D01*
X141880000Y-108040000D01*
X142460000Y-108040000D01*
X142460000Y-108760000D01*
G36*
X142460000Y-108760000D02*
G01*
X141880000Y-108760000D01*
X141880000Y-108040000D01*
X142460000Y-108040000D01*
X142460000Y-108760000D01*
G37*
X142460000Y-120960000D02*
X141880000Y-120960000D01*
X141880000Y-120240000D01*
X142460000Y-120240000D01*
X142460000Y-120960000D01*
G36*
X142460000Y-120960000D02*
G01*
X141880000Y-120960000D01*
X141880000Y-120240000D01*
X142460000Y-120240000D01*
X142460000Y-120960000D01*
G37*
X142460000Y-121960000D02*
X141880000Y-121960000D01*
X141880000Y-121240000D01*
X142460000Y-121240000D01*
X142460000Y-121960000D01*
G36*
X142460000Y-121960000D02*
G01*
X141880000Y-121960000D01*
X141880000Y-121240000D01*
X142460000Y-121240000D01*
X142460000Y-121960000D01*
G37*
X143320000Y-107760000D02*
X142740000Y-107760000D01*
X142740000Y-107040000D01*
X143320000Y-107040000D01*
X143320000Y-107760000D01*
G36*
X143320000Y-107760000D02*
G01*
X142740000Y-107760000D01*
X142740000Y-107040000D01*
X143320000Y-107040000D01*
X143320000Y-107760000D01*
G37*
X143320000Y-108760000D02*
X142740000Y-108760000D01*
X142740000Y-108040000D01*
X143320000Y-108040000D01*
X143320000Y-108760000D01*
G36*
X143320000Y-108760000D02*
G01*
X142740000Y-108760000D01*
X142740000Y-108040000D01*
X143320000Y-108040000D01*
X143320000Y-108760000D01*
G37*
X143320000Y-120960000D02*
X142740000Y-120960000D01*
X142740000Y-120240000D01*
X143320000Y-120240000D01*
X143320000Y-120960000D01*
G36*
X143320000Y-120960000D02*
G01*
X142740000Y-120960000D01*
X142740000Y-120240000D01*
X143320000Y-120240000D01*
X143320000Y-120960000D01*
G37*
X143320000Y-121960000D02*
X142740000Y-121960000D01*
X142740000Y-121240000D01*
X143320000Y-121240000D01*
X143320000Y-121960000D01*
G36*
X143320000Y-121960000D02*
G01*
X142740000Y-121960000D01*
X142740000Y-121240000D01*
X143320000Y-121240000D01*
X143320000Y-121960000D01*
G37*
X144360000Y-107760000D02*
X143780000Y-107760000D01*
X143780000Y-107040000D01*
X144360000Y-107040000D01*
X144360000Y-107760000D01*
G36*
X144360000Y-107760000D02*
G01*
X143780000Y-107760000D01*
X143780000Y-107040000D01*
X144360000Y-107040000D01*
X144360000Y-107760000D01*
G37*
X144360000Y-108760000D02*
X143780000Y-108760000D01*
X143780000Y-108040000D01*
X144360000Y-108040000D01*
X144360000Y-108760000D01*
G36*
X144360000Y-108760000D02*
G01*
X143780000Y-108760000D01*
X143780000Y-108040000D01*
X144360000Y-108040000D01*
X144360000Y-108760000D01*
G37*
X144360000Y-120960000D02*
X143780000Y-120960000D01*
X143780000Y-120240000D01*
X144360000Y-120240000D01*
X144360000Y-120960000D01*
G36*
X144360000Y-120960000D02*
G01*
X143780000Y-120960000D01*
X143780000Y-120240000D01*
X144360000Y-120240000D01*
X144360000Y-120960000D01*
G37*
X144360000Y-121960000D02*
X143780000Y-121960000D01*
X143780000Y-121240000D01*
X144360000Y-121240000D01*
X144360000Y-121960000D01*
G36*
X144360000Y-121960000D02*
G01*
X143780000Y-121960000D01*
X143780000Y-121240000D01*
X144360000Y-121240000D01*
X144360000Y-121960000D01*
G37*
X145220000Y-107760000D02*
X144640000Y-107760000D01*
X144640000Y-107040000D01*
X145220000Y-107040000D01*
X145220000Y-107760000D01*
G36*
X145220000Y-107760000D02*
G01*
X144640000Y-107760000D01*
X144640000Y-107040000D01*
X145220000Y-107040000D01*
X145220000Y-107760000D01*
G37*
X145220000Y-108760000D02*
X144640000Y-108760000D01*
X144640000Y-108040000D01*
X145220000Y-108040000D01*
X145220000Y-108760000D01*
G36*
X145220000Y-108760000D02*
G01*
X144640000Y-108760000D01*
X144640000Y-108040000D01*
X145220000Y-108040000D01*
X145220000Y-108760000D01*
G37*
X145220000Y-120960000D02*
X144640000Y-120960000D01*
X144640000Y-120240000D01*
X145220000Y-120240000D01*
X145220000Y-120960000D01*
G36*
X145220000Y-120960000D02*
G01*
X144640000Y-120960000D01*
X144640000Y-120240000D01*
X145220000Y-120240000D01*
X145220000Y-120960000D01*
G37*
X145220000Y-121960000D02*
X144640000Y-121960000D01*
X144640000Y-121240000D01*
X145220000Y-121240000D01*
X145220000Y-121960000D01*
G36*
X145220000Y-121960000D02*
G01*
X144640000Y-121960000D01*
X144640000Y-121240000D01*
X145220000Y-121240000D01*
X145220000Y-121960000D01*
G37*
X146260000Y-107760000D02*
X145680000Y-107760000D01*
X145680000Y-107040000D01*
X146260000Y-107040000D01*
X146260000Y-107760000D01*
G36*
X146260000Y-107760000D02*
G01*
X145680000Y-107760000D01*
X145680000Y-107040000D01*
X146260000Y-107040000D01*
X146260000Y-107760000D01*
G37*
X146260000Y-108760000D02*
X145680000Y-108760000D01*
X145680000Y-108040000D01*
X146260000Y-108040000D01*
X146260000Y-108760000D01*
G36*
X146260000Y-108760000D02*
G01*
X145680000Y-108760000D01*
X145680000Y-108040000D01*
X146260000Y-108040000D01*
X146260000Y-108760000D01*
G37*
X146260000Y-120960000D02*
X145680000Y-120960000D01*
X145680000Y-120240000D01*
X146260000Y-120240000D01*
X146260000Y-120960000D01*
G36*
X146260000Y-120960000D02*
G01*
X145680000Y-120960000D01*
X145680000Y-120240000D01*
X146260000Y-120240000D01*
X146260000Y-120960000D01*
G37*
X146260000Y-121960000D02*
X145680000Y-121960000D01*
X145680000Y-121240000D01*
X146260000Y-121240000D01*
X146260000Y-121960000D01*
G36*
X146260000Y-121960000D02*
G01*
X145680000Y-121960000D01*
X145680000Y-121240000D01*
X146260000Y-121240000D01*
X146260000Y-121960000D01*
G37*
X147120000Y-107760000D02*
X146540000Y-107760000D01*
X146540000Y-107040000D01*
X147120000Y-107040000D01*
X147120000Y-107760000D01*
G36*
X147120000Y-107760000D02*
G01*
X146540000Y-107760000D01*
X146540000Y-107040000D01*
X147120000Y-107040000D01*
X147120000Y-107760000D01*
G37*
X147120000Y-108760000D02*
X146540000Y-108760000D01*
X146540000Y-108040000D01*
X147120000Y-108040000D01*
X147120000Y-108760000D01*
G36*
X147120000Y-108760000D02*
G01*
X146540000Y-108760000D01*
X146540000Y-108040000D01*
X147120000Y-108040000D01*
X147120000Y-108760000D01*
G37*
X147120000Y-120960000D02*
X146540000Y-120960000D01*
X146540000Y-120240000D01*
X147120000Y-120240000D01*
X147120000Y-120960000D01*
G36*
X147120000Y-120960000D02*
G01*
X146540000Y-120960000D01*
X146540000Y-120240000D01*
X147120000Y-120240000D01*
X147120000Y-120960000D01*
G37*
X147120000Y-121960000D02*
X146540000Y-121960000D01*
X146540000Y-121240000D01*
X147120000Y-121240000D01*
X147120000Y-121960000D01*
G36*
X147120000Y-121960000D02*
G01*
X146540000Y-121960000D01*
X146540000Y-121240000D01*
X147120000Y-121240000D01*
X147120000Y-121960000D01*
G37*
X148160000Y-107760000D02*
X147580000Y-107760000D01*
X147580000Y-107040000D01*
X148160000Y-107040000D01*
X148160000Y-107760000D01*
G36*
X148160000Y-107760000D02*
G01*
X147580000Y-107760000D01*
X147580000Y-107040000D01*
X148160000Y-107040000D01*
X148160000Y-107760000D01*
G37*
X148160000Y-108760000D02*
X147580000Y-108760000D01*
X147580000Y-108040000D01*
X148160000Y-108040000D01*
X148160000Y-108760000D01*
G36*
X148160000Y-108760000D02*
G01*
X147580000Y-108760000D01*
X147580000Y-108040000D01*
X148160000Y-108040000D01*
X148160000Y-108760000D01*
G37*
X148160000Y-120960000D02*
X147580000Y-120960000D01*
X147580000Y-120240000D01*
X148160000Y-120240000D01*
X148160000Y-120960000D01*
G36*
X148160000Y-120960000D02*
G01*
X147580000Y-120960000D01*
X147580000Y-120240000D01*
X148160000Y-120240000D01*
X148160000Y-120960000D01*
G37*
X148160000Y-121960000D02*
X147580000Y-121960000D01*
X147580000Y-121240000D01*
X148160000Y-121240000D01*
X148160000Y-121960000D01*
G36*
X148160000Y-121960000D02*
G01*
X147580000Y-121960000D01*
X147580000Y-121240000D01*
X148160000Y-121240000D01*
X148160000Y-121960000D01*
G37*
X149020000Y-107760000D02*
X148440000Y-107760000D01*
X148440000Y-107040000D01*
X149020000Y-107040000D01*
X149020000Y-107760000D01*
G36*
X149020000Y-107760000D02*
G01*
X148440000Y-107760000D01*
X148440000Y-107040000D01*
X149020000Y-107040000D01*
X149020000Y-107760000D01*
G37*
X149020000Y-108760000D02*
X148440000Y-108760000D01*
X148440000Y-108040000D01*
X149020000Y-108040000D01*
X149020000Y-108760000D01*
G36*
X149020000Y-108760000D02*
G01*
X148440000Y-108760000D01*
X148440000Y-108040000D01*
X149020000Y-108040000D01*
X149020000Y-108760000D01*
G37*
X149020000Y-120960000D02*
X148440000Y-120960000D01*
X148440000Y-120240000D01*
X149020000Y-120240000D01*
X149020000Y-120960000D01*
G36*
X149020000Y-120960000D02*
G01*
X148440000Y-120960000D01*
X148440000Y-120240000D01*
X149020000Y-120240000D01*
X149020000Y-120960000D01*
G37*
X149020000Y-121960000D02*
X148440000Y-121960000D01*
X148440000Y-121240000D01*
X149020000Y-121240000D01*
X149020000Y-121960000D01*
G36*
X149020000Y-121960000D02*
G01*
X148440000Y-121960000D01*
X148440000Y-121240000D01*
X149020000Y-121240000D01*
X149020000Y-121960000D01*
G37*
X150960000Y-110560000D02*
X150240000Y-110560000D01*
X150240000Y-109980000D01*
X150960000Y-109980000D01*
X150960000Y-110560000D01*
G36*
X150960000Y-110560000D02*
G01*
X150240000Y-110560000D01*
X150240000Y-109980000D01*
X150960000Y-109980000D01*
X150960000Y-110560000D01*
G37*
X150960000Y-111420000D02*
X150240000Y-111420000D01*
X150240000Y-110840000D01*
X150960000Y-110840000D01*
X150960000Y-111420000D01*
G36*
X150960000Y-111420000D02*
G01*
X150240000Y-111420000D01*
X150240000Y-110840000D01*
X150960000Y-110840000D01*
X150960000Y-111420000D01*
G37*
X150960000Y-112460000D02*
X150240000Y-112460000D01*
X150240000Y-111880000D01*
X150960000Y-111880000D01*
X150960000Y-112460000D01*
G36*
X150960000Y-112460000D02*
G01*
X150240000Y-112460000D01*
X150240000Y-111880000D01*
X150960000Y-111880000D01*
X150960000Y-112460000D01*
G37*
X150960000Y-113320000D02*
X150240000Y-113320000D01*
X150240000Y-112740000D01*
X150960000Y-112740000D01*
X150960000Y-113320000D01*
G36*
X150960000Y-113320000D02*
G01*
X150240000Y-113320000D01*
X150240000Y-112740000D01*
X150960000Y-112740000D01*
X150960000Y-113320000D01*
G37*
X150960000Y-114360000D02*
X150240000Y-114360000D01*
X150240000Y-113780000D01*
X150960000Y-113780000D01*
X150960000Y-114360000D01*
G36*
X150960000Y-114360000D02*
G01*
X150240000Y-114360000D01*
X150240000Y-113780000D01*
X150960000Y-113780000D01*
X150960000Y-114360000D01*
G37*
X150960000Y-115220000D02*
X150240000Y-115220000D01*
X150240000Y-114640000D01*
X150960000Y-114640000D01*
X150960000Y-115220000D01*
G36*
X150960000Y-115220000D02*
G01*
X150240000Y-115220000D01*
X150240000Y-114640000D01*
X150960000Y-114640000D01*
X150960000Y-115220000D01*
G37*
X150960000Y-116260000D02*
X150240000Y-116260000D01*
X150240000Y-115680000D01*
X150960000Y-115680000D01*
X150960000Y-116260000D01*
G36*
X150960000Y-116260000D02*
G01*
X150240000Y-116260000D01*
X150240000Y-115680000D01*
X150960000Y-115680000D01*
X150960000Y-116260000D01*
G37*
X150960000Y-117120000D02*
X150240000Y-117120000D01*
X150240000Y-116540000D01*
X150960000Y-116540000D01*
X150960000Y-117120000D01*
G36*
X150960000Y-117120000D02*
G01*
X150240000Y-117120000D01*
X150240000Y-116540000D01*
X150960000Y-116540000D01*
X150960000Y-117120000D01*
G37*
X150960000Y-118160000D02*
X150240000Y-118160000D01*
X150240000Y-117580000D01*
X150960000Y-117580000D01*
X150960000Y-118160000D01*
G36*
X150960000Y-118160000D02*
G01*
X150240000Y-118160000D01*
X150240000Y-117580000D01*
X150960000Y-117580000D01*
X150960000Y-118160000D01*
G37*
X150960000Y-119020000D02*
X150240000Y-119020000D01*
X150240000Y-118440000D01*
X150960000Y-118440000D01*
X150960000Y-119020000D01*
G36*
X150960000Y-119020000D02*
G01*
X150240000Y-119020000D01*
X150240000Y-118440000D01*
X150960000Y-118440000D01*
X150960000Y-119020000D01*
G37*
X151960000Y-110560000D02*
X151240000Y-110560000D01*
X151240000Y-109980000D01*
X151960000Y-109980000D01*
X151960000Y-110560000D01*
G36*
X151960000Y-110560000D02*
G01*
X151240000Y-110560000D01*
X151240000Y-109980000D01*
X151960000Y-109980000D01*
X151960000Y-110560000D01*
G37*
X151960000Y-111420000D02*
X151240000Y-111420000D01*
X151240000Y-110840000D01*
X151960000Y-110840000D01*
X151960000Y-111420000D01*
G36*
X151960000Y-111420000D02*
G01*
X151240000Y-111420000D01*
X151240000Y-110840000D01*
X151960000Y-110840000D01*
X151960000Y-111420000D01*
G37*
X151960000Y-112460000D02*
X151240000Y-112460000D01*
X151240000Y-111880000D01*
X151960000Y-111880000D01*
X151960000Y-112460000D01*
G36*
X151960000Y-112460000D02*
G01*
X151240000Y-112460000D01*
X151240000Y-111880000D01*
X151960000Y-111880000D01*
X151960000Y-112460000D01*
G37*
X151960000Y-113320000D02*
X151240000Y-113320000D01*
X151240000Y-112740000D01*
X151960000Y-112740000D01*
X151960000Y-113320000D01*
G36*
X151960000Y-113320000D02*
G01*
X151240000Y-113320000D01*
X151240000Y-112740000D01*
X151960000Y-112740000D01*
X151960000Y-113320000D01*
G37*
X151960000Y-114360000D02*
X151240000Y-114360000D01*
X151240000Y-113780000D01*
X151960000Y-113780000D01*
X151960000Y-114360000D01*
G36*
X151960000Y-114360000D02*
G01*
X151240000Y-114360000D01*
X151240000Y-113780000D01*
X151960000Y-113780000D01*
X151960000Y-114360000D01*
G37*
X151960000Y-115220000D02*
X151240000Y-115220000D01*
X151240000Y-114640000D01*
X151960000Y-114640000D01*
X151960000Y-115220000D01*
G36*
X151960000Y-115220000D02*
G01*
X151240000Y-115220000D01*
X151240000Y-114640000D01*
X151960000Y-114640000D01*
X151960000Y-115220000D01*
G37*
X151960000Y-116260000D02*
X151240000Y-116260000D01*
X151240000Y-115680000D01*
X151960000Y-115680000D01*
X151960000Y-116260000D01*
G36*
X151960000Y-116260000D02*
G01*
X151240000Y-116260000D01*
X151240000Y-115680000D01*
X151960000Y-115680000D01*
X151960000Y-116260000D01*
G37*
X151960000Y-117120000D02*
X151240000Y-117120000D01*
X151240000Y-116540000D01*
X151960000Y-116540000D01*
X151960000Y-117120000D01*
G36*
X151960000Y-117120000D02*
G01*
X151240000Y-117120000D01*
X151240000Y-116540000D01*
X151960000Y-116540000D01*
X151960000Y-117120000D01*
G37*
X151960000Y-118160000D02*
X151240000Y-118160000D01*
X151240000Y-117580000D01*
X151960000Y-117580000D01*
X151960000Y-118160000D01*
G36*
X151960000Y-118160000D02*
G01*
X151240000Y-118160000D01*
X151240000Y-117580000D01*
X151960000Y-117580000D01*
X151960000Y-118160000D01*
G37*
X151960000Y-119020000D02*
X151240000Y-119020000D01*
X151240000Y-118440000D01*
X151960000Y-118440000D01*
X151960000Y-119020000D01*
G36*
X151960000Y-119020000D02*
G01*
X151240000Y-119020000D01*
X151240000Y-118440000D01*
X151960000Y-118440000D01*
X151960000Y-119020000D01*
G37*
%TD*%
D11*
%TO.C,R21*%
X128250000Y-42587500D03*
X128250000Y-44412500D03*
%TD*%
D12*
%TO.C,Q1*%
X107450000Y-121562500D03*
X105550000Y-121562500D03*
X106500000Y-123437500D03*
%TD*%
D13*
%TO.C,C23*%
X139525000Y-50750000D03*
X137975000Y-50750000D03*
%TD*%
D11*
%TO.C,R26*%
X109750000Y-42587500D03*
X109750000Y-44412500D03*
%TD*%
D14*
%TO.C,C19*%
X164750000Y-87300000D03*
X164750000Y-83700000D03*
%TD*%
D15*
%TO.C,L2*%
X104425000Y-88500000D03*
X106575000Y-88500000D03*
%TD*%
D16*
%TO.C,J2*%
X114750000Y-98875000D03*
X113750000Y-100625000D03*
X112750000Y-98875000D03*
X111750000Y-100625000D03*
%TD*%
D17*
%TO.C,C9*%
X118000000Y-121475000D03*
X118000000Y-123025000D03*
%TD*%
D18*
%TO.C,D6*%
X136500000Y-69687500D03*
X136500000Y-67812500D03*
%TD*%
D19*
%TO.C,R10*%
X112825000Y-118500000D03*
X111175000Y-118500000D03*
%TD*%
D20*
%TO.C,R18*%
X136250000Y-50675000D03*
X136250000Y-52325000D03*
%TD*%
D21*
%TO.C,R13*%
X149750000Y-52575000D03*
X149750000Y-50925000D03*
%TD*%
D22*
%TO.C,D10*%
X118500000Y-46312500D03*
X118500000Y-48187500D03*
%TD*%
D11*
%TO.C,R23*%
X121750000Y-42587500D03*
X121750000Y-44412500D03*
%TD*%
D22*
%TO.C,D9*%
X121750000Y-46312500D03*
X121750000Y-48187500D03*
%TD*%
D23*
%TO.C,C8*%
X111800000Y-73000000D03*
X108200000Y-73000000D03*
%TD*%
D24*
%TO.C,C5*%
X105000000Y-115975000D03*
X105000000Y-113025000D03*
%TD*%
D13*
%TO.C,C16*%
X136025000Y-61000000D03*
X134475000Y-61000000D03*
%TD*%
D25*
%TO.C,Q5*%
X145300000Y-54850000D03*
X143000000Y-54850000D03*
D26*
X143000000Y-61150000D03*
D25*
X140700000Y-54850000D03*
%TD*%
D27*
%TO.C,C2*%
X121475000Y-87500000D03*
X123025000Y-87500000D03*
%TD*%
D28*
%TO.C,R14*%
X149662500Y-54750000D03*
X147837500Y-54750000D03*
%TD*%
D11*
%TO.C,R24*%
X118500000Y-42587500D03*
X118500000Y-44412500D03*
%TD*%
D21*
%TO.C,R9*%
X115250000Y-115575000D03*
X115250000Y-113925000D03*
%TD*%
%TO.C,R8*%
X112740000Y-115575000D03*
X112740000Y-113925000D03*
%TD*%
D22*
%TO.C,D12*%
X109750000Y-46312500D03*
X109750000Y-48187500D03*
%TD*%
D20*
%TO.C,R5*%
X104500000Y-109675000D03*
X104500000Y-111325000D03*
%TD*%
D29*
%TO.C,J3*%
X105700000Y-47725000D03*
X104900000Y-47725000D03*
D30*
X103750000Y-47725000D03*
X102750000Y-47725000D03*
X102250000Y-47725000D03*
X101250000Y-47725000D03*
D29*
X100100000Y-47725000D03*
X99300000Y-47725000D03*
X99300000Y-47725000D03*
X100100000Y-47725000D03*
D30*
X100750000Y-47725000D03*
X101750000Y-47725000D03*
X103250000Y-47725000D03*
X104250000Y-47725000D03*
D29*
X104900000Y-47725000D03*
X105700000Y-47725000D03*
%TD*%
D31*
%TO.C,Q3*%
X156300000Y-57187500D03*
X158200000Y-57187500D03*
X157250000Y-55312500D03*
%TD*%
D32*
%TO.C,C21*%
X98500000Y-54525000D03*
X98500000Y-52975000D03*
%TD*%
D13*
%TO.C,C1*%
X101775000Y-87500000D03*
X100225000Y-87500000D03*
%TD*%
D20*
%TO.C,R17*%
X100750000Y-50425000D03*
X100750000Y-52075000D03*
%TD*%
D27*
%TO.C,C15*%
X122475000Y-61000000D03*
X124025000Y-61000000D03*
%TD*%
D20*
%TO.C,R11*%
X131500000Y-45250000D03*
X131500000Y-46900000D03*
%TD*%
D33*
%TO.C,U4*%
X125837500Y-62250000D03*
X125837500Y-62750000D03*
X125837500Y-63250000D03*
X125837500Y-63750000D03*
X125837500Y-64250000D03*
X125837500Y-64750000D03*
X125837500Y-65250000D03*
X125837500Y-65750000D03*
X125837500Y-66250000D03*
X125837500Y-66750000D03*
X125837500Y-67250000D03*
X125837500Y-67750000D03*
D34*
X127250000Y-69162500D03*
X127750000Y-69162500D03*
X128250000Y-69162500D03*
X128750000Y-69162500D03*
X129250000Y-69162500D03*
X129750000Y-69162500D03*
X130250000Y-69162500D03*
X130750000Y-69162500D03*
X131250000Y-69162500D03*
X131750000Y-69162500D03*
X132250000Y-69162500D03*
X132750000Y-69162500D03*
D33*
X134162500Y-67750000D03*
X134162500Y-67250000D03*
X134162500Y-66750000D03*
X134162500Y-66250000D03*
X134162500Y-65750000D03*
X134162500Y-65250000D03*
X134162500Y-64750000D03*
X134162500Y-64250000D03*
X134162500Y-63750000D03*
X134162500Y-63250000D03*
X134162500Y-62750000D03*
X134162500Y-62250000D03*
D34*
X132750000Y-60837500D03*
X132250000Y-60837500D03*
X131750000Y-60837500D03*
X131250000Y-60837500D03*
X130750000Y-60837500D03*
X130250000Y-60837500D03*
X129750000Y-60837500D03*
X129250000Y-60837500D03*
X128750000Y-60837500D03*
X128250000Y-60837500D03*
X127750000Y-60837500D03*
X127250000Y-60837500D03*
%TD*%
D35*
%TO.C,L1*%
X102075000Y-107500000D03*
X99925000Y-107500000D03*
%TD*%
D11*
%TO.C,R25*%
X115250000Y-42587500D03*
X115250000Y-44412500D03*
%TD*%
D22*
%TO.C,D7*%
X128250000Y-46312500D03*
X128250000Y-48187500D03*
%TD*%
D32*
%TO.C,C14*%
X115000000Y-73775000D03*
X115000000Y-72225000D03*
%TD*%
D36*
%TO.C,R12*%
X160337500Y-55250000D03*
X162162500Y-55250000D03*
%TD*%
D37*
%TO.C,D4*%
X151850000Y-52500000D03*
X155150000Y-52500000D03*
%TD*%
D31*
%TO.C,Q2*%
X109550000Y-123437500D03*
X111450000Y-123437500D03*
X110500000Y-121562500D03*
%TD*%
D14*
%TO.C,C12*%
X121250000Y-56800000D03*
X121250000Y-53200000D03*
%TD*%
D20*
%TO.C,R4*%
X98000000Y-92675000D03*
X98000000Y-94325000D03*
%TD*%
D17*
%TO.C,C11*%
X115000000Y-55225000D03*
X115000000Y-56775000D03*
%TD*%
D38*
%TO.C,R20*%
X136500000Y-73412500D03*
X136500000Y-71587500D03*
%TD*%
D39*
%TO.C,Y1*%
X115000000Y-68750000D03*
X115000000Y-60250000D03*
%TD*%
D40*
%TO.C,D5*%
X100750000Y-57250000D03*
D41*
X102450000Y-57250000D03*
X102450000Y-55250000D03*
X100550000Y-55250000D03*
%TD*%
D42*
%TO.C,M1*%
X131537500Y-87905000D03*
X131537500Y-86635000D03*
X131537500Y-85365000D03*
X131537500Y-84095000D03*
X126462500Y-84095000D03*
X126462500Y-85365000D03*
X126462500Y-86635000D03*
X126462500Y-87905000D03*
%TD*%
D20*
%TO.C,R16*%
X104750000Y-50425000D03*
X104750000Y-52075000D03*
%TD*%
D17*
%TO.C,C18*%
X126000000Y-57475000D03*
X126000000Y-59025000D03*
%TD*%
D43*
%TO.C,J1*%
X134715000Y-76210000D03*
X138785000Y-76210000D03*
X134715000Y-77480000D03*
X138785000Y-77480000D03*
X134715000Y-78750000D03*
X138785000Y-78750000D03*
X134715000Y-80020000D03*
X138785000Y-80020000D03*
X134715000Y-81290000D03*
X138785000Y-81290000D03*
%TD*%
D22*
%TO.C,F1*%
X98750000Y-59062500D03*
X98750000Y-60937500D03*
%TD*%
D44*
%TO.C,FB1*%
X98750000Y-62712500D03*
X98750000Y-64287500D03*
%TD*%
D22*
%TO.C,D8*%
X125000000Y-46312500D03*
X125000000Y-48187500D03*
%TD*%
D20*
%TO.C,R1*%
X120000000Y-79425000D03*
X120000000Y-81075000D03*
%TD*%
D45*
%TO.C,C4*%
X111500000Y-88800000D03*
X111500000Y-93200000D03*
%TD*%
D17*
%TO.C,C20*%
X149750000Y-47725000D03*
X149750000Y-49275000D03*
%TD*%
D21*
%TO.C,R15*%
X143000000Y-65075000D03*
X143000000Y-63425000D03*
%TD*%
D17*
%TO.C,C13*%
X109500000Y-98975000D03*
X109500000Y-100525000D03*
%TD*%
D46*
%TO.C,D1*%
X98750000Y-70700000D03*
X98750000Y-66300000D03*
%TD*%
D47*
%TO.C,U3*%
X113862500Y-121550000D03*
X113862500Y-122500000D03*
X113862500Y-123450000D03*
X116137500Y-123450000D03*
X116137500Y-122500000D03*
X116137500Y-121550000D03*
%TD*%
D21*
%TO.C,R6*%
X97500000Y-117325000D03*
X97500000Y-115675000D03*
%TD*%
D47*
%TO.C,U2*%
X99862500Y-111550000D03*
X99862500Y-112500000D03*
X99862500Y-113450000D03*
X102137500Y-113450000D03*
X102137500Y-112500000D03*
X102137500Y-111550000D03*
%TD*%
D32*
%TO.C,C10*%
X123000000Y-68025000D03*
X123000000Y-66475000D03*
%TD*%
D11*
%TO.C,R22*%
X125000000Y-42587500D03*
X125000000Y-44412500D03*
%TD*%
D47*
%TO.C,U1*%
X99862500Y-89550000D03*
X99862500Y-90500000D03*
X99862500Y-91450000D03*
X102137500Y-91450000D03*
X102137500Y-90500000D03*
X102137500Y-89550000D03*
%TD*%
D24*
%TO.C,C3*%
X105000000Y-93975000D03*
X105000000Y-91025000D03*
%TD*%
D27*
%TO.C,C7*%
X118475000Y-77750000D03*
X120025000Y-77750000D03*
%TD*%
D32*
%TO.C,C17*%
X134000000Y-71025000D03*
X134000000Y-69475000D03*
%TD*%
D45*
%TO.C,C6*%
X109500000Y-103300000D03*
X109500000Y-107700000D03*
%TD*%
D48*
%TO.C,BZ1*%
X162250000Y-52700000D03*
X162250000Y-42800000D03*
%TD*%
D49*
%TO.C,R2*%
X104675000Y-85000000D03*
X106325000Y-85000000D03*
%TD*%
%TO.C,R7*%
X116425000Y-118500000D03*
X118075000Y-118500000D03*
%TD*%
D50*
%TO.C,C22*%
X94950000Y-42250000D03*
X93050000Y-42250000D03*
%TD*%
D19*
%TO.C,R19*%
X94825000Y-44250000D03*
X93175000Y-44250000D03*
%TD*%
D51*
%TO.C,L3*%
X120000000Y-66675000D03*
X120000000Y-68825000D03*
%TD*%
D52*
%TO.C,D2*%
X104200000Y-103500000D03*
X99800000Y-103500000D03*
%TD*%
D53*
%TO.C,D3*%
X109500000Y-111300000D03*
X109500000Y-115700000D03*
%TD*%
D54*
%TO.C,BT1*%
X85500000Y-129660000D03*
X85500000Y-51000000D03*
%TD*%
D21*
%TO.C,R3*%
X97500000Y-102825000D03*
X97500000Y-101175000D03*
%TD*%
D22*
%TO.C,D11*%
X115250000Y-46312500D03*
X115250000Y-48187500D03*
%TD*%
D55*
%TO.C,Q4*%
X142950000Y-49400000D03*
X145250000Y-49400000D03*
D56*
X145250000Y-43100000D03*
D55*
X147550000Y-49400000D03*
%TD*%
M02*
