%TF.GenerationSoftware,KiCad,Pcbnew,9.0.0*%
%TF.CreationDate,2025-04-07T01:58:01+02:00*%
%TF.ProjectId,Mastersthesis,4d617374-6572-4737-9468-657369732e6b,0*%
%TF.SameCoordinates,Original*%
%TF.FileFunction,Legend,Bot*%
%TF.FilePolarity,Positive*%
%FSLAX46Y46*%
G04 Gerber Fmt 4.6, Leading zero omitted, Abs format (unit mm)*
G04 Created by KiCad (PCBNEW 9.0.0) date 2025-04-07 01:58:01*
%MOMM*%
%LPD*%
G01*
G04 APERTURE LIST*
%ADD10C,0.200000*%
G04 APERTURE END LIST*
D10*
X71335174Y-77167292D02*
X73335174Y-77643482D01*
X73335174Y-77643482D02*
X71906602Y-78024435D01*
X71906602Y-78024435D02*
X73335174Y-78405387D01*
X73335174Y-78405387D02*
X71335174Y-78881578D01*
X73335174Y-80500625D02*
X72287555Y-80500625D01*
X72287555Y-80500625D02*
X72097078Y-80405387D01*
X72097078Y-80405387D02*
X72001840Y-80214911D01*
X72001840Y-80214911D02*
X72001840Y-79833958D01*
X72001840Y-79833958D02*
X72097078Y-79643482D01*
X73239936Y-80500625D02*
X73335174Y-80310149D01*
X73335174Y-80310149D02*
X73335174Y-79833958D01*
X73335174Y-79833958D02*
X73239936Y-79643482D01*
X73239936Y-79643482D02*
X73049459Y-79548244D01*
X73049459Y-79548244D02*
X72858983Y-79548244D01*
X72858983Y-79548244D02*
X72668507Y-79643482D01*
X72668507Y-79643482D02*
X72573269Y-79833958D01*
X72573269Y-79833958D02*
X72573269Y-80310149D01*
X72573269Y-80310149D02*
X72478031Y-80500625D01*
X72001840Y-81167292D02*
X72001840Y-81929196D01*
X71335174Y-81453006D02*
X73049459Y-81453006D01*
X73049459Y-81453006D02*
X73239936Y-81548244D01*
X73239936Y-81548244D02*
X73335174Y-81738720D01*
X73335174Y-81738720D02*
X73335174Y-81929196D01*
X73239936Y-83357768D02*
X73335174Y-83167292D01*
X73335174Y-83167292D02*
X73335174Y-82786339D01*
X73335174Y-82786339D02*
X73239936Y-82595863D01*
X73239936Y-82595863D02*
X73049459Y-82500625D01*
X73049459Y-82500625D02*
X72287555Y-82500625D01*
X72287555Y-82500625D02*
X72097078Y-82595863D01*
X72097078Y-82595863D02*
X72001840Y-82786339D01*
X72001840Y-82786339D02*
X72001840Y-83167292D01*
X72001840Y-83167292D02*
X72097078Y-83357768D01*
X72097078Y-83357768D02*
X72287555Y-83453006D01*
X72287555Y-83453006D02*
X72478031Y-83453006D01*
X72478031Y-83453006D02*
X72668507Y-82500625D01*
X73335174Y-84310149D02*
X72001840Y-84310149D01*
X72382793Y-84310149D02*
X72192316Y-84405387D01*
X72192316Y-84405387D02*
X72097078Y-84500625D01*
X72097078Y-84500625D02*
X72001840Y-84691101D01*
X72001840Y-84691101D02*
X72001840Y-84881578D01*
X73335174Y-87929197D02*
X71335174Y-87929197D01*
X73239936Y-87929197D02*
X73335174Y-87738721D01*
X73335174Y-87738721D02*
X73335174Y-87357768D01*
X73335174Y-87357768D02*
X73239936Y-87167292D01*
X73239936Y-87167292D02*
X73144697Y-87072054D01*
X73144697Y-87072054D02*
X72954221Y-86976816D01*
X72954221Y-86976816D02*
X72382793Y-86976816D01*
X72382793Y-86976816D02*
X72192316Y-87072054D01*
X72192316Y-87072054D02*
X72097078Y-87167292D01*
X72097078Y-87167292D02*
X72001840Y-87357768D01*
X72001840Y-87357768D02*
X72001840Y-87738721D01*
X72001840Y-87738721D02*
X72097078Y-87929197D01*
X73239936Y-89643483D02*
X73335174Y-89453007D01*
X73335174Y-89453007D02*
X73335174Y-89072054D01*
X73335174Y-89072054D02*
X73239936Y-88881578D01*
X73239936Y-88881578D02*
X73049459Y-88786340D01*
X73049459Y-88786340D02*
X72287555Y-88786340D01*
X72287555Y-88786340D02*
X72097078Y-88881578D01*
X72097078Y-88881578D02*
X72001840Y-89072054D01*
X72001840Y-89072054D02*
X72001840Y-89453007D01*
X72001840Y-89453007D02*
X72097078Y-89643483D01*
X72097078Y-89643483D02*
X72287555Y-89738721D01*
X72287555Y-89738721D02*
X72478031Y-89738721D01*
X72478031Y-89738721D02*
X72668507Y-88786340D01*
X72001840Y-90595864D02*
X74001840Y-90595864D01*
X72097078Y-90595864D02*
X72001840Y-90786340D01*
X72001840Y-90786340D02*
X72001840Y-91167293D01*
X72001840Y-91167293D02*
X72097078Y-91357769D01*
X72097078Y-91357769D02*
X72192316Y-91453007D01*
X72192316Y-91453007D02*
X72382793Y-91548245D01*
X72382793Y-91548245D02*
X72954221Y-91548245D01*
X72954221Y-91548245D02*
X73144697Y-91453007D01*
X73144697Y-91453007D02*
X73239936Y-91357769D01*
X73239936Y-91357769D02*
X73335174Y-91167293D01*
X73335174Y-91167293D02*
X73335174Y-90786340D01*
X73335174Y-90786340D02*
X73239936Y-90595864D01*
X72001840Y-92119674D02*
X72001840Y-92881578D01*
X71335174Y-92405388D02*
X73049459Y-92405388D01*
X73049459Y-92405388D02*
X73239936Y-92500626D01*
X73239936Y-92500626D02*
X73335174Y-92691102D01*
X73335174Y-92691102D02*
X73335174Y-92881578D01*
X73335174Y-93548245D02*
X71335174Y-93548245D01*
X73335174Y-94405388D02*
X72287555Y-94405388D01*
X72287555Y-94405388D02*
X72097078Y-94310150D01*
X72097078Y-94310150D02*
X72001840Y-94119674D01*
X72001840Y-94119674D02*
X72001840Y-93833959D01*
X72001840Y-93833959D02*
X72097078Y-93643483D01*
X72097078Y-93643483D02*
X72192316Y-93548245D01*
X73335174Y-96881579D02*
X72001840Y-96881579D01*
X72192316Y-96881579D02*
X72097078Y-96976817D01*
X72097078Y-96976817D02*
X72001840Y-97167293D01*
X72001840Y-97167293D02*
X72001840Y-97453008D01*
X72001840Y-97453008D02*
X72097078Y-97643484D01*
X72097078Y-97643484D02*
X72287555Y-97738722D01*
X72287555Y-97738722D02*
X73335174Y-97738722D01*
X72287555Y-97738722D02*
X72097078Y-97833960D01*
X72097078Y-97833960D02*
X72001840Y-98024436D01*
X72001840Y-98024436D02*
X72001840Y-98310150D01*
X72001840Y-98310150D02*
X72097078Y-98500627D01*
X72097078Y-98500627D02*
X72287555Y-98595865D01*
X72287555Y-98595865D02*
X73335174Y-98595865D01*
X73239936Y-100310151D02*
X73335174Y-100119675D01*
X73335174Y-100119675D02*
X73335174Y-99738722D01*
X73335174Y-99738722D02*
X73239936Y-99548246D01*
X73239936Y-99548246D02*
X73049459Y-99453008D01*
X73049459Y-99453008D02*
X72287555Y-99453008D01*
X72287555Y-99453008D02*
X72097078Y-99548246D01*
X72097078Y-99548246D02*
X72001840Y-99738722D01*
X72001840Y-99738722D02*
X72001840Y-100119675D01*
X72001840Y-100119675D02*
X72097078Y-100310151D01*
X72097078Y-100310151D02*
X72287555Y-100405389D01*
X72287555Y-100405389D02*
X72478031Y-100405389D01*
X72478031Y-100405389D02*
X72668507Y-99453008D01*
X73335174Y-102119675D02*
X72287555Y-102119675D01*
X72287555Y-102119675D02*
X72097078Y-102024437D01*
X72097078Y-102024437D02*
X72001840Y-101833961D01*
X72001840Y-101833961D02*
X72001840Y-101453008D01*
X72001840Y-101453008D02*
X72097078Y-101262532D01*
X73239936Y-102119675D02*
X73335174Y-101929199D01*
X73335174Y-101929199D02*
X73335174Y-101453008D01*
X73335174Y-101453008D02*
X73239936Y-101262532D01*
X73239936Y-101262532D02*
X73049459Y-101167294D01*
X73049459Y-101167294D02*
X72858983Y-101167294D01*
X72858983Y-101167294D02*
X72668507Y-101262532D01*
X72668507Y-101262532D02*
X72573269Y-101453008D01*
X72573269Y-101453008D02*
X72573269Y-101929199D01*
X72573269Y-101929199D02*
X72478031Y-102119675D01*
X73239936Y-102976818D02*
X73335174Y-103167294D01*
X73335174Y-103167294D02*
X73335174Y-103548246D01*
X73335174Y-103548246D02*
X73239936Y-103738723D01*
X73239936Y-103738723D02*
X73049459Y-103833961D01*
X73049459Y-103833961D02*
X72954221Y-103833961D01*
X72954221Y-103833961D02*
X72763745Y-103738723D01*
X72763745Y-103738723D02*
X72668507Y-103548246D01*
X72668507Y-103548246D02*
X72668507Y-103262532D01*
X72668507Y-103262532D02*
X72573269Y-103072056D01*
X72573269Y-103072056D02*
X72382793Y-102976818D01*
X72382793Y-102976818D02*
X72287555Y-102976818D01*
X72287555Y-102976818D02*
X72097078Y-103072056D01*
X72097078Y-103072056D02*
X72001840Y-103262532D01*
X72001840Y-103262532D02*
X72001840Y-103548246D01*
X72001840Y-103548246D02*
X72097078Y-103738723D01*
X72001840Y-105548247D02*
X73335174Y-105548247D01*
X72001840Y-104691104D02*
X73049459Y-104691104D01*
X73049459Y-104691104D02*
X73239936Y-104786342D01*
X73239936Y-104786342D02*
X73335174Y-104976818D01*
X73335174Y-104976818D02*
X73335174Y-105262533D01*
X73335174Y-105262533D02*
X73239936Y-105453009D01*
X73239936Y-105453009D02*
X73144697Y-105548247D01*
X73335174Y-106500628D02*
X72001840Y-106500628D01*
X72382793Y-106500628D02*
X72192316Y-106595866D01*
X72192316Y-106595866D02*
X72097078Y-106691104D01*
X72097078Y-106691104D02*
X72001840Y-106881580D01*
X72001840Y-106881580D02*
X72001840Y-107072057D01*
X73239936Y-108500628D02*
X73335174Y-108310152D01*
X73335174Y-108310152D02*
X73335174Y-107929199D01*
X73335174Y-107929199D02*
X73239936Y-107738723D01*
X73239936Y-107738723D02*
X73049459Y-107643485D01*
X73049459Y-107643485D02*
X72287555Y-107643485D01*
X72287555Y-107643485D02*
X72097078Y-107738723D01*
X72097078Y-107738723D02*
X72001840Y-107929199D01*
X72001840Y-107929199D02*
X72001840Y-108310152D01*
X72001840Y-108310152D02*
X72097078Y-108500628D01*
X72097078Y-108500628D02*
X72287555Y-108595866D01*
X72287555Y-108595866D02*
X72478031Y-108595866D01*
X72478031Y-108595866D02*
X72668507Y-107643485D01*
X73335174Y-109453009D02*
X72001840Y-109453009D01*
X72192316Y-109453009D02*
X72097078Y-109548247D01*
X72097078Y-109548247D02*
X72001840Y-109738723D01*
X72001840Y-109738723D02*
X72001840Y-110024438D01*
X72001840Y-110024438D02*
X72097078Y-110214914D01*
X72097078Y-110214914D02*
X72287555Y-110310152D01*
X72287555Y-110310152D02*
X73335174Y-110310152D01*
X72287555Y-110310152D02*
X72097078Y-110405390D01*
X72097078Y-110405390D02*
X72001840Y-110595866D01*
X72001840Y-110595866D02*
X72001840Y-110881580D01*
X72001840Y-110881580D02*
X72097078Y-111072057D01*
X72097078Y-111072057D02*
X72287555Y-111167295D01*
X72287555Y-111167295D02*
X73335174Y-111167295D01*
X73239936Y-112881581D02*
X73335174Y-112691105D01*
X73335174Y-112691105D02*
X73335174Y-112310152D01*
X73335174Y-112310152D02*
X73239936Y-112119676D01*
X73239936Y-112119676D02*
X73049459Y-112024438D01*
X73049459Y-112024438D02*
X72287555Y-112024438D01*
X72287555Y-112024438D02*
X72097078Y-112119676D01*
X72097078Y-112119676D02*
X72001840Y-112310152D01*
X72001840Y-112310152D02*
X72001840Y-112691105D01*
X72001840Y-112691105D02*
X72097078Y-112881581D01*
X72097078Y-112881581D02*
X72287555Y-112976819D01*
X72287555Y-112976819D02*
X72478031Y-112976819D01*
X72478031Y-112976819D02*
X72668507Y-112024438D01*
X72001840Y-113833962D02*
X73335174Y-113833962D01*
X72192316Y-113833962D02*
X72097078Y-113929200D01*
X72097078Y-113929200D02*
X72001840Y-114119676D01*
X72001840Y-114119676D02*
X72001840Y-114405391D01*
X72001840Y-114405391D02*
X72097078Y-114595867D01*
X72097078Y-114595867D02*
X72287555Y-114691105D01*
X72287555Y-114691105D02*
X73335174Y-114691105D01*
X72001840Y-115357772D02*
X72001840Y-116119676D01*
X71335174Y-115643486D02*
X73049459Y-115643486D01*
X73049459Y-115643486D02*
X73239936Y-115738724D01*
X73239936Y-115738724D02*
X73335174Y-115929200D01*
X73335174Y-115929200D02*
X73335174Y-116119676D01*
X76555062Y-78214911D02*
X75507443Y-78214911D01*
X75507443Y-78214911D02*
X75316966Y-78119673D01*
X75316966Y-78119673D02*
X75221728Y-77929197D01*
X75221728Y-77929197D02*
X75221728Y-77548244D01*
X75221728Y-77548244D02*
X75316966Y-77357768D01*
X76459824Y-78214911D02*
X76555062Y-78024435D01*
X76555062Y-78024435D02*
X76555062Y-77548244D01*
X76555062Y-77548244D02*
X76459824Y-77357768D01*
X76459824Y-77357768D02*
X76269347Y-77262530D01*
X76269347Y-77262530D02*
X76078871Y-77262530D01*
X76078871Y-77262530D02*
X75888395Y-77357768D01*
X75888395Y-77357768D02*
X75793157Y-77548244D01*
X75793157Y-77548244D02*
X75793157Y-78024435D01*
X75793157Y-78024435D02*
X75697919Y-78214911D01*
X75221728Y-79167292D02*
X76555062Y-79167292D01*
X75412204Y-79167292D02*
X75316966Y-79262530D01*
X75316966Y-79262530D02*
X75221728Y-79453006D01*
X75221728Y-79453006D02*
X75221728Y-79738721D01*
X75221728Y-79738721D02*
X75316966Y-79929197D01*
X75316966Y-79929197D02*
X75507443Y-80024435D01*
X75507443Y-80024435D02*
X76555062Y-80024435D01*
X76555062Y-81833959D02*
X74555062Y-81833959D01*
X76459824Y-81833959D02*
X76555062Y-81643483D01*
X76555062Y-81643483D02*
X76555062Y-81262530D01*
X76555062Y-81262530D02*
X76459824Y-81072054D01*
X76459824Y-81072054D02*
X76364585Y-80976816D01*
X76364585Y-80976816D02*
X76174109Y-80881578D01*
X76174109Y-80881578D02*
X75602681Y-80881578D01*
X75602681Y-80881578D02*
X75412204Y-80976816D01*
X75412204Y-80976816D02*
X75316966Y-81072054D01*
X75316966Y-81072054D02*
X75221728Y-81262530D01*
X75221728Y-81262530D02*
X75221728Y-81643483D01*
X75221728Y-81643483D02*
X75316966Y-81833959D01*
X76555062Y-85167293D02*
X74555062Y-85167293D01*
X76459824Y-85167293D02*
X76555062Y-84976817D01*
X76555062Y-84976817D02*
X76555062Y-84595864D01*
X76555062Y-84595864D02*
X76459824Y-84405388D01*
X76459824Y-84405388D02*
X76364585Y-84310150D01*
X76364585Y-84310150D02*
X76174109Y-84214912D01*
X76174109Y-84214912D02*
X75602681Y-84214912D01*
X75602681Y-84214912D02*
X75412204Y-84310150D01*
X75412204Y-84310150D02*
X75316966Y-84405388D01*
X75316966Y-84405388D02*
X75221728Y-84595864D01*
X75221728Y-84595864D02*
X75221728Y-84976817D01*
X75221728Y-84976817D02*
X75316966Y-85167293D01*
X76555062Y-86976817D02*
X75507443Y-86976817D01*
X75507443Y-86976817D02*
X75316966Y-86881579D01*
X75316966Y-86881579D02*
X75221728Y-86691103D01*
X75221728Y-86691103D02*
X75221728Y-86310150D01*
X75221728Y-86310150D02*
X75316966Y-86119674D01*
X76459824Y-86976817D02*
X76555062Y-86786341D01*
X76555062Y-86786341D02*
X76555062Y-86310150D01*
X76555062Y-86310150D02*
X76459824Y-86119674D01*
X76459824Y-86119674D02*
X76269347Y-86024436D01*
X76269347Y-86024436D02*
X76078871Y-86024436D01*
X76078871Y-86024436D02*
X75888395Y-86119674D01*
X75888395Y-86119674D02*
X75793157Y-86310150D01*
X75793157Y-86310150D02*
X75793157Y-86786341D01*
X75793157Y-86786341D02*
X75697919Y-86976817D01*
X75221728Y-87643484D02*
X75221728Y-88405388D01*
X74555062Y-87929198D02*
X76269347Y-87929198D01*
X76269347Y-87929198D02*
X76459824Y-88024436D01*
X76459824Y-88024436D02*
X76555062Y-88214912D01*
X76555062Y-88214912D02*
X76555062Y-88405388D01*
X76555062Y-89929198D02*
X75507443Y-89929198D01*
X75507443Y-89929198D02*
X75316966Y-89833960D01*
X75316966Y-89833960D02*
X75221728Y-89643484D01*
X75221728Y-89643484D02*
X75221728Y-89262531D01*
X75221728Y-89262531D02*
X75316966Y-89072055D01*
X76459824Y-89929198D02*
X76555062Y-89738722D01*
X76555062Y-89738722D02*
X76555062Y-89262531D01*
X76555062Y-89262531D02*
X76459824Y-89072055D01*
X76459824Y-89072055D02*
X76269347Y-88976817D01*
X76269347Y-88976817D02*
X76078871Y-88976817D01*
X76078871Y-88976817D02*
X75888395Y-89072055D01*
X75888395Y-89072055D02*
X75793157Y-89262531D01*
X75793157Y-89262531D02*
X75793157Y-89738722D01*
X75793157Y-89738722D02*
X75697919Y-89929198D01*
X76459824Y-93262532D02*
X76555062Y-93072056D01*
X76555062Y-93072056D02*
X76555062Y-92691103D01*
X76555062Y-92691103D02*
X76459824Y-92500627D01*
X76459824Y-92500627D02*
X76364585Y-92405389D01*
X76364585Y-92405389D02*
X76174109Y-92310151D01*
X76174109Y-92310151D02*
X75602681Y-92310151D01*
X75602681Y-92310151D02*
X75412204Y-92405389D01*
X75412204Y-92405389D02*
X75316966Y-92500627D01*
X75316966Y-92500627D02*
X75221728Y-92691103D01*
X75221728Y-92691103D02*
X75221728Y-93072056D01*
X75221728Y-93072056D02*
X75316966Y-93262532D01*
X76555062Y-94405389D02*
X76459824Y-94214913D01*
X76459824Y-94214913D02*
X76364585Y-94119675D01*
X76364585Y-94119675D02*
X76174109Y-94024437D01*
X76174109Y-94024437D02*
X75602681Y-94024437D01*
X75602681Y-94024437D02*
X75412204Y-94119675D01*
X75412204Y-94119675D02*
X75316966Y-94214913D01*
X75316966Y-94214913D02*
X75221728Y-94405389D01*
X75221728Y-94405389D02*
X75221728Y-94691104D01*
X75221728Y-94691104D02*
X75316966Y-94881580D01*
X75316966Y-94881580D02*
X75412204Y-94976818D01*
X75412204Y-94976818D02*
X75602681Y-95072056D01*
X75602681Y-95072056D02*
X76174109Y-95072056D01*
X76174109Y-95072056D02*
X76364585Y-94976818D01*
X76364585Y-94976818D02*
X76459824Y-94881580D01*
X76459824Y-94881580D02*
X76555062Y-94691104D01*
X76555062Y-94691104D02*
X76555062Y-94405389D01*
X76555062Y-96214913D02*
X76459824Y-96024437D01*
X76459824Y-96024437D02*
X76269347Y-95929199D01*
X76269347Y-95929199D02*
X74555062Y-95929199D01*
X76555062Y-97262532D02*
X76459824Y-97072056D01*
X76459824Y-97072056D02*
X76269347Y-96976818D01*
X76269347Y-96976818D02*
X74555062Y-96976818D01*
X76459824Y-98786342D02*
X76555062Y-98595866D01*
X76555062Y-98595866D02*
X76555062Y-98214913D01*
X76555062Y-98214913D02*
X76459824Y-98024437D01*
X76459824Y-98024437D02*
X76269347Y-97929199D01*
X76269347Y-97929199D02*
X75507443Y-97929199D01*
X75507443Y-97929199D02*
X75316966Y-98024437D01*
X75316966Y-98024437D02*
X75221728Y-98214913D01*
X75221728Y-98214913D02*
X75221728Y-98595866D01*
X75221728Y-98595866D02*
X75316966Y-98786342D01*
X75316966Y-98786342D02*
X75507443Y-98881580D01*
X75507443Y-98881580D02*
X75697919Y-98881580D01*
X75697919Y-98881580D02*
X75888395Y-97929199D01*
X76459824Y-100595866D02*
X76555062Y-100405390D01*
X76555062Y-100405390D02*
X76555062Y-100024437D01*
X76555062Y-100024437D02*
X76459824Y-99833961D01*
X76459824Y-99833961D02*
X76364585Y-99738723D01*
X76364585Y-99738723D02*
X76174109Y-99643485D01*
X76174109Y-99643485D02*
X75602681Y-99643485D01*
X75602681Y-99643485D02*
X75412204Y-99738723D01*
X75412204Y-99738723D02*
X75316966Y-99833961D01*
X75316966Y-99833961D02*
X75221728Y-100024437D01*
X75221728Y-100024437D02*
X75221728Y-100405390D01*
X75221728Y-100405390D02*
X75316966Y-100595866D01*
X75221728Y-101167295D02*
X75221728Y-101929199D01*
X74555062Y-101453009D02*
X76269347Y-101453009D01*
X76269347Y-101453009D02*
X76459824Y-101548247D01*
X76459824Y-101548247D02*
X76555062Y-101738723D01*
X76555062Y-101738723D02*
X76555062Y-101929199D01*
X76555062Y-102595866D02*
X75221728Y-102595866D01*
X74555062Y-102595866D02*
X74650300Y-102500628D01*
X74650300Y-102500628D02*
X74745538Y-102595866D01*
X74745538Y-102595866D02*
X74650300Y-102691104D01*
X74650300Y-102691104D02*
X74555062Y-102595866D01*
X74555062Y-102595866D02*
X74745538Y-102595866D01*
X76555062Y-103833961D02*
X76459824Y-103643485D01*
X76459824Y-103643485D02*
X76364585Y-103548247D01*
X76364585Y-103548247D02*
X76174109Y-103453009D01*
X76174109Y-103453009D02*
X75602681Y-103453009D01*
X75602681Y-103453009D02*
X75412204Y-103548247D01*
X75412204Y-103548247D02*
X75316966Y-103643485D01*
X75316966Y-103643485D02*
X75221728Y-103833961D01*
X75221728Y-103833961D02*
X75221728Y-104119676D01*
X75221728Y-104119676D02*
X75316966Y-104310152D01*
X75316966Y-104310152D02*
X75412204Y-104405390D01*
X75412204Y-104405390D02*
X75602681Y-104500628D01*
X75602681Y-104500628D02*
X76174109Y-104500628D01*
X76174109Y-104500628D02*
X76364585Y-104405390D01*
X76364585Y-104405390D02*
X76459824Y-104310152D01*
X76459824Y-104310152D02*
X76555062Y-104119676D01*
X76555062Y-104119676D02*
X76555062Y-103833961D01*
X75221728Y-105357771D02*
X76555062Y-105357771D01*
X75412204Y-105357771D02*
X75316966Y-105453009D01*
X75316966Y-105453009D02*
X75221728Y-105643485D01*
X75221728Y-105643485D02*
X75221728Y-105929200D01*
X75221728Y-105929200D02*
X75316966Y-106119676D01*
X75316966Y-106119676D02*
X75507443Y-106214914D01*
X75507443Y-106214914D02*
X76555062Y-106214914D01*
X76555062Y-108691105D02*
X74555062Y-108691105D01*
X75316966Y-108691105D02*
X75221728Y-108881581D01*
X75221728Y-108881581D02*
X75221728Y-109262534D01*
X75221728Y-109262534D02*
X75316966Y-109453010D01*
X75316966Y-109453010D02*
X75412204Y-109548248D01*
X75412204Y-109548248D02*
X75602681Y-109643486D01*
X75602681Y-109643486D02*
X76174109Y-109643486D01*
X76174109Y-109643486D02*
X76364585Y-109548248D01*
X76364585Y-109548248D02*
X76459824Y-109453010D01*
X76459824Y-109453010D02*
X76555062Y-109262534D01*
X76555062Y-109262534D02*
X76555062Y-108881581D01*
X76555062Y-108881581D02*
X76459824Y-108691105D01*
X76555062Y-110786343D02*
X76459824Y-110595867D01*
X76459824Y-110595867D02*
X76364585Y-110500629D01*
X76364585Y-110500629D02*
X76174109Y-110405391D01*
X76174109Y-110405391D02*
X75602681Y-110405391D01*
X75602681Y-110405391D02*
X75412204Y-110500629D01*
X75412204Y-110500629D02*
X75316966Y-110595867D01*
X75316966Y-110595867D02*
X75221728Y-110786343D01*
X75221728Y-110786343D02*
X75221728Y-111072058D01*
X75221728Y-111072058D02*
X75316966Y-111262534D01*
X75316966Y-111262534D02*
X75412204Y-111357772D01*
X75412204Y-111357772D02*
X75602681Y-111453010D01*
X75602681Y-111453010D02*
X76174109Y-111453010D01*
X76174109Y-111453010D02*
X76364585Y-111357772D01*
X76364585Y-111357772D02*
X76459824Y-111262534D01*
X76459824Y-111262534D02*
X76555062Y-111072058D01*
X76555062Y-111072058D02*
X76555062Y-110786343D01*
X76555062Y-113167296D02*
X75507443Y-113167296D01*
X75507443Y-113167296D02*
X75316966Y-113072058D01*
X75316966Y-113072058D02*
X75221728Y-112881582D01*
X75221728Y-112881582D02*
X75221728Y-112500629D01*
X75221728Y-112500629D02*
X75316966Y-112310153D01*
X76459824Y-113167296D02*
X76555062Y-112976820D01*
X76555062Y-112976820D02*
X76555062Y-112500629D01*
X76555062Y-112500629D02*
X76459824Y-112310153D01*
X76459824Y-112310153D02*
X76269347Y-112214915D01*
X76269347Y-112214915D02*
X76078871Y-112214915D01*
X76078871Y-112214915D02*
X75888395Y-112310153D01*
X75888395Y-112310153D02*
X75793157Y-112500629D01*
X75793157Y-112500629D02*
X75793157Y-112976820D01*
X75793157Y-112976820D02*
X75697919Y-113167296D01*
X76555062Y-114119677D02*
X75221728Y-114119677D01*
X75602681Y-114119677D02*
X75412204Y-114214915D01*
X75412204Y-114214915D02*
X75316966Y-114310153D01*
X75316966Y-114310153D02*
X75221728Y-114500629D01*
X75221728Y-114500629D02*
X75221728Y-114691106D01*
X76555062Y-116214915D02*
X74555062Y-116214915D01*
X76459824Y-116214915D02*
X76555062Y-116024439D01*
X76555062Y-116024439D02*
X76555062Y-115643486D01*
X76555062Y-115643486D02*
X76459824Y-115453010D01*
X76459824Y-115453010D02*
X76364585Y-115357772D01*
X76364585Y-115357772D02*
X76174109Y-115262534D01*
X76174109Y-115262534D02*
X75602681Y-115262534D01*
X75602681Y-115262534D02*
X75412204Y-115357772D01*
X75412204Y-115357772D02*
X75316966Y-115453010D01*
X75316966Y-115453010D02*
X75221728Y-115643486D01*
X75221728Y-115643486D02*
X75221728Y-116024439D01*
X75221728Y-116024439D02*
X75316966Y-116214915D01*
X77774950Y-77072054D02*
X77774950Y-78214911D01*
X79774950Y-77643482D02*
X77774950Y-77643482D01*
X79774950Y-79167292D02*
X79679712Y-78976816D01*
X79679712Y-78976816D02*
X79584473Y-78881578D01*
X79584473Y-78881578D02*
X79393997Y-78786340D01*
X79393997Y-78786340D02*
X78822569Y-78786340D01*
X78822569Y-78786340D02*
X78632092Y-78881578D01*
X78632092Y-78881578D02*
X78536854Y-78976816D01*
X78536854Y-78976816D02*
X78441616Y-79167292D01*
X78441616Y-79167292D02*
X78441616Y-79453007D01*
X78441616Y-79453007D02*
X78536854Y-79643483D01*
X78536854Y-79643483D02*
X78632092Y-79738721D01*
X78632092Y-79738721D02*
X78822569Y-79833959D01*
X78822569Y-79833959D02*
X79393997Y-79833959D01*
X79393997Y-79833959D02*
X79584473Y-79738721D01*
X79584473Y-79738721D02*
X79679712Y-79643483D01*
X79679712Y-79643483D02*
X79774950Y-79453007D01*
X79774950Y-79453007D02*
X79774950Y-79167292D01*
X79774950Y-80691102D02*
X78441616Y-80691102D01*
X78632092Y-80691102D02*
X78536854Y-80786340D01*
X78536854Y-80786340D02*
X78441616Y-80976816D01*
X78441616Y-80976816D02*
X78441616Y-81262531D01*
X78441616Y-81262531D02*
X78536854Y-81453007D01*
X78536854Y-81453007D02*
X78727331Y-81548245D01*
X78727331Y-81548245D02*
X79774950Y-81548245D01*
X78727331Y-81548245D02*
X78536854Y-81643483D01*
X78536854Y-81643483D02*
X78441616Y-81833959D01*
X78441616Y-81833959D02*
X78441616Y-82119673D01*
X78441616Y-82119673D02*
X78536854Y-82310150D01*
X78536854Y-82310150D02*
X78727331Y-82405388D01*
X78727331Y-82405388D02*
X79774950Y-82405388D01*
X79774950Y-84214912D02*
X78727331Y-84214912D01*
X78727331Y-84214912D02*
X78536854Y-84119674D01*
X78536854Y-84119674D02*
X78441616Y-83929198D01*
X78441616Y-83929198D02*
X78441616Y-83548245D01*
X78441616Y-83548245D02*
X78536854Y-83357769D01*
X79679712Y-84214912D02*
X79774950Y-84024436D01*
X79774950Y-84024436D02*
X79774950Y-83548245D01*
X79774950Y-83548245D02*
X79679712Y-83357769D01*
X79679712Y-83357769D02*
X79489235Y-83262531D01*
X79489235Y-83262531D02*
X79298759Y-83262531D01*
X79298759Y-83262531D02*
X79108283Y-83357769D01*
X79108283Y-83357769D02*
X79013045Y-83548245D01*
X79013045Y-83548245D02*
X79013045Y-84024436D01*
X79013045Y-84024436D02*
X78917807Y-84214912D01*
X79679712Y-85072055D02*
X79774950Y-85262531D01*
X79774950Y-85262531D02*
X79774950Y-85643483D01*
X79774950Y-85643483D02*
X79679712Y-85833960D01*
X79679712Y-85833960D02*
X79489235Y-85929198D01*
X79489235Y-85929198D02*
X79393997Y-85929198D01*
X79393997Y-85929198D02*
X79203521Y-85833960D01*
X79203521Y-85833960D02*
X79108283Y-85643483D01*
X79108283Y-85643483D02*
X79108283Y-85357769D01*
X79108283Y-85357769D02*
X79013045Y-85167293D01*
X79013045Y-85167293D02*
X78822569Y-85072055D01*
X78822569Y-85072055D02*
X78727331Y-85072055D01*
X78727331Y-85072055D02*
X78536854Y-85167293D01*
X78536854Y-85167293D02*
X78441616Y-85357769D01*
X78441616Y-85357769D02*
X78441616Y-85643483D01*
X78441616Y-85643483D02*
X78536854Y-85833960D01*
X78441616Y-86595865D02*
X78441616Y-87643484D01*
X78441616Y-87643484D02*
X79774950Y-86595865D01*
X79774950Y-86595865D02*
X79774950Y-87643484D01*
X79679712Y-89833961D02*
X79774950Y-90119675D01*
X79774950Y-90119675D02*
X79774950Y-90595866D01*
X79774950Y-90595866D02*
X79679712Y-90786342D01*
X79679712Y-90786342D02*
X79584473Y-90881580D01*
X79584473Y-90881580D02*
X79393997Y-90976818D01*
X79393997Y-90976818D02*
X79203521Y-90976818D01*
X79203521Y-90976818D02*
X79013045Y-90881580D01*
X79013045Y-90881580D02*
X78917807Y-90786342D01*
X78917807Y-90786342D02*
X78822569Y-90595866D01*
X78822569Y-90595866D02*
X78727331Y-90214913D01*
X78727331Y-90214913D02*
X78632092Y-90024437D01*
X78632092Y-90024437D02*
X78536854Y-89929199D01*
X78536854Y-89929199D02*
X78346378Y-89833961D01*
X78346378Y-89833961D02*
X78155902Y-89833961D01*
X78155902Y-89833961D02*
X77965426Y-89929199D01*
X77965426Y-89929199D02*
X77870188Y-90024437D01*
X77870188Y-90024437D02*
X77774950Y-90214913D01*
X77774950Y-90214913D02*
X77774950Y-90691104D01*
X77774950Y-90691104D02*
X77870188Y-90976818D01*
X78441616Y-91643485D02*
X78441616Y-92691104D01*
X78441616Y-92691104D02*
X79774950Y-91643485D01*
X79774950Y-91643485D02*
X79774950Y-92691104D01*
X78441616Y-93262533D02*
X79774950Y-93738723D01*
X78441616Y-94214914D02*
X79774950Y-93738723D01*
X79774950Y-93738723D02*
X80251140Y-93548247D01*
X80251140Y-93548247D02*
X80346378Y-93453009D01*
X80346378Y-93453009D02*
X80441616Y-93262533D01*
X79774950Y-95833962D02*
X77774950Y-95833962D01*
X79679712Y-95833962D02*
X79774950Y-95643486D01*
X79774950Y-95643486D02*
X79774950Y-95262533D01*
X79774950Y-95262533D02*
X79679712Y-95072057D01*
X79679712Y-95072057D02*
X79584473Y-94976819D01*
X79584473Y-94976819D02*
X79393997Y-94881581D01*
X79393997Y-94881581D02*
X78822569Y-94881581D01*
X78822569Y-94881581D02*
X78632092Y-94976819D01*
X78632092Y-94976819D02*
X78536854Y-95072057D01*
X78536854Y-95072057D02*
X78441616Y-95262533D01*
X78441616Y-95262533D02*
X78441616Y-95643486D01*
X78441616Y-95643486D02*
X78536854Y-95833962D01*
X79774950Y-97072057D02*
X79679712Y-96881581D01*
X79679712Y-96881581D02*
X79489235Y-96786343D01*
X79489235Y-96786343D02*
X77774950Y-96786343D01*
X78822569Y-96500629D02*
X78441616Y-97072057D01*
X79774950Y-98691105D02*
X78727331Y-98691105D01*
X78727331Y-98691105D02*
X78536854Y-98595867D01*
X78536854Y-98595867D02*
X78441616Y-98405391D01*
X78441616Y-98405391D02*
X78441616Y-98024438D01*
X78441616Y-98024438D02*
X78536854Y-97833962D01*
X79679712Y-98691105D02*
X79774950Y-98500629D01*
X79774950Y-98500629D02*
X79774950Y-98024438D01*
X79774950Y-98024438D02*
X79679712Y-97833962D01*
X79679712Y-97833962D02*
X79489235Y-97738724D01*
X79489235Y-97738724D02*
X79298759Y-97738724D01*
X79298759Y-97738724D02*
X79108283Y-97833962D01*
X79108283Y-97833962D02*
X79013045Y-98024438D01*
X79013045Y-98024438D02*
X79013045Y-98500629D01*
X79013045Y-98500629D02*
X78917807Y-98691105D01*
X79774950Y-99643486D02*
X77774950Y-99643486D01*
X79013045Y-99833962D02*
X79774950Y-100405391D01*
X78441616Y-100405391D02*
X79203521Y-99643486D01*
X79203521Y-102691106D02*
X79203521Y-103643487D01*
X79774950Y-102500630D02*
X77774950Y-103167296D01*
X77774950Y-103167296D02*
X79774950Y-103833963D01*
X77870188Y-105548249D02*
X77774950Y-105357773D01*
X77774950Y-105357773D02*
X77774950Y-105072059D01*
X77774950Y-105072059D02*
X77870188Y-104786344D01*
X77870188Y-104786344D02*
X78060664Y-104595868D01*
X78060664Y-104595868D02*
X78251140Y-104500630D01*
X78251140Y-104500630D02*
X78632092Y-104405392D01*
X78632092Y-104405392D02*
X78917807Y-104405392D01*
X78917807Y-104405392D02*
X79298759Y-104500630D01*
X79298759Y-104500630D02*
X79489235Y-104595868D01*
X79489235Y-104595868D02*
X79679712Y-104786344D01*
X79679712Y-104786344D02*
X79774950Y-105072059D01*
X79774950Y-105072059D02*
X79774950Y-105262535D01*
X79774950Y-105262535D02*
X79679712Y-105548249D01*
X79679712Y-105548249D02*
X79584473Y-105643487D01*
X79584473Y-105643487D02*
X78917807Y-105643487D01*
X78917807Y-105643487D02*
X78917807Y-105262535D01*
X79774950Y-106500630D02*
X77774950Y-106500630D01*
X78727331Y-106500630D02*
X78727331Y-107643487D01*
X79774950Y-107643487D02*
X77774950Y-107643487D01*
X81947219Y-78024435D02*
X81947219Y-77357768D01*
X82994838Y-77357768D02*
X80994838Y-77357768D01*
X80994838Y-77357768D02*
X80994838Y-78310149D01*
X82994838Y-79072054D02*
X81661504Y-79072054D01*
X80994838Y-79072054D02*
X81090076Y-78976816D01*
X81090076Y-78976816D02*
X81185314Y-79072054D01*
X81185314Y-79072054D02*
X81090076Y-79167292D01*
X81090076Y-79167292D02*
X80994838Y-79072054D01*
X80994838Y-79072054D02*
X81185314Y-79072054D01*
X81661504Y-80024435D02*
X82994838Y-80024435D01*
X81851980Y-80024435D02*
X81756742Y-80119673D01*
X81756742Y-80119673D02*
X81661504Y-80310149D01*
X81661504Y-80310149D02*
X81661504Y-80595864D01*
X81661504Y-80595864D02*
X81756742Y-80786340D01*
X81756742Y-80786340D02*
X81947219Y-80881578D01*
X81947219Y-80881578D02*
X82994838Y-80881578D01*
X82994838Y-81833959D02*
X81661504Y-81833959D01*
X80994838Y-81833959D02*
X81090076Y-81738721D01*
X81090076Y-81738721D02*
X81185314Y-81833959D01*
X81185314Y-81833959D02*
X81090076Y-81929197D01*
X81090076Y-81929197D02*
X80994838Y-81833959D01*
X80994838Y-81833959D02*
X81185314Y-81833959D01*
X82899600Y-82691102D02*
X82994838Y-82881578D01*
X82994838Y-82881578D02*
X82994838Y-83262530D01*
X82994838Y-83262530D02*
X82899600Y-83453007D01*
X82899600Y-83453007D02*
X82709123Y-83548245D01*
X82709123Y-83548245D02*
X82613885Y-83548245D01*
X82613885Y-83548245D02*
X82423409Y-83453007D01*
X82423409Y-83453007D02*
X82328171Y-83262530D01*
X82328171Y-83262530D02*
X82328171Y-82976816D01*
X82328171Y-82976816D02*
X82232933Y-82786340D01*
X82232933Y-82786340D02*
X82042457Y-82691102D01*
X82042457Y-82691102D02*
X81947219Y-82691102D01*
X81947219Y-82691102D02*
X81756742Y-82786340D01*
X81756742Y-82786340D02*
X81661504Y-82976816D01*
X81661504Y-82976816D02*
X81661504Y-83262530D01*
X81661504Y-83262530D02*
X81756742Y-83453007D01*
X82994838Y-84405388D02*
X80994838Y-84405388D01*
X82994838Y-85262531D02*
X81947219Y-85262531D01*
X81947219Y-85262531D02*
X81756742Y-85167293D01*
X81756742Y-85167293D02*
X81661504Y-84976817D01*
X81661504Y-84976817D02*
X81661504Y-84691102D01*
X81661504Y-84691102D02*
X81756742Y-84500626D01*
X81756742Y-84500626D02*
X81851980Y-84405388D01*
X82899600Y-86976817D02*
X82994838Y-86786341D01*
X82994838Y-86786341D02*
X82994838Y-86405388D01*
X82994838Y-86405388D02*
X82899600Y-86214912D01*
X82899600Y-86214912D02*
X82709123Y-86119674D01*
X82709123Y-86119674D02*
X81947219Y-86119674D01*
X81947219Y-86119674D02*
X81756742Y-86214912D01*
X81756742Y-86214912D02*
X81661504Y-86405388D01*
X81661504Y-86405388D02*
X81661504Y-86786341D01*
X81661504Y-86786341D02*
X81756742Y-86976817D01*
X81756742Y-86976817D02*
X81947219Y-87072055D01*
X81947219Y-87072055D02*
X82137695Y-87072055D01*
X82137695Y-87072055D02*
X82328171Y-86119674D01*
X82994838Y-88786341D02*
X80994838Y-88786341D01*
X82899600Y-88786341D02*
X82994838Y-88595865D01*
X82994838Y-88595865D02*
X82994838Y-88214912D01*
X82994838Y-88214912D02*
X82899600Y-88024436D01*
X82899600Y-88024436D02*
X82804361Y-87929198D01*
X82804361Y-87929198D02*
X82613885Y-87833960D01*
X82613885Y-87833960D02*
X82042457Y-87833960D01*
X82042457Y-87833960D02*
X81851980Y-87929198D01*
X81851980Y-87929198D02*
X81756742Y-88024436D01*
X81756742Y-88024436D02*
X81661504Y-88214912D01*
X81661504Y-88214912D02*
X81661504Y-88595865D01*
X81661504Y-88595865D02*
X81756742Y-88786341D01*
X80994838Y-91643484D02*
X80994838Y-91833961D01*
X80994838Y-91833961D02*
X81090076Y-92024437D01*
X81090076Y-92024437D02*
X81185314Y-92119675D01*
X81185314Y-92119675D02*
X81375790Y-92214913D01*
X81375790Y-92214913D02*
X81756742Y-92310151D01*
X81756742Y-92310151D02*
X82232933Y-92310151D01*
X82232933Y-92310151D02*
X82613885Y-92214913D01*
X82613885Y-92214913D02*
X82804361Y-92119675D01*
X82804361Y-92119675D02*
X82899600Y-92024437D01*
X82899600Y-92024437D02*
X82994838Y-91833961D01*
X82994838Y-91833961D02*
X82994838Y-91643484D01*
X82994838Y-91643484D02*
X82899600Y-91453008D01*
X82899600Y-91453008D02*
X82804361Y-91357770D01*
X82804361Y-91357770D02*
X82613885Y-91262532D01*
X82613885Y-91262532D02*
X82232933Y-91167294D01*
X82232933Y-91167294D02*
X81756742Y-91167294D01*
X81756742Y-91167294D02*
X81375790Y-91262532D01*
X81375790Y-91262532D02*
X81185314Y-91357770D01*
X81185314Y-91357770D02*
X81090076Y-91453008D01*
X81090076Y-91453008D02*
X80994838Y-91643484D01*
X80994838Y-92976818D02*
X80994838Y-94310151D01*
X80994838Y-94310151D02*
X82994838Y-93453008D01*
X82804361Y-95072056D02*
X82899600Y-95167294D01*
X82899600Y-95167294D02*
X82994838Y-95072056D01*
X82994838Y-95072056D02*
X82899600Y-94976818D01*
X82899600Y-94976818D02*
X82804361Y-95072056D01*
X82804361Y-95072056D02*
X82994838Y-95072056D01*
X80994838Y-96405389D02*
X80994838Y-96595866D01*
X80994838Y-96595866D02*
X81090076Y-96786342D01*
X81090076Y-96786342D02*
X81185314Y-96881580D01*
X81185314Y-96881580D02*
X81375790Y-96976818D01*
X81375790Y-96976818D02*
X81756742Y-97072056D01*
X81756742Y-97072056D02*
X82232933Y-97072056D01*
X82232933Y-97072056D02*
X82613885Y-96976818D01*
X82613885Y-96976818D02*
X82804361Y-96881580D01*
X82804361Y-96881580D02*
X82899600Y-96786342D01*
X82899600Y-96786342D02*
X82994838Y-96595866D01*
X82994838Y-96595866D02*
X82994838Y-96405389D01*
X82994838Y-96405389D02*
X82899600Y-96214913D01*
X82899600Y-96214913D02*
X82804361Y-96119675D01*
X82804361Y-96119675D02*
X82613885Y-96024437D01*
X82613885Y-96024437D02*
X82232933Y-95929199D01*
X82232933Y-95929199D02*
X81756742Y-95929199D01*
X81756742Y-95929199D02*
X81375790Y-96024437D01*
X81375790Y-96024437D02*
X81185314Y-96119675D01*
X81185314Y-96119675D02*
X81090076Y-96214913D01*
X81090076Y-96214913D02*
X80994838Y-96405389D01*
X81661504Y-98786342D02*
X82994838Y-98786342D01*
X80899600Y-98310151D02*
X82328171Y-97833961D01*
X82328171Y-97833961D02*
X82328171Y-99072056D01*
X82804361Y-99833961D02*
X82899600Y-99929199D01*
X82899600Y-99929199D02*
X82994838Y-99833961D01*
X82994838Y-99833961D02*
X82899600Y-99738723D01*
X82899600Y-99738723D02*
X82804361Y-99833961D01*
X82804361Y-99833961D02*
X82994838Y-99833961D01*
X81185314Y-100691104D02*
X81090076Y-100786342D01*
X81090076Y-100786342D02*
X80994838Y-100976818D01*
X80994838Y-100976818D02*
X80994838Y-101453009D01*
X80994838Y-101453009D02*
X81090076Y-101643485D01*
X81090076Y-101643485D02*
X81185314Y-101738723D01*
X81185314Y-101738723D02*
X81375790Y-101833961D01*
X81375790Y-101833961D02*
X81566266Y-101833961D01*
X81566266Y-101833961D02*
X81851980Y-101738723D01*
X81851980Y-101738723D02*
X82994838Y-100595866D01*
X82994838Y-100595866D02*
X82994838Y-101833961D01*
X80994838Y-103643485D02*
X80994838Y-102691104D01*
X80994838Y-102691104D02*
X81947219Y-102595866D01*
X81947219Y-102595866D02*
X81851980Y-102691104D01*
X81851980Y-102691104D02*
X81756742Y-102881580D01*
X81756742Y-102881580D02*
X81756742Y-103357771D01*
X81756742Y-103357771D02*
X81851980Y-103548247D01*
X81851980Y-103548247D02*
X81947219Y-103643485D01*
X81947219Y-103643485D02*
X82137695Y-103738723D01*
X82137695Y-103738723D02*
X82613885Y-103738723D01*
X82613885Y-103738723D02*
X82804361Y-103643485D01*
X82804361Y-103643485D02*
X82899600Y-103548247D01*
X82899600Y-103548247D02*
X82994838Y-103357771D01*
X82994838Y-103357771D02*
X82994838Y-102881580D01*
X82994838Y-102881580D02*
X82899600Y-102691104D01*
X82899600Y-102691104D02*
X82804361Y-102595866D01*
M02*
