M48
; DRILL file {KiCad 9.0.0} date 2025-04-07T01:58:08+0200
; FORMAT={-:-/ absolute / metric / decimal}
; #@! TF.CreationDate,2025-04-07T01:58:08+02:00
; #@! TF.GenerationSoftware,Kicad,Pcbnew,9.0.0
; #@! TF.FileFunction,Plated,1,2,PTH
FMAT,2
METRIC
; #@! TA.AperFunction,Plated,PTH,ViaDrill
T1C0.300
; #@! TA.AperFunction,Plated,PTH,ViaDrill
T2C0.400
; #@! TA.AperFunction,Plated,PTH,ViaDrill
T3C0.500
; #@! TA.AperFunction,Plated,PTH,ComponentDrill
T4C0.600
; #@! TA.AperFunction,Plated,PTH,ComponentDrill
T5C0.800
; #@! TA.AperFunction,Plated,PTH,ComponentDrill
T6C1.500
; #@! TA.AperFunction,Plated,PTH,ComponentDrill
T7C1.600
%
G90
G05
T1
X97.5Y-95.5
X97.5Y-118.5
X98.5Y-55.75
X98.75Y-49.25
X99.25Y-57.25
X100.486Y-101.5
X100.75Y-53.0
X101.25Y-93.0
X101.7Y-49.25
X102.25Y-52.75
X102.5Y-101.5
X102.8Y-49.25
X103.0Y-109.5
X103.35Y-52.25
X104.486Y-55.764
X105.0Y-117.5
X105.25Y-53.25
X105.264Y-54.986
X106.25Y-49.25
X106.25Y-73.0
X109.25Y-120.0
X109.5Y-97.75
X109.5Y-110.0
X111.5Y-95.5
X112.5Y-120.0
X112.75Y-97.0
X115.0Y-54.0
X115.0Y-75.0
X115.25Y-112.75
X115.861Y-91.611
X116.5Y-84.25
X116.5Y-85.6
X117.0Y-63.25
X117.0Y-63.95
X117.003Y-92.753
X117.25Y-77.75
X118.589Y-63.062
X119.139Y-63.611
X119.475Y-75.75
X120.0Y-85.6
X120.25Y-87.5
X120.575Y-75.75
X120.713Y-86.037
X120.75Y-73.252
X120.916Y-71.752
X121.25Y-51.0
X121.5Y-73.252
X121.562Y-85.188
X121.75Y-68.0
X121.75Y-69.0
X121.75Y-71.75
X122.0Y-91.75
X122.0Y-94.29
X122.0Y-96.83
X122.0Y-99.37
X122.0Y-101.91
X122.0Y-104.45
X122.0Y-106.99
X122.0Y-109.53
X122.0Y-112.07
X122.0Y-114.61
X122.0Y-117.15
X122.0Y-119.69
X122.0Y-122.23
X122.0Y-124.77
X122.0Y-127.31
X122.0Y-129.85
X122.0Y-132.39
X122.0Y-134.93
X122.0Y-137.47
X122.25Y-85.75
X122.5Y-62.25
X123.348Y-83.846
X123.5Y-65.3
X124.25Y-65.75
X124.486Y-73.252
X124.5Y-63.0
X124.5Y-63.7
X124.5Y-71.75
X124.515Y-85.014
X124.54Y-91.75
X124.54Y-94.29
X124.54Y-96.83
X124.54Y-99.37
X124.54Y-101.91
X124.54Y-104.45
X124.54Y-106.99
X124.54Y-109.53
X124.54Y-112.07
X124.54Y-114.61
X124.54Y-117.15
X124.54Y-119.69
X124.54Y-122.23
X124.54Y-124.77
X124.54Y-127.31
X124.54Y-129.85
X124.54Y-132.39
X124.54Y-134.93
X124.54Y-137.47
X124.624Y-70.848
X125.5Y-56.25
X125.5Y-73.252
X126.5Y-70.5
X126.5Y-73.252
X126.611Y-81.361
X126.727Y-71.75
X127.08Y-91.75
X127.08Y-94.29
X127.08Y-96.83
X127.08Y-99.37
X127.08Y-101.91
X127.08Y-104.45
X127.08Y-106.99
X127.08Y-109.53
X127.08Y-112.07
X127.08Y-114.61
X127.08Y-117.15
X127.08Y-119.69
X127.08Y-122.23
X127.08Y-124.77
X127.08Y-127.31
X127.08Y-129.85
X127.08Y-132.39
X127.08Y-134.93
X127.08Y-137.47
X127.236Y-64.014
X127.25Y-59.25
X127.25Y-63.25
X127.491Y-73.253
X127.8Y-70.5
X127.8Y-71.2
X128.0Y-82.5
X128.0Y-86.5
X128.164Y-73.059
X128.2Y-81.25
X128.75Y-88.5
X129.0Y-54.5
X129.486Y-71.736
X129.5Y-88.5
X129.62Y-106.99
X129.62Y-109.53
X129.62Y-112.07
X129.62Y-114.61
X129.62Y-117.15
X129.62Y-119.69
X129.62Y-122.23
X129.62Y-124.77
X129.62Y-127.31
X129.62Y-129.85
X129.62Y-132.39
X129.62Y-134.93
X129.62Y-137.47
X130.25Y-71.75
X130.7Y-70.35
X130.801Y-79.757
X131.25Y-71.75
X131.399Y-85.365
X131.5Y-44.075
X131.5Y-54.5
X131.8Y-59.25
X132.0Y-73.751
X132.16Y-91.75
X132.16Y-94.29
X132.16Y-96.83
X132.16Y-99.37
X132.16Y-101.91
X132.16Y-104.45
X132.16Y-109.53
X132.16Y-112.07
X132.16Y-114.61
X132.16Y-117.15
X132.16Y-119.69
X132.16Y-122.23
X132.16Y-124.77
X132.16Y-127.31
X132.16Y-129.85
X132.16Y-132.39
X132.16Y-134.93
X132.16Y-137.47
X132.5Y-77.5
X132.5Y-78.75
X132.5Y-81.25
X132.594Y-70.5
X133.4Y-59.8
X133.5Y-84.0
X133.725Y-58.5
X134.0Y-72.25
X134.7Y-91.75
X134.7Y-94.29
X134.7Y-96.83
X134.7Y-99.37
X134.7Y-101.91
X134.7Y-104.45
X134.7Y-106.99
X134.7Y-112.07
X134.7Y-114.61
X134.7Y-117.15
X134.7Y-119.69
X134.7Y-122.23
X134.7Y-124.77
X134.7Y-127.31
X134.7Y-129.85
X134.7Y-132.39
X134.7Y-134.93
X134.7Y-137.47
X135.25Y-59.25
X135.5Y-58.5
X135.5Y-62.0
X135.75Y-66.25
X136.5Y-59.8
X137.0Y-61.0
X137.0Y-65.25
X137.05Y-66.253
X137.24Y-91.75
X137.24Y-94.29
X137.24Y-96.83
X137.24Y-99.37
X137.24Y-101.91
X137.24Y-104.45
X137.24Y-124.77
X137.24Y-127.31
X137.24Y-129.85
X137.24Y-132.39
X137.24Y-134.93
X137.24Y-137.47
X138.5Y-66.8
X139.625Y-114.625
X139.75Y-65.0
X139.75Y-88.5
X139.78Y-124.77
X139.78Y-127.31
X139.78Y-129.85
X139.78Y-132.39
X139.78Y-134.93
X139.78Y-137.47
X139.86Y-113.64
X140.0Y-112.5
X140.55Y-110.0
X140.75Y-88.5
X141.0Y-50.75
X141.25Y-65.0
X142.25Y-58.5
X142.32Y-91.75
X142.32Y-94.29
X142.32Y-96.83
X142.32Y-99.37
X142.32Y-101.91
X142.32Y-104.45
X142.32Y-124.77
X142.32Y-127.31
X142.32Y-129.85
X142.32Y-132.39
X142.32Y-134.93
X142.32Y-137.47
X142.97Y-52.22
X143.0Y-66.25
X143.75Y-58.5
X144.25Y-53.25
X144.5Y-110.25
X144.86Y-91.75
X144.86Y-94.29
X144.86Y-96.83
X144.86Y-99.37
X144.86Y-101.91
X144.86Y-104.45
X144.86Y-124.77
X144.86Y-127.31
X144.86Y-129.85
X144.86Y-132.39
X144.86Y-134.93
X144.86Y-137.47
X147.189Y-114.561
X147.4Y-91.75
X147.4Y-94.29
X147.4Y-96.83
X147.4Y-99.37
X147.4Y-101.91
X147.4Y-124.77
X147.4Y-127.31
X147.4Y-129.85
X147.4Y-132.39
X147.4Y-134.93
X147.4Y-137.47
X148.099Y-58.5
X149.599Y-58.5
X149.75Y-46.5
X149.75Y-114.5
X149.94Y-91.75
X149.94Y-94.29
X149.94Y-96.83
X149.94Y-99.37
X149.94Y-124.77
X149.94Y-127.31
X149.94Y-129.85
X149.94Y-132.39
X149.94Y-134.93
X149.94Y-137.47
X152.48Y-91.75
X152.48Y-94.29
X152.48Y-96.83
X152.48Y-104.45
X152.48Y-124.77
X152.48Y-127.31
X152.48Y-129.85
X152.48Y-132.39
X152.48Y-134.93
X152.48Y-137.47
X155.02Y-91.75
X155.02Y-94.29
X155.02Y-101.91
X155.02Y-104.45
X155.02Y-106.99
X155.02Y-109.53
X155.02Y-112.07
X155.02Y-114.61
X155.02Y-117.15
X155.02Y-119.69
X155.02Y-122.23
X155.02Y-124.77
X155.02Y-127.31
X155.02Y-129.85
X155.02Y-132.39
X155.02Y-134.93
X155.02Y-137.47
X156.5Y-52.5
X157.56Y-91.75
X157.56Y-94.29
X157.56Y-99.37
X157.56Y-101.91
X157.56Y-104.45
X157.56Y-106.99
X157.56Y-109.53
X157.56Y-112.07
X157.56Y-114.61
X157.56Y-117.15
X157.56Y-119.69
X157.56Y-122.23
X157.56Y-124.77
X157.56Y-127.31
X157.56Y-129.85
X157.56Y-132.39
X157.56Y-134.93
X157.56Y-137.47
X160.1Y-91.75
X160.1Y-96.83
X160.1Y-99.37
X160.1Y-101.91
X160.1Y-104.45
X160.1Y-106.99
X160.1Y-109.53
X160.1Y-112.07
X160.1Y-114.61
X160.1Y-117.15
X160.1Y-119.69
X160.1Y-122.23
X160.1Y-124.77
X160.1Y-127.31
X160.1Y-129.85
X160.1Y-132.39
X160.1Y-134.93
X160.1Y-137.47
X162.64Y-91.75
X162.64Y-94.29
X162.64Y-96.83
X162.64Y-99.37
X162.64Y-101.91
X162.64Y-104.45
X162.64Y-106.99
X162.64Y-109.53
X162.64Y-112.07
X162.64Y-114.61
X162.64Y-117.15
X162.64Y-119.69
X162.64Y-122.23
X162.64Y-124.77
X162.64Y-127.31
X162.64Y-129.85
X162.64Y-132.39
X162.64Y-134.93
X162.64Y-137.47
X164.75Y-81.5
X165.18Y-91.75
X165.18Y-94.29
X165.18Y-96.83
X165.18Y-99.37
X165.18Y-101.91
X165.18Y-104.45
X165.18Y-106.99
X165.18Y-109.53
X165.18Y-112.07
X165.18Y-114.61
X165.18Y-117.15
X165.18Y-119.69
X165.18Y-122.23
X165.18Y-124.77
X165.18Y-127.31
X165.18Y-129.85
X165.18Y-132.39
X165.18Y-134.93
X165.18Y-137.47
X167.72Y-91.75
X167.72Y-94.29
X167.72Y-96.83
X167.72Y-99.37
X167.72Y-101.91
X167.72Y-104.45
X167.72Y-106.99
X167.72Y-109.53
X167.72Y-112.07
X167.72Y-114.61
X167.72Y-117.15
X167.72Y-119.69
X167.72Y-122.23
X167.72Y-124.77
X167.72Y-127.31
X167.72Y-129.85
X167.72Y-132.39
X167.72Y-134.93
X167.72Y-137.47
T2
X100.0Y-53.951
X106.25Y-50.5
X109.75Y-41.25
X115.25Y-41.25
X118.5Y-41.25
X121.25Y-62.3
X121.75Y-41.25
X121.75Y-65.65
X125.0Y-41.25
X128.25Y-41.25
X136.5Y-74.75
X162.25Y-41.0
T3
X91.5Y-42.25
X91.5Y-44.25
X111.75Y-117.0
X132.25Y-62.5
X132.25Y-65.25
X144.75Y-51.5
X146.5Y-110.5
X148.849Y-56.5
X161.55Y-87.3
T5
X122.25Y-75.75
X122.25Y-77.75
X122.25Y-79.75
X126.75Y-75.75
X126.75Y-77.75
X126.75Y-79.75
X134.25Y-44.0
X134.25Y-48.5
X136.25Y-44.0
X136.25Y-48.5
X138.25Y-44.0
X138.25Y-48.5
T6
X156.75Y-66.01
X156.75Y-86.5
T7
X102.35Y-137.4
X104.2Y-128.2
X109.0Y-128.2
X113.8Y-128.2
X115.65Y-137.4
T4
G00X98.18Y-43.325
M15
G01X98.18Y-42.525
M16
G05
G00X98.18Y-47.675
M15
G01X98.18Y-46.575
M16
G05
G00X106.82Y-43.325
M15
G01X106.82Y-42.525
M16
G05
G00X106.82Y-47.675
M15
G01X106.82Y-46.575
M16
G05
M30
